G04*
G04 #@! TF.GenerationSoftware,Altium Limited,Altium Designer,20.2.5 (213)*
G04*
G04 Layer_Physical_Order=1*
G04 Layer_Color=255*
%FSLAX44Y44*%
%MOMM*%
G71*
G04*
G04 #@! TF.SameCoordinates,D028A582-A43C-45AF-95F9-5D6BD50934B0*
G04*
G04*
G04 #@! TF.FilePolarity,Positive*
G04*
G01*
G75*
%ADD12R,0.8000X0.8000*%
%ADD13R,0.6000X2.2000*%
%ADD14R,3.5000X2.2000*%
%ADD15R,1.3000X0.9000*%
%ADD16R,0.9000X1.3000*%
%ADD17R,2.5000X2.6000*%
%ADD18R,2.6000X2.5000*%
%ADD19R,1.0000X0.5500*%
%ADD20R,0.5500X1.0000*%
%ADD21R,1.6000X3.0000*%
%ADD22R,1.5000X0.5500*%
%ADD23R,0.5500X1.5000*%
%ADD24R,2.7000X2.0000*%
%ADD25R,1.3500X0.4000*%
%ADD26R,1.9000X1.9000*%
%ADD27R,1.4000X1.6000*%
%ADD28R,0.6858X0.5588*%
%ADD29R,0.5588X0.6858*%
%ADD30R,1.3000X0.7000*%
%ADD31R,0.7000X1.3000*%
%ADD32R,0.9000X0.6000*%
%ADD63R,1.9000X1.9000*%
%ADD64C,1.9000*%
%ADD71C,0.3000*%
%ADD72C,1.0160*%
%ADD73C,0.6000*%
%ADD74C,0.4000*%
%ADD75C,1.0000*%
%ADD76C,0.8000*%
%ADD77C,0.5000*%
%ADD78C,3.2000*%
%ADD79C,4.0000*%
%ADD80R,1.0000X2.0000*%
%ADD81O,1.0000X2.0000*%
%ADD82O,2.0000X1.0000*%
%ADD83R,2.0000X1.0000*%
%ADD84C,7.4000*%
%ADD85R,1.7000X1.7000*%
%ADD86C,1.7000*%
%ADD87R,1.4000X2.0000*%
%ADD88O,1.4000X2.0000*%
G04:AMPARAMS|DCode=89|XSize=2mm|YSize=1.2mm|CornerRadius=0.3mm|HoleSize=0mm|Usage=FLASHONLY|Rotation=0.000|XOffset=0mm|YOffset=0mm|HoleType=Round|Shape=RoundedRectangle|*
%AMROUNDEDRECTD89*
21,1,2.0000,0.6000,0,0,0.0*
21,1,1.4000,1.2000,0,0,0.0*
1,1,0.6000,0.7000,-0.3000*
1,1,0.6000,-0.7000,-0.3000*
1,1,0.6000,-0.7000,0.3000*
1,1,0.6000,0.7000,0.3000*
%
%ADD89ROUNDEDRECTD89*%
%ADD90C,0.6000*%
G36*
X448000Y370000D02*
X425000D01*
Y511000D01*
X448000D01*
Y370000D01*
D02*
G37*
G36*
X683000Y295000D02*
X586867D01*
Y319867D01*
X589000Y322000D01*
X589000Y365000D01*
X586500Y365000D01*
X586000Y365500D01*
Y365500D01*
X575000D01*
Y365000D01*
X566000Y365000D01*
X562569Y368431D01*
Y388569D01*
X569000Y395000D01*
X604000Y395000D01*
X615000Y406000D01*
X683000D01*
Y295000D01*
D02*
G37*
G36*
X54000Y225000D02*
X42000D01*
Y218000D01*
X39995D01*
Y210000D01*
Y203500D01*
Y197000D01*
Y190500D01*
X42000D01*
Y190000D01*
X55000D01*
X55670Y189330D01*
X55698Y189190D01*
X56472Y188032D01*
X61027Y183477D01*
X62185Y182703D01*
X62325Y182675D01*
X64000Y181000D01*
X73000D01*
X78000Y176000D01*
Y159000D01*
X80000D01*
Y158500D01*
X91000D01*
Y159000D01*
X94000D01*
X97000Y162000D01*
Y179000D01*
X131000D01*
X142000Y190000D01*
X171000D01*
X171000Y161000D01*
X141000Y131000D01*
X127000Y131000D01*
X118039Y122039D01*
X106000D01*
X105220Y121884D01*
X104558Y121442D01*
X104116Y120780D01*
X103961Y120000D01*
Y109000D01*
X103961Y109000D01*
X104116Y108220D01*
X104558Y107558D01*
X104558Y107558D01*
X107961Y104155D01*
Y77000D01*
X108116Y76220D01*
X108558Y75558D01*
X109000Y75263D01*
Y75000D01*
X109803D01*
X110000Y74961D01*
X122000D01*
X122197Y75000D01*
X178000Y75000D01*
Y89000D01*
X183000Y94000D01*
X207000D01*
Y77000D01*
X199000Y69000D01*
X197000D01*
Y34000D01*
X204000Y27000D01*
X208000D01*
Y3000D01*
X95000D01*
Y26000D01*
X81000Y40000D01*
X58000D01*
X46000Y52000D01*
Y77961D01*
X82000Y77961D01*
X82197Y78000D01*
X96000D01*
X97000Y79000D01*
Y92803D01*
X97039Y93000D01*
Y111000D01*
X97000Y111197D01*
Y113000D01*
X95197D01*
X95000Y113039D01*
X7000D01*
X6967Y113033D01*
X6000Y114000D01*
Y242000D01*
X54000D01*
Y225000D01*
D02*
G37*
G36*
X95000Y93000D02*
X82000Y80000D01*
X46000Y80000D01*
X37000Y89000D01*
X7000D01*
Y111000D01*
X95000D01*
Y93000D01*
D02*
G37*
G36*
X150000Y127000D02*
Y103000D01*
X130000D01*
X122000Y95000D01*
Y77000D01*
X110000D01*
Y105000D01*
X106000Y109000D01*
Y120000D01*
X120000D01*
X128000Y128000D01*
X149000D01*
X150000Y127000D01*
D02*
G37*
G36*
X477000Y140000D02*
X477000Y117000D01*
X470000Y110000D01*
X470000Y66000D01*
X465500Y61500D01*
X456000D01*
Y60000D01*
X456000D01*
X440000Y44000D01*
Y36000D01*
X440000Y36000D01*
X440000D01*
Y16000D01*
X437000Y13000D01*
X401000D01*
X398000Y16000D01*
Y60000D01*
X401507D01*
X402000Y59902D01*
X402492Y60000D01*
X412000D01*
Y60000D01*
X420000Y60000D01*
X425961Y65961D01*
X428000D01*
X428000Y65961D01*
X428196Y66000D01*
X446000Y66000D01*
X448961Y68961D01*
X450000D01*
X450000Y68961D01*
X450780Y69116D01*
X451442Y69558D01*
X451442Y69558D01*
X453442Y71558D01*
X453884Y72220D01*
X454039Y73000D01*
Y85000D01*
X454000Y85197D01*
Y140000D01*
X477000Y140000D01*
D02*
G37*
G36*
X428000Y89000D02*
X432000Y85000D01*
X452000D01*
Y73000D01*
X450000Y71000D01*
X431000D01*
Y71000D01*
X428000Y68000D01*
X414000D01*
X412000Y70000D01*
Y112000D01*
X407000Y117000D01*
Y139000D01*
X428000D01*
Y89000D01*
D02*
G37*
G36*
X346000Y60000D02*
X323000D01*
X318000Y55000D01*
Y46000D01*
X312000Y40000D01*
Y14000D01*
X297000D01*
Y34000D01*
X288000Y43000D01*
X257000D01*
Y52102D01*
X257898Y53000D01*
X264000Y53000D01*
X273000Y62000D01*
X273500D01*
Y62500D01*
X278000Y67000D01*
X294000Y67000D01*
X296500Y64500D01*
Y62000D01*
X315000D01*
Y67000D01*
X321000Y73000D01*
X346000D01*
Y60000D01*
D02*
G37*
G36*
X368102Y55000D02*
X369000Y54102D01*
X369000Y43000D01*
X363000Y37000D01*
X363000Y15000D01*
X349000D01*
Y38000D01*
X344000Y43000D01*
X330000D01*
Y55000D01*
X368102Y55000D01*
D02*
G37*
G36*
X387000Y85000D02*
X387000Y59000D01*
X391102Y59000D01*
X392000Y58102D01*
Y43000D01*
X387000D01*
Y14000D01*
X375000D01*
X374913Y33838D01*
X375000Y33933D01*
X375000Y68915D01*
X376207Y69537D01*
Y75642D01*
X376951Y75790D01*
X378605Y76895D01*
X379710Y78549D01*
X380098Y80500D01*
X379710Y82451D01*
X378605Y84105D01*
X376951Y85210D01*
X375000Y85598D01*
X373049Y85210D01*
X371395Y84105D01*
X370290Y82451D01*
X370200Y82000D01*
X361915Y82000D01*
X338771Y82000D01*
X330000Y82000D01*
X330000Y90000D01*
X382000Y90000D01*
X387000Y85000D01*
D02*
G37*
G36*
X35000Y52000D02*
X50000Y37000D01*
X81000D01*
Y6000D01*
X13000D01*
X3000Y16000D01*
Y54000D01*
X7000Y58000D01*
Y79000D01*
X35000D01*
Y52000D01*
D02*
G37*
%LPC*%
G36*
X605000Y384000D02*
X593000D01*
Y372000D01*
X595681D01*
Y365500D01*
X594000D01*
Y348500D01*
X605000D01*
Y365500D01*
X602819D01*
Y372000D01*
X605000D01*
Y384000D01*
D02*
G37*
%LPD*%
D12*
X583000Y378000D02*
D03*
X599000D02*
D03*
X253000Y421000D02*
D03*
X237000D02*
D03*
X238000Y402000D02*
D03*
X254000D02*
D03*
Y384000D02*
D03*
X238000D02*
D03*
D13*
X133600Y115000D02*
D03*
X146300D02*
D03*
X159000D02*
D03*
X171700D02*
D03*
X184400D02*
D03*
D14*
X159000Y177000D02*
D03*
D15*
X216000Y238500D02*
D03*
Y219500D02*
D03*
X113000Y133500D02*
D03*
Y114500D02*
D03*
X205000Y123500D02*
D03*
Y104500D02*
D03*
X442000Y59000D02*
D03*
Y78000D02*
D03*
X193000Y238500D02*
D03*
Y219500D02*
D03*
X219000Y311500D02*
D03*
Y330500D02*
D03*
X170000Y219500D02*
D03*
Y238500D02*
D03*
X25000Y432500D02*
D03*
Y451500D02*
D03*
X635000Y473500D02*
D03*
Y454500D02*
D03*
X305000Y49500D02*
D03*
Y68500D02*
D03*
X361000Y49500D02*
D03*
Y68500D02*
D03*
X213000Y442500D02*
D03*
Y423500D02*
D03*
X216000Y180500D02*
D03*
Y199500D02*
D03*
X646000Y204500D02*
D03*
Y185500D02*
D03*
X228000Y104500D02*
D03*
Y123500D02*
D03*
X194000Y199500D02*
D03*
Y180500D02*
D03*
D16*
X143500Y234000D02*
D03*
X124500D02*
D03*
X462500Y76000D02*
D03*
X481500D02*
D03*
X259500Y483000D02*
D03*
X240500D02*
D03*
X600000Y333000D02*
D03*
X581000D02*
D03*
X240500Y344000D02*
D03*
X259500D02*
D03*
X238500Y238000D02*
D03*
X257500D02*
D03*
X385500Y51000D02*
D03*
X404500D02*
D03*
X22500Y521000D02*
D03*
X41500D02*
D03*
X468000Y227000D02*
D03*
X449000D02*
D03*
X420500Y99000D02*
D03*
X401500D02*
D03*
X441500D02*
D03*
X460500D02*
D03*
X430000Y251000D02*
D03*
X411000D02*
D03*
X448000D02*
D03*
X467000D02*
D03*
X651500Y126000D02*
D03*
X670500D02*
D03*
X50500Y294000D02*
D03*
X69500D02*
D03*
X86500Y236000D02*
D03*
X105500D02*
D03*
X481500Y53000D02*
D03*
X462500D02*
D03*
X421000Y76000D02*
D03*
X402000D02*
D03*
D17*
X465000Y283000D02*
D03*
X416000D02*
D03*
D18*
X251000Y315500D02*
D03*
Y266500D02*
D03*
D19*
X169500Y441500D02*
D03*
Y432000D02*
D03*
Y422500D02*
D03*
X194500Y441500D02*
D03*
Y422500D02*
D03*
X201500Y159500D02*
D03*
Y150000D02*
D03*
Y140500D02*
D03*
X226500Y159500D02*
D03*
Y140500D02*
D03*
D20*
X50500Y249500D02*
D03*
X60000D02*
D03*
X69500D02*
D03*
X50500Y274500D02*
D03*
X69500D02*
D03*
X670500Y169500D02*
D03*
X661000D02*
D03*
X651500D02*
D03*
X670500Y144500D02*
D03*
X651500D02*
D03*
D21*
X72000Y96000D02*
D03*
Y137000D02*
D03*
Y21500D02*
D03*
Y62500D02*
D03*
D22*
X196000Y272000D02*
D03*
Y280000D02*
D03*
Y288000D02*
D03*
Y296000D02*
D03*
Y304000D02*
D03*
Y312000D02*
D03*
Y320000D02*
D03*
Y328000D02*
D03*
X112000D02*
D03*
Y320000D02*
D03*
Y312000D02*
D03*
Y304000D02*
D03*
Y296000D02*
D03*
Y288000D02*
D03*
Y280000D02*
D03*
Y272000D02*
D03*
D23*
X182000Y342000D02*
D03*
X174000D02*
D03*
X166000D02*
D03*
X158000D02*
D03*
X150000D02*
D03*
X142000D02*
D03*
X134000D02*
D03*
X126000D02*
D03*
Y258000D02*
D03*
X134000D02*
D03*
X142000D02*
D03*
X150000D02*
D03*
X158000D02*
D03*
X166000D02*
D03*
X174000D02*
D03*
X182000D02*
D03*
D24*
X21000Y68000D02*
D03*
Y100000D02*
D03*
D25*
X48745Y188000D02*
D03*
Y194500D02*
D03*
Y201000D02*
D03*
Y207500D02*
D03*
Y214000D02*
D03*
D26*
X21995Y189000D02*
D03*
Y213000D02*
D03*
X195500Y15500D02*
D03*
D27*
X46495Y169000D02*
D03*
Y233000D02*
D03*
D28*
X9000Y297192D02*
D03*
Y272808D02*
D03*
D29*
X597808Y243000D02*
D03*
X622192D02*
D03*
D30*
X172000Y404500D02*
D03*
Y385500D02*
D03*
X91000Y264500D02*
D03*
Y283500D02*
D03*
X219000Y292500D02*
D03*
Y273500D02*
D03*
X611000Y473500D02*
D03*
Y454500D02*
D03*
X578129Y475879D02*
D03*
Y456879D02*
D03*
X635000Y414500D02*
D03*
Y433500D02*
D03*
X668000Y204500D02*
D03*
Y185500D02*
D03*
X29000Y293500D02*
D03*
Y274500D02*
D03*
X667000Y223500D02*
D03*
Y242500D02*
D03*
X265000Y48500D02*
D03*
Y67500D02*
D03*
X246000Y162500D02*
D03*
Y143500D02*
D03*
X647000Y223500D02*
D03*
Y242500D02*
D03*
X338000Y67500D02*
D03*
Y86500D02*
D03*
Y48500D02*
D03*
Y67500D02*
D03*
D31*
X296500Y444000D02*
D03*
X277500D02*
D03*
X296500Y421000D02*
D03*
X277500D02*
D03*
X77500Y349000D02*
D03*
X96500D02*
D03*
X106000Y213000D02*
D03*
X87000D02*
D03*
X106000Y191000D02*
D03*
X87000D02*
D03*
X104500Y167000D02*
D03*
X85500D02*
D03*
X361500Y99000D02*
D03*
X380500D02*
D03*
X622500Y226000D02*
D03*
X603500D02*
D03*
X234500Y442000D02*
D03*
X253500D02*
D03*
X410500Y228000D02*
D03*
X429500D02*
D03*
X580500Y357000D02*
D03*
X599500D02*
D03*
X32000Y254000D02*
D03*
X13000D02*
D03*
X281500Y88000D02*
D03*
X262500D02*
D03*
X143500Y213000D02*
D03*
X124500D02*
D03*
D32*
X70000Y223000D02*
D03*
Y208000D02*
D03*
X69000Y178000D02*
D03*
Y193000D02*
D03*
D63*
X596500Y307500D02*
D03*
D64*
X661500D02*
D03*
Y262500D02*
D03*
X596500D02*
D03*
X195500Y80500D02*
D03*
X240500D02*
D03*
Y15500D02*
D03*
D71*
X198000Y418000D02*
G03*
X196136Y422500I-6364J-0D01*
G01*
X559000Y396000D02*
X573000Y410000D01*
Y419000D01*
X467000Y368000D02*
Y472000D01*
X482600Y487600D01*
X424000Y325000D02*
X467000Y368000D01*
X477000Y462000D02*
X508000Y493000D01*
X440000Y315000D02*
X477000Y352000D01*
Y462000D01*
X268000Y126000D02*
X283000Y111000D01*
X363468D01*
X268000Y126000D02*
Y217000D01*
X365225Y112757D02*
Y124276D01*
X363468Y111000D02*
X365225Y112757D01*
Y124276D02*
X366650Y125700D01*
X174000Y354000D02*
X204000Y384000D01*
X174000Y342000D02*
Y354000D01*
X182000Y352000D02*
X198000Y368000D01*
X182000Y342000D02*
Y352000D01*
X166000Y342000D02*
Y357000D01*
X211000Y402000D01*
X106000Y349000D02*
X112000Y355000D01*
X96500Y349000D02*
X106000D01*
X112000Y355000D02*
X131000D01*
X134000Y352000D01*
Y342000D02*
Y352000D01*
X172000Y385500D02*
X175000D01*
X172000D02*
X172000D01*
X175000D02*
X182926Y393426D01*
X185426D01*
X186000Y394000D01*
X150000Y354125D02*
X172000Y376125D01*
Y385500D01*
X150000Y342000D02*
Y354125D01*
X25400Y472440D02*
X37960Y485000D01*
X90000D01*
X46000Y368000D02*
X60000D01*
X38800Y375200D02*
Y399480D01*
Y375200D02*
X46000Y368000D01*
X40000Y358000D02*
X59000D01*
X25400Y372600D02*
X40000Y358000D01*
X25400Y372600D02*
Y386080D01*
X63000Y336871D02*
Y354000D01*
X59000Y358000D02*
X63000Y354000D01*
X90500Y274500D02*
X91000Y274000D01*
Y283500D01*
Y274000D02*
X93000Y272000D01*
X109500D02*
X110750Y273250D01*
X111000Y271000D02*
X112000Y272000D01*
X69500Y274500D02*
X90500D01*
X93000Y272000D02*
X109500D01*
X630000Y161000D02*
X633625Y164625D01*
X482000Y136000D02*
X507000Y161000D01*
X630000D01*
X482000Y106000D02*
X496000Y92000D01*
X482000Y106000D02*
Y136000D01*
X633625Y164625D02*
X651500Y146750D01*
X620650Y177600D02*
X633625Y164625D01*
X651500Y144500D02*
Y146750D01*
X620650Y177600D02*
Y201930D01*
Y204930D01*
X658000Y174750D02*
Y198500D01*
X605000Y62294D02*
X634216Y33079D01*
X605000Y62294D02*
Y108000D01*
X620650Y123650D01*
X457200Y371200D02*
Y508000D01*
X390000Y335000D02*
X421000D01*
X457200Y371200D01*
X350000Y313000D02*
X409000Y372000D01*
X416560Y503000D02*
Y508000D01*
X413060Y499500D02*
X416560Y503000D01*
X410757Y499500D02*
X413060D01*
X409000Y497743D02*
X410757Y499500D01*
X409000Y372000D02*
Y497743D01*
X405000Y315000D02*
X440000D01*
X544000Y262000D02*
X593145Y212855D01*
X544000Y402192D02*
X593000Y451192D01*
X544000Y262000D02*
Y402192D01*
X534000Y249000D02*
X568828Y214172D01*
X534000Y440000D02*
X568886Y474886D01*
X534000Y249000D02*
Y440000D01*
X520000Y239000D02*
X544327Y214673D01*
X520000Y443800D02*
X577982Y501782D01*
X520000Y239000D02*
Y443800D01*
X507000Y233000D02*
Y448000D01*
Y233000D02*
X519050Y220950D01*
X507000Y448000D02*
X557461Y498461D01*
X490000Y452000D02*
X533400Y495400D01*
X493650Y201930D02*
Y207907D01*
X490000Y211557D02*
X493650Y207907D01*
X490000Y211557D02*
Y452000D01*
X169500Y448750D02*
X178750Y458000D01*
X276000D01*
X289560Y471560D01*
X90000Y485000D02*
X106000Y469000D01*
X274000D01*
X277000Y472000D01*
Y512461D02*
X286539Y522000D01*
X277000Y472000D02*
Y512461D01*
X90160Y509840D02*
X116000Y484000D01*
X186000D01*
X201000Y499000D01*
X210000Y527000D02*
X327000D01*
X340360Y513640D01*
X201000Y499000D02*
Y518000D01*
X210000Y527000D01*
X286539Y522000D02*
X305960D01*
X314960Y508000D02*
Y513000D01*
X305960Y522000D02*
X314960Y513000D01*
X340360Y508000D02*
Y513640D01*
X62800Y509840D02*
X90160D01*
X198783Y417218D02*
X204000Y412000D01*
X194500Y422500D02*
X196136Y422500D01*
X198000Y418000D02*
X198783Y417218D01*
X204000Y412000D02*
X228000D01*
X211000Y402000D02*
X238000D01*
X198000Y368000D02*
X261000D01*
X291426Y398426D01*
X588000Y422000D02*
X611000Y445000D01*
X588000Y420250D02*
Y422000D01*
X312000Y391000D02*
Y419000D01*
X280000Y359000D02*
X312000Y391000D01*
X584200Y505016D02*
Y508000D01*
X580966Y501782D02*
X584200Y505016D01*
X577982Y501782D02*
X580966D01*
X557461Y506661D02*
X558800Y508000D01*
X557461Y498461D02*
Y506661D01*
X533400Y495400D02*
Y508000D01*
X508000Y493000D02*
Y508000D01*
X482600Y487600D02*
Y508000D01*
X399000Y325000D02*
X424000D01*
X286000Y181000D02*
X327001D01*
X277000Y190000D02*
Y214000D01*
Y190000D02*
X286000Y181000D01*
X341250Y125730D02*
Y166751D01*
X327001Y181000D02*
X341250Y166751D01*
X302000Y163000D02*
Y163438D01*
X315850Y149850D02*
X330000Y164000D01*
Y166000D01*
X290450Y151450D02*
X302000Y163000D01*
X259000Y120000D02*
X279000Y100000D01*
X259000Y120000D02*
Y220550D01*
X279000Y100000D02*
X360500D01*
X361500Y99000D01*
X268000Y217000D02*
X300000Y249000D01*
X259000Y220550D02*
X288000Y249550D01*
Y345000D02*
X325000Y382000D01*
X288000Y249550D02*
Y345000D01*
X300000Y249000D02*
Y340000D01*
X340000Y380000D01*
X277000Y214000D02*
X314000Y251000D01*
Y335000D02*
X352000Y373000D01*
X314000Y251000D02*
Y335000D01*
X326000Y330000D02*
X365760Y369760D01*
X326000Y270000D02*
Y330000D01*
X303000Y228000D02*
X339000Y264000D01*
Y323000D02*
X391160Y375160D01*
X339000Y264000D02*
Y323000D01*
X290450Y201953D02*
X350000Y261503D01*
Y313000D01*
X361000Y306000D02*
X390000Y335000D01*
X315850Y201953D02*
X361000Y247103D01*
Y306000D01*
X372000Y236000D02*
Y298000D01*
X341250Y205250D02*
X372000Y236000D01*
Y298000D02*
X399000Y325000D01*
X325000Y382000D02*
Y450000D01*
X340000Y380000D02*
Y457000D01*
X289560Y502440D02*
Y508000D01*
X352000Y373000D02*
Y476000D01*
X365760Y369760D02*
Y508000D01*
X391160Y375160D02*
Y508000D01*
X383000Y218280D02*
Y293000D01*
X405000Y315000D01*
X366650Y201930D02*
Y201953D01*
X373258Y208562D02*
X373282D01*
X366650Y201953D02*
X373258Y208562D01*
X373282D02*
X383000Y218280D01*
X340360Y487640D02*
Y508000D01*
Y487640D02*
X352000Y476000D01*
X315198Y481802D02*
X340000Y457000D01*
X315198Y481802D02*
Y507762D01*
X289560Y485440D02*
X325000Y450000D01*
X289560Y485440D02*
Y502440D01*
Y471560D02*
Y485440D01*
X207000Y359000D02*
X280000D01*
X303000Y228000D02*
Y228000D01*
X559000Y261000D02*
X594000Y226000D01*
X559000Y261000D02*
Y396000D01*
X646750Y242750D02*
X647000Y242500D01*
X622442Y242750D02*
X646750D01*
X622192Y243000D02*
X622442Y242750D01*
X647000Y242500D02*
X667000D01*
Y252670D01*
X661500Y258170D02*
Y262500D01*
Y258170D02*
X667000Y252670D01*
X596500Y262500D02*
X661500D01*
X594000Y226000D02*
X603500D01*
X519050Y201930D02*
Y220950D01*
X544327Y202053D02*
Y214673D01*
Y202053D02*
X544450Y201930D01*
X568828Y202952D02*
Y214172D01*
Y202952D02*
X569850Y201930D01*
X593145Y204035D02*
Y212855D01*
X603500Y226000D02*
X605500Y224000D01*
X651000Y205500D02*
X658000Y198500D01*
X661000Y169500D02*
Y171750D01*
X658000Y174750D02*
X661000Y171750D01*
X620650Y123650D02*
Y125730D01*
X508000Y25400D02*
Y101000D01*
X493650Y125730D02*
X495092Y124288D01*
Y113908D02*
Y124288D01*
Y113908D02*
X508000Y101000D01*
X281500Y88000D02*
Y91000D01*
X279500Y93000D02*
X281500Y91000D01*
X275086Y93000D02*
X279500D01*
X269086Y99000D02*
X275086Y93000D01*
X246000Y99000D02*
X269086D01*
X241000Y104000D02*
X246000Y99000D01*
X228500Y104000D02*
X241000D01*
X228000Y104500D02*
X228500Y104000D01*
X58995Y190555D02*
X63550Y186000D01*
X75000D02*
X85000Y176000D01*
X63550Y186000D02*
X75000D01*
X49245Y194000D02*
X55550D01*
X56050Y193500D02*
X56945D01*
X55550Y194000D02*
X56050Y193500D01*
X56945D02*
X58995Y191450D01*
Y190555D02*
Y191450D01*
X48745Y194500D02*
X49245Y194000D01*
X65500Y193500D02*
X67000D01*
X64000Y195000D02*
X65500Y193500D01*
X67000D02*
X75500D01*
X64000Y195000D02*
Y196500D01*
X611000Y473500D02*
X611500Y474000D01*
X619000D02*
X635000Y490000D01*
X611500Y474000D02*
X619000D01*
X635000Y490000D02*
Y503000D01*
X50800Y472440D02*
X50800D01*
X91240Y432000D02*
X169500D01*
X50800Y472440D02*
X91240Y432000D01*
X228000Y412000D02*
X237000Y421000D01*
X254000Y402000D02*
X261000D01*
X265000Y406000D02*
Y428500D01*
X261000Y402000D02*
X265000Y406000D01*
X254000Y384000D02*
X262000D01*
X277500Y399500D02*
Y421000D01*
X262000Y384000D02*
X277500Y399500D01*
X196000Y348000D02*
X207000Y359000D01*
X196000Y328000D02*
Y348000D01*
X204000Y384000D02*
X238000D01*
X153500Y245021D02*
X156750Y248271D01*
X153000Y197000D02*
X153500Y197500D01*
Y245021D01*
X290450Y125730D02*
Y151450D01*
X315850Y125730D02*
Y149850D01*
X464000Y8000D02*
X496000Y40000D01*
X330200Y10800D02*
X333000Y8000D01*
X464000D01*
X496000Y40000D02*
Y92000D01*
X609600Y25400D02*
Y40400D01*
X595250Y54750D02*
Y125730D01*
Y54750D02*
X609600Y40400D01*
X634243Y26157D02*
Y33079D01*
X634216D02*
X634243D01*
Y26157D02*
X635000Y25400D01*
X569850Y85150D02*
X584200Y70800D01*
Y25400D02*
Y70800D01*
X569850Y85150D02*
Y125730D01*
X558800Y25400D02*
Y69200D01*
X544450Y83550D02*
X558800Y69200D01*
X544450Y83550D02*
Y125730D01*
X533400Y25400D02*
Y67600D01*
X519000Y82000D02*
Y125680D01*
Y82000D02*
X533400Y67600D01*
X568886Y474886D02*
X580386D01*
X609600Y504100D01*
X593145Y204035D02*
X595250Y201930D01*
X102000Y338000D02*
X106000Y342000D01*
X69879Y341672D02*
X73550Y338000D01*
X102000D01*
X50800Y342000D02*
X67800Y325000D01*
X91500D02*
X95750Y320750D01*
X67800Y325000D02*
X91500D01*
X57129Y328600D02*
X66729Y319000D01*
X88808D02*
X95808Y312000D01*
X66729Y319000D02*
X88808D01*
X88000Y312000D02*
X96000Y304000D01*
X50800Y316600D02*
X54588D01*
X59188Y312000D01*
X88000D01*
X38000Y304000D02*
X87100D01*
X25400Y316600D02*
X38000Y304000D01*
X87100D02*
X95100Y296000D01*
X95808Y312000D02*
X112000D01*
X63000Y336871D02*
X67871Y332000D01*
X60000Y368000D02*
X69879Y358121D01*
Y341672D02*
Y358121D01*
X38800Y399480D02*
X50800Y411480D01*
X38800Y328600D02*
X57129D01*
X25400Y342000D02*
X38800Y328600D01*
X291426Y400426D02*
X292000Y401000D01*
X291426Y398426D02*
Y400426D01*
X79257Y236000D02*
X85500D01*
X77500Y237757D02*
Y254200D01*
Y237757D02*
X79257Y236000D01*
X73700Y258000D02*
X77500Y254200D01*
X110750Y273250D02*
X112000Y272000D01*
X60000Y249500D02*
X61250Y250750D01*
X65300Y258000D02*
X73700D01*
X61250Y253950D02*
X65300Y258000D01*
X61250Y250750D02*
Y253950D01*
X220000Y114000D02*
X222001D01*
X227258Y104500D02*
X228000D01*
X224258Y107500D02*
X227258Y104500D01*
X224258Y107500D02*
Y111743D01*
X222001Y114000D02*
X224258Y111743D01*
X215000Y119000D02*
X220000Y114000D01*
X215000Y119000D02*
Y143000D01*
X160000Y203000D02*
Y244450D01*
X164750Y249200D01*
X593000Y451192D02*
Y467000D01*
X548000Y421000D02*
X578129Y451129D01*
Y456879D01*
X548000Y419000D02*
Y421000D01*
X659000Y157000D02*
X667871D01*
X671426Y160555D01*
Y168574D01*
X624500Y464000D02*
X634500Y454000D01*
X623000Y464000D02*
X624500D01*
X604000Y401000D02*
X627000Y424000D01*
X588000Y401000D02*
X604000D01*
X611000Y445000D02*
Y454500D01*
X222000Y292500D02*
X234000Y304500D01*
X240000D02*
X251000Y315500D01*
X234000Y304500D02*
X240000D01*
X217243Y290743D02*
X219000Y292500D01*
X222000D01*
X212000Y290743D02*
X217243D01*
X212000Y288800D02*
Y290743D01*
X627000Y424000D02*
X645450D01*
X658500Y437050D01*
Y440366D01*
X95100Y296000D02*
X112000D01*
X96000Y304000D02*
X112000D01*
X50800Y497840D02*
X62800Y509840D01*
X209000Y149000D02*
X215000Y143000D01*
X202500Y149000D02*
X209000D01*
X201500Y150000D02*
X202500Y149000D01*
X111000Y261000D02*
Y271000D01*
X145900Y369900D02*
X146000Y369800D01*
X112100Y369900D02*
X145900D01*
X112000Y370000D02*
X112100Y369900D01*
X99000Y410000D02*
X99574Y410574D01*
Y413574D01*
X106600Y420600D02*
X146000D01*
X99574Y413574D02*
X106600Y420600D01*
X85000Y167500D02*
X85500Y167000D01*
X85000Y167500D02*
Y176000D01*
X246000Y162500D02*
Y187000D01*
X245500Y143000D02*
X246000Y143500D01*
X237000Y143000D02*
X245500D01*
X226500Y140500D02*
X234500D01*
X237000Y143000D01*
X519000Y125680D02*
X519050Y125730D01*
X201500Y150000D02*
Y159500D01*
X107000Y212000D02*
X114500D01*
X106000Y191000D02*
X107000Y192000D01*
X115500D01*
X156750Y256750D02*
X158000Y258000D01*
X156750Y248271D02*
Y256750D01*
X164750D02*
X166000Y258000D01*
X164750Y249200D02*
Y256750D01*
X106000Y213000D02*
X107000Y212000D01*
X79000Y190000D02*
X85500D01*
X75500Y193500D02*
X79000Y190000D01*
X48745Y201000D02*
X59500D01*
X64000Y196500D01*
X79000Y213000D02*
X85500D01*
X67000Y208500D02*
X74500D01*
X79000Y213000D01*
X48745Y207500D02*
X49245Y208000D01*
X66500D01*
X67000Y208500D01*
X50500Y249500D02*
X60000D01*
X50000Y249000D02*
X50500Y249500D01*
X44000Y249000D02*
X50000D01*
X32000Y254000D02*
X39000D01*
X44000Y249000D01*
X9000Y272808D02*
X10000Y271808D01*
Y267000D02*
Y271808D01*
X13000Y254000D02*
Y264000D01*
X10000Y267000D02*
X13000Y264000D01*
X9000Y272808D02*
X17808D01*
X19500Y274500D02*
X29000D01*
X17808Y272808D02*
X19500Y274500D01*
X277500Y441000D02*
Y444000D01*
X265000Y428500D02*
X277500Y441000D01*
X253250Y441750D02*
X253500Y442000D01*
X253250Y421250D02*
Y441750D01*
X253000Y421000D02*
X253250Y421250D01*
X95571Y328000D02*
X112000D01*
X91571Y332000D02*
X95571Y328000D01*
X67871Y332000D02*
X91571D01*
X96500Y320000D02*
X112000D01*
X77500Y349000D02*
Y362500D01*
X53920Y386080D02*
X77500Y362500D01*
X50800Y386080D02*
X53920D01*
X106000Y342000D02*
X126000D01*
X122200Y395200D02*
X146000D01*
X112000Y385000D02*
X122200Y395200D01*
X76200Y386080D02*
X77280Y385000D01*
X112000D01*
X169500Y441500D02*
Y448750D01*
Y432000D02*
Y441500D01*
X314960Y508000D02*
X315198Y507762D01*
X250500Y266500D02*
X251000D01*
X239500Y255500D02*
X250500Y266500D01*
X239500Y255000D02*
Y255500D01*
X238500Y254000D02*
X239500Y255000D01*
X238500Y238000D02*
Y254000D01*
X240500Y326000D02*
X251000Y315500D01*
X240500Y326000D02*
Y344000D01*
X196000Y272000D02*
X196000Y272000D01*
X217500D01*
X219000Y273500D01*
X244000D02*
X251000Y266500D01*
X219000Y273500D02*
X244000D01*
X196000Y280000D02*
X197250Y281250D01*
X204450D01*
X212000Y288800D01*
X429500Y216980D02*
Y228000D01*
X417450Y204930D02*
X429500Y216980D01*
X417450Y201930D02*
Y204930D01*
X448000Y249000D02*
Y251000D01*
X432000Y233000D02*
X448000Y249000D01*
X431500Y233000D02*
X432000D01*
X429500Y231000D02*
X431500Y233000D01*
X429500Y228000D02*
Y231000D01*
X448000Y251000D02*
Y265500D01*
X465000Y282500D02*
Y283000D01*
X448000Y265500D02*
X465000Y282500D01*
X430000Y251000D02*
Y268500D01*
X416000Y282500D02*
X430000Y268500D01*
X416000Y282500D02*
Y283000D01*
X410500Y228000D02*
Y231000D01*
X425500Y246000D01*
X427000D01*
X430000Y249000D01*
Y251000D01*
X392050Y201930D02*
Y206550D01*
X410500Y225000D01*
Y228000D01*
X265000Y75000D02*
Y82500D01*
Y67500D02*
Y75000D01*
X240500Y80500D02*
X243000Y78000D01*
X262000D01*
X265000Y75000D01*
X262500Y85000D02*
X265000Y82500D01*
X262500Y85000D02*
Y88000D01*
X240500Y15500D02*
Y80500D01*
X649000Y205500D02*
X651000D01*
X649000D02*
Y223500D01*
X599000Y378000D02*
X599250Y377750D01*
Y357250D02*
Y377750D01*
Y357250D02*
X599500Y357000D01*
X593000Y467000D02*
X599500Y473500D01*
X611000D01*
X605500Y220080D02*
X620650Y204930D01*
X605500Y220080D02*
Y224000D01*
X330200Y10800D02*
Y25400D01*
X641500Y469000D02*
X662000D01*
X637000Y473500D02*
X641500Y469000D01*
X635000Y473500D02*
X637000D01*
X635000Y414500D02*
X651406D01*
X655106Y418200D01*
X662000D01*
X661734Y443600D02*
X662000D01*
X658500Y440366D02*
X661734Y443600D01*
X670500Y169500D02*
Y186000D01*
X671000Y186500D01*
X670500Y169500D02*
X671426Y168574D01*
X634500Y454000D02*
X635000Y454500D01*
X380500Y99000D02*
Y111180D01*
X392050Y122730D01*
Y125730D01*
X290450Y201930D02*
Y201953D01*
X315850Y201930D02*
Y201953D01*
X341250Y201930D02*
Y205250D01*
X609600Y504100D02*
Y508000D01*
D72*
X669000Y19000D02*
D03*
X219000Y46000D02*
D03*
X670000Y516000D02*
D03*
X105000Y517000D02*
D03*
D73*
X196250Y296250D02*
X205679D01*
X215500Y306071D02*
Y310000D01*
X205679Y296250D02*
X215500Y306071D01*
X217000Y311500D02*
X219000D01*
X215500Y310000D02*
X217000Y311500D01*
X196000Y296000D02*
X196250Y296250D01*
X58750Y264500D02*
X90000D01*
X91000Y263500D01*
X50500Y272750D02*
Y274500D01*
Y272750D02*
X58750Y264500D01*
X49750Y293750D02*
X50500Y293000D01*
Y294000D01*
Y274500D02*
Y293000D01*
X29000Y293500D02*
X29250Y293750D01*
X49750D01*
X12015Y293500D02*
X29000D01*
X9000Y296515D02*
Y297192D01*
Y296515D02*
X12015Y293500D01*
X24920Y411000D02*
X25400Y411480D01*
X9000Y411000D02*
X24920D01*
X24500Y432000D02*
X25000Y432500D01*
X9000Y432000D02*
X24500D01*
X24560Y497000D02*
X25400Y497840D01*
X9000Y497000D02*
X24560D01*
X12515Y521000D02*
X22500D01*
X9000Y517485D02*
X12515Y521000D01*
X667000Y223500D02*
X681000D01*
X668000Y204500D02*
X668000Y204500D01*
X681000D01*
X402000Y65000D02*
Y76000D01*
X455500Y46000D02*
X462500Y53000D01*
X453000Y46000D02*
X455500D01*
X124500Y236000D02*
X134000Y245500D01*
X138821D01*
X124500Y236000D02*
Y236000D01*
X140500Y247179D02*
Y247193D01*
X138821Y245500D02*
X140500Y247179D01*
X441500Y100500D02*
X442000Y101000D01*
Y124880D01*
X239000Y484000D02*
X239630Y484630D01*
X239000Y483000D02*
Y484000D01*
X194000Y180500D02*
X216000D01*
X192000D02*
X194000D01*
X143485Y125485D02*
X181500Y163500D01*
Y229000D01*
X146300Y115000D02*
Y123000D01*
X143815Y125485D02*
X146300Y123000D01*
X143485Y125485D02*
X143815D01*
X172000Y238500D02*
X181500Y229000D01*
X296000Y440500D02*
Y443500D01*
X289500Y434000D02*
X296000Y440500D01*
X287000Y434000D02*
X289500D01*
X296500Y421000D02*
X297000Y421500D01*
Y429000D01*
X299000Y431000D01*
X181000Y135000D02*
Y148314D01*
X191500Y158814D02*
Y180000D01*
X181000Y148314D02*
X191500Y158814D01*
Y180000D02*
X192000Y180500D01*
X25000Y432500D02*
X25200Y432300D01*
X177000Y296000D02*
X196000D01*
X171235Y285265D02*
Y290235D01*
X177000Y296000D01*
X171235Y285265D02*
X182000Y274500D01*
X182250Y247250D02*
Y257750D01*
X207000Y483000D02*
X239000D01*
X213000Y442500D02*
X213500Y442000D01*
X239525Y484735D02*
Y507235D01*
Y484735D02*
X239630Y484630D01*
X468000Y227000D02*
X468125Y226875D01*
X481500Y91500D02*
X483000Y93000D01*
X238760Y508000D02*
X239525Y507235D01*
X228500Y433000D02*
X234500Y439000D01*
X224000Y433000D02*
X228500D01*
X67000Y31000D02*
X72000Y26000D01*
Y21500D02*
Y26000D01*
X219500Y179000D02*
X226500Y172000D01*
X234500Y439000D02*
Y442000D01*
X296000Y443500D02*
X296500Y444000D01*
X185597Y441250D02*
X194250D01*
X172000Y404500D02*
X187500D01*
X226500Y159500D02*
Y172000D01*
X73000Y97000D02*
X89750D01*
X133600Y114500D02*
Y115000D01*
X21000Y31000D02*
Y68000D01*
Y31000D02*
X67000D01*
X114200Y90000D02*
X116200Y88000D01*
X187500Y404500D02*
X190000Y407000D01*
X182000Y258000D02*
Y274500D01*
X167765Y103065D02*
X171700Y107000D01*
X167000Y88000D02*
X167765Y88765D01*
Y103065D01*
X171700Y107000D02*
Y115000D01*
X184400Y107000D02*
Y115000D01*
X25200Y411680D02*
X25400Y411480D01*
X217500Y179000D02*
X219500D01*
X216000Y180500D02*
X217500Y179000D01*
X194250Y441250D02*
X194500Y441500D01*
X213500Y442000D02*
X224000D01*
X185000Y440653D02*
X185597Y441250D01*
X468125Y202055D02*
Y226875D01*
X481500Y53000D02*
Y91500D01*
X143500Y200879D02*
Y213000D01*
X132621Y190000D02*
X143500Y200879D01*
X128000Y190000D02*
X132621D01*
X182000Y258000D02*
X182250Y257750D01*
X204250Y209750D02*
X214000Y219500D01*
X216000D01*
X182250Y247250D02*
X189500Y240000D01*
X193000Y238500D02*
X195000D01*
X214000Y219500D01*
X204250Y209750D02*
X204250D01*
X192000Y199500D02*
X193500Y201000D01*
X191500Y240000D02*
X193000Y238500D01*
X189500Y240000D02*
X191500D01*
X195500Y201000D02*
X204250Y209750D01*
X193500Y201000D02*
X195500D01*
X186900Y104500D02*
X205000D01*
X171700Y115000D02*
X184400D01*
Y107000D02*
X186900Y104500D01*
X89750Y97000D02*
Y105750D01*
X422000Y77000D02*
X441000D01*
X418981Y116019D02*
Y124199D01*
X420750Y76250D02*
X421000Y76000D01*
X441000Y77000D02*
X442000Y78000D01*
X420500Y99000D02*
Y114500D01*
X420750Y76250D02*
Y98750D01*
X420500Y99000D02*
X420750Y98750D01*
X421000Y76000D02*
X422000Y77000D01*
X418981Y116019D02*
X420500Y114500D01*
X417450Y125730D02*
X418981Y124199D01*
X203000Y479000D02*
X207000Y483000D01*
D74*
X259625Y344125D02*
X272875D01*
X272945Y344055D01*
X259500Y344000D02*
X259625Y344125D01*
X219000Y330500D02*
Y346000D01*
X158000Y75343D02*
Y100000D01*
X69750Y236250D02*
Y249250D01*
Y223250D02*
Y236250D01*
X46495Y233000D02*
X50995Y237500D01*
X68500D01*
X69750Y236250D01*
Y223250D02*
X70000Y223000D01*
X69500Y249500D02*
X69750Y249250D01*
X646000Y185500D02*
X647500D01*
X650000Y188000D01*
Y195000D01*
X646000Y177250D02*
Y185500D01*
Y177250D02*
X651500Y171750D01*
Y169500D02*
Y171750D01*
X248383Y223883D02*
Y226883D01*
X257500Y236000D02*
Y238000D01*
X248383Y226883D02*
X257500Y236000D01*
X248000Y223500D02*
X248383Y223883D01*
X572000Y378000D02*
X583000D01*
X567000Y373000D02*
X572000Y378000D01*
X599000Y332000D02*
X600000Y333000D01*
X428000Y62306D02*
Y62393D01*
Y62306D02*
X428026Y62279D01*
X363000Y68500D02*
X375000Y80500D01*
X361000Y68500D02*
X363000D01*
X305000D02*
Y84000D01*
X401000Y102500D02*
Y110000D01*
Y102500D02*
X403000Y100500D01*
X467000Y251000D02*
X480000D01*
X481000Y250000D01*
X396000Y251000D02*
X411000D01*
X395000Y250000D02*
X396000Y251000D01*
X146000Y236500D02*
Y242780D01*
X148000Y244779D01*
X143500Y234000D02*
X146000Y236500D01*
X148000Y244779D02*
Y247299D01*
X149250Y248549D01*
Y257250D01*
X141750Y249534D02*
Y257750D01*
X140500Y247193D02*
Y248284D01*
X141750Y249534D01*
Y257750D02*
X142000Y258000D01*
X158000Y100000D02*
X158000Y100000D01*
X160343Y73000D02*
X183670D01*
X158000Y75343D02*
X160343Y73000D01*
X158000Y100000D02*
Y114000D01*
X159000Y115000D01*
X166500Y421750D02*
X167250Y422500D01*
X166500Y419500D02*
Y421750D01*
X158000Y411000D02*
X166500Y419500D01*
X158000Y409541D02*
Y411000D01*
X157000Y408000D02*
Y408541D01*
X167250Y422500D02*
X169500D01*
X157000Y408541D02*
X158000Y409541D01*
X174000Y240500D02*
Y258000D01*
X172000Y238500D02*
X174000Y240500D01*
X209500Y116657D02*
X215500Y110657D01*
Y97500D02*
Y110657D01*
X209500Y116657D02*
Y121000D01*
X207000Y123500D02*
X209500Y121000D01*
X205000Y123500D02*
X207000D01*
X198500Y80500D02*
X215500Y97500D01*
X195500Y80500D02*
X198500D01*
X69500Y294000D02*
X81000D01*
X149250Y257250D02*
X150000Y258000D01*
X186000Y431000D02*
X203500D01*
X178750Y423750D02*
X186000Y431000D01*
X203500D02*
X211000Y423500D01*
X635000Y433500D02*
X638000D01*
X643617Y439117D01*
Y442617D01*
X644000Y443000D01*
X583000Y378000D02*
X583000Y378000D01*
X96500Y247000D02*
X105500Y238000D01*
X96000Y247000D02*
X96500D01*
X401500Y99000D02*
X403000Y100500D01*
X228000Y123500D02*
X228500Y124000D01*
X247000D01*
X205000Y123500D02*
Y139250D01*
X203750Y140500D02*
X205000Y139250D01*
X201500Y140500D02*
X203750D01*
X200250Y141750D02*
X201500Y140500D01*
X195062Y141750D02*
X200250D01*
X190812Y146000D02*
X195062Y141750D01*
X190000Y146000D02*
X190812D01*
X182000Y288000D02*
X196000D01*
X182000Y288000D02*
X182000Y288000D01*
X216000Y199500D02*
X216500Y200000D01*
X232000D01*
X215000Y239500D02*
X216000Y238500D01*
X215000Y239500D02*
Y252000D01*
X191000Y221500D02*
X193000Y219500D01*
X191000Y221500D02*
Y227000D01*
X170000Y219500D02*
Y227000D01*
X150000Y258000D02*
Y274188D01*
X151000Y275188D01*
Y276000D01*
X105500Y236000D02*
Y238000D01*
X169500Y422500D02*
X170750Y423750D01*
X178750D01*
X211000Y423500D02*
X213000D01*
X25000Y451500D02*
X36180D01*
X76200Y411480D01*
X41500Y521000D02*
X55000D01*
X59500Y222005D02*
Y230500D01*
X52495Y215000D02*
X59500Y222005D01*
X195500Y77000D02*
Y80500D01*
Y15500D02*
Y77000D01*
X195061Y77439D02*
X195500Y77000D01*
X188109Y77439D02*
X195061D01*
X183670Y73000D02*
X188109Y77439D01*
X449000Y227000D02*
Y229000D01*
X464000Y244000D01*
Y248000D01*
X467000Y251000D01*
X259500Y483000D02*
Y496446D01*
X264160Y501106D01*
Y508000D01*
X670500Y124000D02*
Y126000D01*
Y124000D02*
X679500Y115000D01*
X680000D01*
D75*
X9000Y411000D02*
Y432000D01*
Y297192D02*
Y411000D01*
Y432000D02*
Y497000D01*
Y517485D01*
X507000Y182000D02*
X556000D01*
X451000Y151000D02*
X476000D01*
X507000Y182000D01*
X468250Y164750D02*
Y201930D01*
Y164750D02*
X470000Y163000D01*
X442850Y142850D02*
X451000Y151000D01*
X442000Y124880D02*
X442850Y125730D01*
Y142850D01*
X468125Y202055D02*
X468250Y201930D01*
D76*
X681000Y151436D02*
Y204500D01*
X613000Y77000D02*
Y92000D01*
X644500Y123500D01*
X613000Y69000D02*
Y77000D01*
X597808Y243000D02*
X603808D01*
X580750Y284000D02*
Y356750D01*
X594080Y243000D02*
X597808D01*
X681000Y204500D02*
Y223500D01*
Y271000D01*
X580750Y256330D02*
Y284000D01*
X668000D01*
X681000Y271000D01*
X580750Y256330D02*
X594080Y243000D01*
X603808D02*
X604443Y242365D01*
X606135D01*
X619500Y229000D01*
X620582D01*
X622000Y227582D01*
Y226500D02*
Y227582D01*
Y226500D02*
X622500Y226000D01*
X676314Y146750D02*
X681000Y151436D01*
X676090Y146750D02*
X676314D01*
X674840Y145500D02*
X676090Y146750D01*
X671500Y145500D02*
X674840D01*
X670250Y144250D02*
X671500Y145500D01*
X651500Y124000D02*
Y126000D01*
X651000Y123500D02*
X651500Y124000D01*
X644500Y123500D02*
X651000D01*
X653000Y129500D02*
X667750Y144250D01*
X670250D01*
X580500Y357000D02*
X580750Y356750D01*
D77*
X124500Y213000D02*
Y236000D01*
D78*
X152400Y508000D02*
D03*
D79*
X21000Y31000D02*
D03*
Y136000D02*
D03*
D80*
X416560Y508000D02*
D03*
X279400Y25400D02*
D03*
X635000Y508000D02*
D03*
X508000Y25400D02*
D03*
X116200Y88000D02*
D03*
D81*
X391160Y508000D02*
D03*
X365760D02*
D03*
X340360D02*
D03*
X314960D02*
D03*
X289560D02*
D03*
X264160D02*
D03*
X238760D02*
D03*
X213360D02*
D03*
X187960D02*
D03*
X304800Y25400D02*
D03*
X330200D02*
D03*
X355600D02*
D03*
X381000D02*
D03*
X406400D02*
D03*
X431800D02*
D03*
X457200D02*
D03*
X609600Y508000D02*
D03*
X584200D02*
D03*
X558800D02*
D03*
X533400D02*
D03*
X508000D02*
D03*
X482600D02*
D03*
X457200D02*
D03*
X635000Y25400D02*
D03*
X609600D02*
D03*
X584200D02*
D03*
X558800D02*
D03*
X533400D02*
D03*
X141600Y88000D02*
D03*
X167000D02*
D03*
D82*
X146000Y369800D02*
D03*
Y420600D02*
D03*
Y395200D02*
D03*
X662000Y443600D02*
D03*
Y418200D02*
D03*
D83*
X146000Y446000D02*
D03*
X662000Y469000D02*
D03*
D84*
X139700Y25400D02*
D03*
X660400Y76200D02*
D03*
Y355600D02*
D03*
D85*
X25400Y472440D02*
D03*
Y386080D02*
D03*
X50800Y342000D02*
D03*
D86*
Y472440D02*
D03*
X76200D02*
D03*
X25400Y497840D02*
D03*
X50800D02*
D03*
X76200D02*
D03*
X50800Y386080D02*
D03*
X76200D02*
D03*
X25400Y411480D02*
D03*
X50800D02*
D03*
X76200D02*
D03*
X25400Y316600D02*
D03*
X50800D02*
D03*
X25400Y342000D02*
D03*
D87*
X620650Y201930D02*
D03*
D88*
X595250D02*
D03*
X569850D02*
D03*
X544450D02*
D03*
X519050D02*
D03*
X493650D02*
D03*
X468250D02*
D03*
X442850D02*
D03*
X417450D02*
D03*
X392050D02*
D03*
X366650D02*
D03*
X341250D02*
D03*
X315850D02*
D03*
X290450D02*
D03*
X620650Y125730D02*
D03*
X595250D02*
D03*
X569850D02*
D03*
X544450D02*
D03*
X519050D02*
D03*
X493650D02*
D03*
X468250D02*
D03*
X442850D02*
D03*
X417450D02*
D03*
X392050D02*
D03*
X366650D02*
D03*
X341250D02*
D03*
X315850D02*
D03*
X290450D02*
D03*
D89*
X21995Y168000D02*
D03*
Y234000D02*
D03*
D90*
X573000Y419000D02*
D03*
X9000Y296515D02*
D03*
Y432000D02*
D03*
Y497000D02*
D03*
X272945Y344055D02*
D03*
X219000Y346000D02*
D03*
X134000Y154000D02*
D03*
Y163000D02*
D03*
X123000Y154000D02*
D03*
Y163000D02*
D03*
X134000Y172000D02*
D03*
X650000Y195000D02*
D03*
X613000Y77000D02*
D03*
Y69000D02*
D03*
X432000Y383000D02*
D03*
Y375000D02*
D03*
X441000D02*
D03*
Y383000D02*
D03*
X431000Y503000D02*
D03*
X440000D02*
D03*
Y495000D02*
D03*
X431000D02*
D03*
X588000Y420250D02*
D03*
X312000Y419000D02*
D03*
X248000Y223500D02*
D03*
X302000Y163438D02*
D03*
X330000Y166000D02*
D03*
X326000Y270000D02*
D03*
X303000Y228000D02*
D03*
X574000Y386000D02*
D03*
X567000Y373000D02*
D03*
Y384000D02*
D03*
X428000Y62393D02*
D03*
X452000Y66000D02*
D03*
X462500Y86500D02*
D03*
X419000Y20000D02*
D03*
Y32000D02*
D03*
X375000Y80500D02*
D03*
X402000Y65000D02*
D03*
X305000Y84000D02*
D03*
X453000Y46000D02*
D03*
X401000Y110000D02*
D03*
X470000Y163000D02*
D03*
X481000Y250000D02*
D03*
X395000D02*
D03*
X186000Y394000D02*
D03*
X299000Y431000D02*
D03*
X287000Y434000D02*
D03*
X81000Y294000D02*
D03*
X659000Y157000D02*
D03*
X623000Y464000D02*
D03*
X203000Y479000D02*
D03*
X185000Y440653D02*
D03*
X224000Y442000D02*
D03*
X548000Y419000D02*
D03*
X588000Y401000D02*
D03*
X644000Y443000D02*
D03*
X556000Y182000D02*
D03*
X113000Y150000D02*
D03*
X224000Y433000D02*
D03*
X96000Y247000D02*
D03*
X325000Y68000D02*
D03*
X292000Y62000D02*
D03*
X280000D02*
D03*
X247000Y124000D02*
D03*
X190000Y146000D02*
D03*
X182000Y288000D02*
D03*
X232000Y200000D02*
D03*
X215000Y252000D02*
D03*
X191000Y227000D02*
D03*
X170000D02*
D03*
X151000Y276000D02*
D03*
X123000Y172000D02*
D03*
X145000Y150000D02*
D03*
X157000Y408000D02*
D03*
X55000Y521000D02*
D03*
X190000Y407000D02*
D03*
X181000Y135000D02*
D03*
X89500Y106000D02*
D03*
X89750Y97000D02*
D03*
X59500Y230500D02*
D03*
Y223000D02*
D03*
X680000Y115000D02*
D03*
X111000Y261000D02*
D03*
X112000Y370000D02*
D03*
X96000Y321000D02*
D03*
X99000Y410000D02*
D03*
X246000Y187000D02*
D03*
X483000Y93000D02*
D03*
X160000Y203000D02*
D03*
X128000Y190000D02*
D03*
X204250Y209750D02*
D03*
X153000Y197000D02*
D03*
X114500Y212000D02*
D03*
X115500Y192000D02*
D03*
X292000Y401000D02*
D03*
M02*
