G04*
G04 #@! TF.GenerationSoftware,Altium Limited,Altium Designer,20.2.5 (213)*
G04*
G04 Layer_Color=8388736*
%FSLAX44Y44*%
%MOMM*%
G71*
G04*
G04 #@! TF.SameCoordinates,D028A582-A43C-45AF-95F9-5D6BD50934B0*
G04*
G04*
G04 #@! TF.FilePolarity,Positive*
G04*
G01*
G75*
%ADD10C,0.2000*%
%ADD11C,0.2540*%
%ADD71C,0.3000*%
%ADD77C,0.5000*%
%ADD91C,0.5080*%
%ADD92C,0.1000*%
%ADD93C,0.1500*%
D10*
X573220Y385500D02*
X606120D01*
X606240Y385380D01*
Y370380D02*
Y385380D01*
X606120Y370500D02*
X606240Y370380D01*
X573220Y370500D02*
X606120D01*
X573220D02*
Y385500D01*
X575760D01*
Y370500D02*
Y385500D01*
X229760Y413500D02*
Y428500D01*
X227220D02*
X229760D01*
X227220Y413500D02*
Y428500D01*
Y413500D02*
X260120D01*
X260240Y413380D01*
Y428380D01*
X260120Y428500D02*
X260240Y428380D01*
X227220Y428500D02*
X260120D01*
X228220Y409500D02*
X261120D01*
X261240Y409380D01*
Y394380D02*
Y409380D01*
X261120Y394500D02*
X261240Y394380D01*
X228220Y394500D02*
X261120D01*
X228220D02*
Y409500D01*
X230760D01*
Y394500D02*
Y409500D01*
Y376500D02*
Y391500D01*
X228220D02*
X230760D01*
X228220Y376500D02*
Y391500D01*
Y376500D02*
X261120D01*
X261240Y376380D01*
Y391380D01*
X261120Y391500D02*
X261240Y391380D01*
X228220Y391500D02*
X261120D01*
X125000Y127000D02*
Y165000D01*
X193000D01*
Y127000D02*
Y165000D01*
X125000Y127000D02*
X193000D01*
X172720Y520700D02*
X431800D01*
X172720Y495300D02*
Y520700D01*
Y495300D02*
X431800D01*
Y520700D01*
X264160Y12700D02*
X472440D01*
Y38100D01*
X264160D02*
X472440D01*
X264160Y12700D02*
Y38100D01*
X441960Y520700D02*
X650240D01*
X441960Y495300D02*
Y520700D01*
Y495300D02*
X650240D01*
Y520700D01*
X492760Y12700D02*
Y38100D01*
X650240D01*
Y12700D02*
Y38100D01*
X492760Y12700D02*
X650240D01*
X133300Y357000D02*
Y461240D01*
Y357000D02*
X158700D01*
Y461240D01*
X133300D02*
X158700D01*
X649300Y405500D02*
Y482500D01*
X674700Y405500D02*
Y482500D01*
X649300D02*
X674700D01*
X649300Y405500D02*
X674700D01*
X102700Y75300D02*
X179700D01*
X102700Y100700D02*
X179700D01*
X102700Y75300D02*
Y100700D01*
X179700Y75300D02*
Y100700D01*
X205840Y246780D02*
X226160D01*
X205840Y211220D02*
Y246780D01*
Y211220D02*
X226160D01*
Y246780D01*
X151780Y223840D02*
Y244160D01*
X116220D02*
X151780D01*
X116220Y223840D02*
Y244160D01*
Y223840D02*
X151780D01*
X102840Y141780D02*
X123160D01*
X102840Y106220D02*
Y141780D01*
Y106220D02*
X123160D01*
Y141780D01*
X194840Y131780D02*
X215160D01*
X194840Y96220D02*
Y131780D01*
Y96220D02*
X215160D01*
Y131780D01*
X454220Y65840D02*
Y86160D01*
Y65840D02*
X489780D01*
Y86160D01*
X454220D02*
X489780D01*
X267780Y472840D02*
Y493160D01*
X232220D02*
X267780D01*
X232220Y472840D02*
Y493160D01*
Y472840D02*
X267780D01*
X431840Y50720D02*
X452160D01*
Y86280D01*
X431840D02*
X452160D01*
X431840Y50720D02*
Y86280D01*
X608280Y322840D02*
Y343160D01*
X572720D02*
X608280D01*
X572720Y322840D02*
Y343160D01*
Y322840D02*
X608280D01*
X88900Y459740D02*
Y510540D01*
X12700D02*
X88900D01*
X12700Y459740D02*
Y510540D01*
Y459740D02*
X88900D01*
Y373380D02*
Y424180D01*
X12700D02*
X88900D01*
X12700Y373380D02*
Y424180D01*
Y373380D02*
X88900D01*
X12700Y354700D02*
X63500D01*
Y303900D02*
Y354700D01*
X12700Y303900D02*
X63500D01*
X12700D02*
Y354700D01*
X399500Y302000D02*
X481500D01*
X399500Y265000D02*
Y302000D01*
Y265000D02*
X400500Y264000D01*
X481500D01*
Y302000D01*
X232000Y250000D02*
Y332000D01*
Y250000D02*
X269000D01*
X270000Y251000D01*
Y332000D01*
X232000D02*
X270000D01*
X191000Y417000D02*
Y447000D01*
X173000Y417000D02*
X191000D01*
X173000D02*
Y447000D01*
X191000D01*
X45000Y271000D02*
X75000D01*
Y253000D02*
Y271000D01*
X45000Y253000D02*
X75000D01*
X45000D02*
Y271000D01*
X646000Y148000D02*
X676000D01*
X646000D02*
Y166000D01*
X676000D01*
Y148000D02*
Y166000D01*
X223000Y135000D02*
Y165000D01*
X205000Y135000D02*
X223000D01*
X205000D02*
Y165000D01*
X223000D01*
X54500Y89000D02*
X59500D01*
X44500Y99000D02*
X54500Y89000D01*
X44500Y99000D02*
Y144000D01*
X59500D01*
X84500D02*
X99500D01*
Y99000D02*
Y144000D01*
X89500Y89000D02*
X99500Y99000D01*
X57000Y89000D02*
X89500D01*
X59500Y144000D02*
X84500D01*
X57000Y94000D02*
Y99000D01*
X54500Y96500D02*
X59500D01*
X54500Y14500D02*
X59500D01*
X44500Y24500D02*
X54500Y14500D01*
X44500Y24500D02*
Y69500D01*
X59500D01*
X84500D02*
X99500D01*
Y24500D02*
Y69500D01*
X89500Y14500D02*
X99500Y24500D01*
X57000Y14500D02*
X89500D01*
X59500Y69500D02*
X84500D01*
X57000Y19500D02*
Y24500D01*
X54500Y22000D02*
X59500D01*
X120000Y266000D02*
X188000D01*
X119000Y265000D02*
X120000Y266000D01*
X119000Y265000D02*
Y335000D01*
X187000D01*
X188000Y334000D01*
Y266000D02*
Y334000D01*
X4490Y54790D02*
Y113210D01*
Y54790D02*
X37510D01*
Y113210D01*
X4490D02*
X37510D01*
X599000Y255000D02*
X659000D01*
X599000D02*
Y315000D01*
X659000D01*
Y255000D02*
Y315000D01*
X248000Y18000D02*
Y78000D01*
X188000Y18000D02*
X248000D01*
X188000D02*
Y78000D01*
X248000D01*
X-5630Y241000D02*
X51120D01*
X51370Y240750D01*
Y182000D02*
Y240750D01*
Y163000D02*
Y182000D01*
X50370Y162000D02*
X51370Y163000D01*
X-5630Y162000D02*
X50370D01*
X-5630D02*
Y241000D01*
X2000Y304000D02*
X16000D01*
X2000Y266000D02*
Y304000D01*
Y266000D02*
X16000D01*
Y304000D01*
X591000Y236000D02*
Y250000D01*
Y236000D02*
X629000D01*
Y250000D01*
X591000D02*
X629000D01*
X162000Y377000D02*
Y413000D01*
X181000D01*
X182000Y412000D01*
Y377000D02*
Y412000D01*
X162000Y377000D02*
X182000D01*
X269000Y454000D02*
X305000D01*
Y435000D02*
Y454000D01*
X304000Y434000D02*
X305000Y435000D01*
X269000Y434000D02*
X304000D01*
X269000D02*
Y454000D01*
Y431000D02*
X305000D01*
Y412000D02*
Y431000D01*
X304000Y411000D02*
X305000Y412000D01*
X269000Y411000D02*
X304000D01*
X269000D02*
Y431000D01*
X101000Y256000D02*
Y292000D01*
X82000Y256000D02*
X101000D01*
X81000Y257000D02*
X82000Y256000D01*
X81000Y257000D02*
Y292000D01*
X101000D01*
X69000Y339000D02*
X105000D01*
X69000D02*
Y358000D01*
X70000Y359000D01*
X105000D01*
Y339000D02*
Y359000D01*
X78500Y223000D02*
X114500D01*
Y204000D02*
Y223000D01*
X113500Y203000D02*
X114500Y204000D01*
X78500Y203000D02*
X113500D01*
X78500D02*
Y223000D01*
Y201000D02*
X114500D01*
Y182000D02*
Y201000D01*
X113500Y181000D02*
X114500Y182000D01*
X78500Y181000D02*
X113500D01*
X78500D02*
Y201000D01*
X77000Y177000D02*
X113000D01*
Y158000D02*
Y177000D01*
X112000Y157000D02*
X113000Y158000D01*
X77000Y157000D02*
X112000D01*
X77000D02*
Y177000D01*
X209000Y265000D02*
Y301000D01*
X228000D01*
X229000Y300000D01*
Y265000D02*
Y300000D01*
X209000Y265000D02*
X229000D01*
X601000Y446000D02*
Y482000D01*
X620000D01*
X621000Y481000D01*
Y446000D02*
Y481000D01*
X601000Y446000D02*
X621000D01*
X568129Y448379D02*
Y484379D01*
X587129D01*
X588129Y483379D01*
Y448379D02*
Y483379D01*
X568129Y448379D02*
X588129D01*
X645000Y406000D02*
Y442000D01*
X626000Y406000D02*
X645000D01*
X625000Y407000D02*
X626000Y406000D01*
X625000Y407000D02*
Y442000D01*
X645000D01*
X353000Y89000D02*
X389000D01*
X353000D02*
Y108000D01*
X354000Y109000D01*
X389000D01*
Y89000D02*
Y109000D01*
X595000Y236000D02*
X631000D01*
Y217000D02*
Y236000D01*
X630000Y216000D02*
X631000Y217000D01*
X595000Y216000D02*
X630000D01*
X595000D02*
Y236000D01*
X226000Y432000D02*
X262000D01*
X226000D02*
Y451000D01*
X227000Y452000D01*
X262000D01*
Y432000D02*
Y452000D01*
X402000Y218000D02*
X438000D01*
X402000D02*
Y237000D01*
X403000Y238000D01*
X438000D01*
Y218000D02*
Y238000D01*
X572000Y347000D02*
X608000D01*
X572000D02*
Y366000D01*
X573000Y367000D01*
X608000D01*
Y347000D02*
Y367000D01*
X658000Y177000D02*
Y213000D01*
X677000D01*
X678000Y212000D01*
Y177000D02*
Y212000D01*
X658000Y177000D02*
X678000D01*
X19000Y266000D02*
Y302000D01*
X38000D01*
X39000Y301000D01*
Y266000D02*
Y301000D01*
X19000Y266000D02*
X39000D01*
X677000Y215000D02*
Y251000D01*
X658000Y215000D02*
X677000D01*
X657000Y216000D02*
X658000Y215000D01*
X657000Y216000D02*
Y251000D01*
X677000D01*
X275000Y40000D02*
Y76000D01*
X256000Y40000D02*
X275000D01*
X255000Y41000D02*
X256000Y40000D01*
X255000Y41000D02*
Y76000D01*
X275000D01*
X236000Y135000D02*
Y171000D01*
X255000D01*
X256000Y170000D01*
Y135000D02*
Y170000D01*
X236000Y135000D02*
X256000D01*
X4500Y264000D02*
X40500D01*
Y245000D02*
Y264000D01*
X39500Y244000D02*
X40500Y245000D01*
X4500Y244000D02*
X39500D01*
X4500D02*
Y264000D01*
X657000Y215000D02*
Y251000D01*
X638000Y215000D02*
X657000D01*
X637000Y216000D02*
X638000Y215000D01*
X637000Y216000D02*
Y251000D01*
X657000D01*
X254000Y98000D02*
X290000D01*
Y79000D02*
Y98000D01*
X289000Y78000D02*
X290000Y79000D01*
X254000Y78000D02*
X289000D01*
X254000D02*
Y98000D01*
X116000Y223000D02*
X152000D01*
Y204000D02*
Y223000D01*
X151000Y203000D02*
X152000Y204000D01*
X116000Y203000D02*
X151000D01*
X116000D02*
Y223000D01*
X348000Y59000D02*
Y95000D01*
X329000Y59000D02*
X348000D01*
X328000Y60000D02*
X329000Y59000D01*
X328000Y60000D02*
Y95000D01*
X348000D01*
Y40000D02*
Y76000D01*
X329000Y40000D02*
X348000D01*
X328000Y41000D02*
X329000Y40000D01*
X328000Y41000D02*
Y76000D01*
X348000D01*
X62380Y201530D02*
Y229470D01*
Y201530D02*
X77620D01*
Y229470D01*
X62380D02*
X77620D01*
X76620Y171530D02*
Y199470D01*
X61380D02*
X76620D01*
X61380Y171530D02*
Y199470D01*
Y171530D02*
X76620D01*
X182840Y211220D02*
X203160D01*
Y246780D01*
X182840D02*
X203160D01*
X182840Y211220D02*
Y246780D01*
X208840Y338780D02*
X229160D01*
X208840Y303220D02*
Y338780D01*
Y303220D02*
X229160D01*
Y338780D01*
X159840Y246780D02*
X180160D01*
X159840Y211220D02*
Y246780D01*
Y211220D02*
X180160D01*
Y246780D01*
X14840Y459780D02*
X35160D01*
X14840Y424220D02*
Y459780D01*
Y424220D02*
X35160D01*
Y459780D01*
X267780Y333840D02*
Y354160D01*
X232220D02*
X267780D01*
X232220Y333840D02*
Y354160D01*
Y333840D02*
X267780D01*
X265780Y227840D02*
Y248160D01*
X230220D02*
X265780D01*
X230220Y227840D02*
Y248160D01*
Y227840D02*
X265780D01*
X624840Y446220D02*
X645160D01*
Y481780D01*
X624840D02*
X645160D01*
X624840Y446220D02*
Y481780D01*
X412780Y40840D02*
Y61160D01*
X377220D02*
X412780D01*
X377220Y40840D02*
Y61160D01*
Y40840D02*
X412780D01*
X294840Y76780D02*
X315160D01*
X294840Y41220D02*
Y76780D01*
Y41220D02*
X315160D01*
Y76780D01*
X350840D02*
X371160D01*
X350840Y41220D02*
Y76780D01*
Y41220D02*
X371160D01*
Y76780D01*
X49780Y510840D02*
Y531160D01*
X14220D02*
X49780D01*
X14220Y510840D02*
Y531160D01*
Y510840D02*
X49780D01*
X440720Y216840D02*
Y237160D01*
Y216840D02*
X476280D01*
Y237160D01*
X440720D02*
X476280D01*
X393220Y88840D02*
Y109160D01*
Y88840D02*
X428780D01*
Y109160D01*
X393220D02*
X428780D01*
X468780Y88840D02*
Y109160D01*
X433220D02*
X468780D01*
X433220Y88840D02*
Y109160D01*
Y88840D02*
X468780D01*
X402720Y240840D02*
Y261160D01*
Y240840D02*
X438280D01*
Y261160D01*
X402720D02*
X438280D01*
X202840Y415220D02*
X223160D01*
Y450780D01*
X202840D02*
X223160D01*
X202840Y415220D02*
Y450780D01*
X475280Y240840D02*
Y261160D01*
X439720D02*
X475280D01*
X439720Y240840D02*
Y261160D01*
Y240840D02*
X475280D01*
X678780Y115840D02*
Y136160D01*
X643220D02*
X678780D01*
X643220Y115840D02*
Y136160D01*
Y115840D02*
X678780D01*
X205840Y207780D02*
X226160D01*
X205840Y172220D02*
Y207780D01*
Y172220D02*
X226160D01*
Y207780D01*
X77780Y283840D02*
Y304160D01*
X42220D02*
X77780D01*
X42220Y283840D02*
Y304160D01*
Y283840D02*
X77780D01*
X113780Y225840D02*
Y246160D01*
X78220D02*
X113780D01*
X78220Y225840D02*
Y246160D01*
Y225840D02*
X113780D01*
X635840Y177220D02*
X656160D01*
Y212780D01*
X635840D02*
X656160D01*
X635840Y177220D02*
Y212780D01*
X217840Y131780D02*
X238160D01*
X217840Y96220D02*
Y131780D01*
Y96220D02*
X238160D01*
Y131780D01*
X183840Y172220D02*
X204160D01*
Y207780D01*
X183840D02*
X204160D01*
X183840Y172220D02*
Y207780D01*
X454220Y42840D02*
Y63160D01*
Y42840D02*
X489780D01*
Y63160D01*
X454220D02*
X489780D01*
X393720Y65840D02*
Y86160D01*
Y65840D02*
X429280D01*
Y86160D01*
X393720D02*
X429280D01*
X151000Y150997D02*
Y142666D01*
X152666Y141000D01*
X155998D01*
X157664Y142666D01*
Y150997D01*
X160997Y149331D02*
X162663Y150997D01*
X165995D01*
X167661Y149331D01*
Y147664D01*
X165995Y145998D01*
X164329D01*
X165995D01*
X167661Y144332D01*
Y142666D01*
X165995Y141000D01*
X162663D01*
X160997Y142666D01*
X177003Y422000D02*
X185334D01*
X187000Y423666D01*
Y426998D01*
X185334Y428665D01*
X177003D01*
X187000Y436995D02*
X177003D01*
X182002Y431997D01*
Y438661D01*
X53000Y266997D02*
Y258666D01*
X54666Y257000D01*
X57998D01*
X59665Y258666D01*
Y266997D01*
X69661D02*
X62997D01*
Y261998D01*
X66329Y263664D01*
X67995D01*
X69661Y261998D01*
Y258666D01*
X67995Y257000D01*
X64663D01*
X62997Y258666D01*
X651000Y162997D02*
Y154666D01*
X652666Y153000D01*
X655998D01*
X657664Y154666D01*
Y162997D01*
X667661D02*
X664329Y161331D01*
X660997Y157998D01*
Y154666D01*
X662663Y153000D01*
X665995D01*
X667661Y154666D01*
Y156332D01*
X665995Y157998D01*
X660997D01*
X210003Y140000D02*
X218334D01*
X220000Y141666D01*
Y144998D01*
X218334Y146664D01*
X210003D01*
Y149997D02*
Y156661D01*
X211669D01*
X218334Y149997D01*
X220000D01*
X67664Y119830D02*
X65498Y121996D01*
X61166D01*
X59000Y119830D01*
Y111166D01*
X61166Y109000D01*
X65498D01*
X67664Y111166D01*
X71996Y109000D02*
Y121996D01*
X78494D01*
X80660Y119830D01*
Y115498D01*
X78494Y113332D01*
X71996D01*
X84992Y109000D02*
X89324D01*
X87158D01*
Y121996D01*
X84992Y119830D01*
X64664Y47830D02*
X62498Y49996D01*
X58166D01*
X56000Y47830D01*
Y39166D01*
X58166Y37000D01*
X62498D01*
X64664Y39166D01*
X68996Y37000D02*
Y49996D01*
X75494D01*
X77660Y47830D01*
Y43498D01*
X75494Y41332D01*
X68996D01*
X90655Y37000D02*
X81992D01*
X90655Y45664D01*
Y47830D01*
X88490Y49996D01*
X84158D01*
X81992Y47830D01*
X14000Y87997D02*
Y78000D01*
X20665D01*
X23997D02*
X27329D01*
X25663D01*
Y87997D01*
X23997Y86331D01*
X4003Y277000D02*
X14000D01*
Y281998D01*
X12334Y283664D01*
X5669D01*
X4003Y281998D01*
Y277000D01*
Y293661D02*
Y286997D01*
X9002D01*
X7336Y290329D01*
Y291995D01*
X9002Y293661D01*
X12334D01*
X14000Y291995D01*
Y288663D01*
X12334Y286997D01*
X601000Y247997D02*
Y238000D01*
X605998D01*
X607664Y239666D01*
Y246331D01*
X605998Y247997D01*
X601000D01*
X617661D02*
X614329Y246331D01*
X610997Y242998D01*
Y239666D01*
X612663Y238000D01*
X615995D01*
X617661Y239666D01*
Y241332D01*
X615995Y242998D01*
X610997D01*
X177000Y389000D02*
X167003D01*
Y393998D01*
X168669Y395664D01*
X172002D01*
X173668Y393998D01*
Y389000D01*
Y392332D02*
X177000Y395664D01*
Y398997D02*
Y402329D01*
Y400663D01*
X167003D01*
X168669Y398997D01*
X279000Y439000D02*
Y448997D01*
X283998D01*
X285665Y447331D01*
Y443998D01*
X283998Y442332D01*
X279000D01*
X282332D02*
X285665Y439000D01*
X295661D02*
X288997D01*
X295661Y445664D01*
Y447331D01*
X293995Y448997D01*
X290663D01*
X288997Y447331D01*
X278000Y416000D02*
Y425997D01*
X282998D01*
X284664Y424331D01*
Y420998D01*
X282998Y419332D01*
X278000D01*
X281332D02*
X284664Y416000D01*
X287997Y424331D02*
X289663Y425997D01*
X292995D01*
X294661Y424331D01*
Y422664D01*
X292995Y420998D01*
X291329D01*
X292995D01*
X294661Y419332D01*
Y417666D01*
X292995Y416000D01*
X289663D01*
X287997Y417666D01*
X95000Y269000D02*
X85003D01*
Y273998D01*
X86669Y275665D01*
X90002D01*
X91668Y273998D01*
Y269000D01*
Y272332D02*
X95000Y275665D01*
Y283995D02*
X85003D01*
X90002Y278997D01*
Y285661D01*
X79000Y344000D02*
Y353997D01*
X83998D01*
X85665Y352331D01*
Y348998D01*
X83998Y347332D01*
X79000D01*
X82332D02*
X85665Y344000D01*
X95661Y353997D02*
X88997D01*
Y348998D01*
X92329Y350664D01*
X93995D01*
X95661Y348998D01*
Y345666D01*
X93995Y344000D01*
X90663D01*
X88997Y345666D01*
X88000Y208000D02*
Y217997D01*
X92998D01*
X94664Y216331D01*
Y212998D01*
X92998Y211332D01*
X88000D01*
X91332D02*
X94664Y208000D01*
X104661Y217997D02*
X101329Y216331D01*
X97997Y212998D01*
Y209666D01*
X99663Y208000D01*
X102995D01*
X104661Y209666D01*
Y211332D01*
X102995Y212998D01*
X97997D01*
X89000Y186000D02*
Y195997D01*
X93998D01*
X95665Y194331D01*
Y190998D01*
X93998Y189332D01*
X89000D01*
X92332D02*
X95665Y186000D01*
X98997Y195997D02*
X105661D01*
Y194331D01*
X98997Y187666D01*
Y186000D01*
X87000Y162000D02*
Y171997D01*
X91998D01*
X93665Y170331D01*
Y166998D01*
X91998Y165332D01*
X87000D01*
X90332D02*
X93665Y162000D01*
X96997Y170331D02*
X98663Y171997D01*
X101995D01*
X103661Y170331D01*
Y168664D01*
X101995Y166998D01*
X103661Y165332D01*
Y163666D01*
X101995Y162000D01*
X98663D01*
X96997Y163666D01*
Y165332D01*
X98663Y166998D01*
X96997Y168664D01*
Y170331D01*
X98663Y166998D02*
X101995D01*
X224000Y276000D02*
X214003D01*
Y280998D01*
X215669Y282665D01*
X219002D01*
X220668Y280998D01*
Y276000D01*
Y279332D02*
X224000Y282665D01*
X222334Y285997D02*
X224000Y287663D01*
Y290995D01*
X222334Y292661D01*
X215669D01*
X214003Y290995D01*
Y287663D01*
X215669Y285997D01*
X217335D01*
X219002Y287663D01*
Y292661D01*
X616000Y451000D02*
X606003D01*
Y455998D01*
X607669Y457664D01*
X611002D01*
X612668Y455998D01*
Y451000D01*
Y454332D02*
X616000Y457664D01*
Y460997D02*
Y464329D01*
Y462663D01*
X606003D01*
X607669Y460997D01*
Y469327D02*
X606003Y470993D01*
Y474326D01*
X607669Y475992D01*
X614334D01*
X616000Y474326D01*
Y470993D01*
X614334Y469327D01*
X607669D01*
X583000Y456000D02*
X573003D01*
Y460998D01*
X574669Y462664D01*
X578002D01*
X579668Y460998D01*
Y456000D01*
Y459332D02*
X583000Y462664D01*
Y465997D02*
Y469329D01*
Y467663D01*
X573003D01*
X574669Y465997D01*
X583000Y474327D02*
Y477660D01*
Y475994D01*
X573003D01*
X574669Y474327D01*
X639000Y414000D02*
X629003D01*
Y418998D01*
X630669Y420664D01*
X634002D01*
X635668Y418998D01*
Y414000D01*
Y417332D02*
X639000Y420664D01*
Y423997D02*
Y427329D01*
Y425663D01*
X629003D01*
X630669Y423997D01*
X639000Y438992D02*
Y432327D01*
X632336Y438992D01*
X630669D01*
X629003Y437326D01*
Y433993D01*
X630669Y432327D01*
X386780Y107000D02*
Y97003D01*
X381782D01*
X380115Y98669D01*
Y102002D01*
X381782Y103668D01*
X386780D01*
X383448D02*
X380115Y107000D01*
X376783D02*
X373451D01*
X375117D01*
Y97003D01*
X376783Y98669D01*
X368452D02*
X366786Y97003D01*
X363454D01*
X361788Y98669D01*
Y100336D01*
X363454Y102002D01*
X365120D01*
X363454D01*
X361788Y103668D01*
Y105334D01*
X363454Y107000D01*
X366786D01*
X368452Y105334D01*
X601000Y222000D02*
Y231997D01*
X605998D01*
X607664Y230331D01*
Y226998D01*
X605998Y225332D01*
X601000D01*
X604332D02*
X607664Y222000D01*
X610997D02*
X614329D01*
X612663D01*
Y231997D01*
X610997Y230331D01*
X624326Y222000D02*
Y231997D01*
X619327Y226998D01*
X625992D01*
X231000Y437332D02*
Y447329D01*
X235998D01*
X237665Y445663D01*
Y442331D01*
X235998Y440664D01*
X231000D01*
X234332D02*
X237665Y437332D01*
X240997D02*
X244329D01*
X242663D01*
Y447329D01*
X240997Y445663D01*
X255992Y447329D02*
X249327D01*
Y442331D01*
X252660Y443997D01*
X254326D01*
X255992Y442331D01*
Y438998D01*
X254326Y437332D01*
X250994D01*
X249327Y438998D01*
X260990Y435666D02*
X262656Y437332D01*
Y438998D01*
X260990D01*
Y437332D01*
X262656D01*
X260990Y435666D01*
X259324Y434000D01*
X408000Y223000D02*
Y232997D01*
X412998D01*
X414664Y231331D01*
Y227998D01*
X412998Y226332D01*
X408000D01*
X411332D02*
X414664Y223000D01*
X417997D02*
X421329D01*
X419663D01*
Y232997D01*
X417997Y231331D01*
X432992Y232997D02*
X429660Y231331D01*
X426327Y227998D01*
Y224666D01*
X427994Y223000D01*
X431326D01*
X432992Y224666D01*
Y226332D01*
X431326Y227998D01*
X426327D01*
X578000Y353000D02*
Y362997D01*
X582998D01*
X584664Y361331D01*
Y357998D01*
X582998Y356332D01*
X578000D01*
X581332D02*
X584664Y353000D01*
X587997D02*
X591329D01*
X589663D01*
Y362997D01*
X587997Y361331D01*
X596327Y362997D02*
X602992D01*
Y361331D01*
X596327Y354666D01*
Y353000D01*
X674000Y184000D02*
X664003D01*
Y188998D01*
X665669Y190665D01*
X669002D01*
X670668Y188998D01*
Y184000D01*
Y187332D02*
X674000Y190665D01*
Y193997D02*
Y197329D01*
Y195663D01*
X664003D01*
X665669Y193997D01*
Y202327D02*
X664003Y203993D01*
Y207326D01*
X665669Y208992D01*
X667336D01*
X669002Y207326D01*
X670668Y208992D01*
X672334D01*
X674000Y207326D01*
Y203993D01*
X672334Y202327D01*
X670668D01*
X669002Y203993D01*
X667336Y202327D01*
X665669D01*
X669002Y203993D02*
Y207326D01*
X33000Y272000D02*
X23003D01*
Y276998D01*
X24669Y278664D01*
X28002D01*
X29668Y276998D01*
Y272000D01*
Y275332D02*
X33000Y278664D01*
Y281997D02*
Y285329D01*
Y283663D01*
X23003D01*
X24669Y281997D01*
X31334Y290327D02*
X33000Y291994D01*
Y295326D01*
X31334Y296992D01*
X24669D01*
X23003Y295326D01*
Y291994D01*
X24669Y290327D01*
X26335D01*
X28002Y291994D01*
Y296992D01*
X673000Y221000D02*
X663003D01*
Y225998D01*
X664669Y227665D01*
X668002D01*
X669668Y225998D01*
Y221000D01*
Y224332D02*
X673000Y227665D01*
Y237661D02*
Y230997D01*
X666335Y237661D01*
X664669D01*
X663003Y235995D01*
Y232663D01*
X664669Y230997D01*
Y240993D02*
X663003Y242660D01*
Y245992D01*
X664669Y247658D01*
X671334D01*
X673000Y245992D01*
Y242660D01*
X671334Y240993D01*
X664669D01*
X269000Y48000D02*
X259003D01*
Y52998D01*
X260669Y54665D01*
X264002D01*
X265668Y52998D01*
Y48000D01*
Y51332D02*
X269000Y54665D01*
Y64661D02*
Y57997D01*
X262335Y64661D01*
X260669D01*
X259003Y62995D01*
Y59663D01*
X260669Y57997D01*
X269000Y67994D02*
Y71326D01*
Y69660D01*
X259003D01*
X260669Y67994D01*
X252000Y139000D02*
X242003D01*
Y143998D01*
X243669Y145665D01*
X247002D01*
X248668Y143998D01*
Y139000D01*
Y142332D02*
X252000Y145665D01*
Y155661D02*
Y148997D01*
X245336Y155661D01*
X243669D01*
X242003Y153995D01*
Y150663D01*
X243669Y148997D01*
X252000Y165658D02*
Y158994D01*
X245336Y165658D01*
X243669D01*
X242003Y163992D01*
Y160660D01*
X243669Y158994D01*
X8000Y248000D02*
Y257997D01*
X12998D01*
X14664Y256331D01*
Y252998D01*
X12998Y251332D01*
X8000D01*
X11332D02*
X14664Y248000D01*
X24661D02*
X17997D01*
X24661Y254664D01*
Y256331D01*
X22995Y257997D01*
X19663D01*
X17997Y256331D01*
X27994D02*
X29660Y257997D01*
X32992D01*
X34658Y256331D01*
Y254664D01*
X32992Y252998D01*
X31326D01*
X32992D01*
X34658Y251332D01*
Y249666D01*
X32992Y248000D01*
X29660D01*
X27994Y249666D01*
X651000Y220000D02*
X641003D01*
Y224998D01*
X642669Y226665D01*
X646002D01*
X647668Y224998D01*
Y220000D01*
Y223332D02*
X651000Y226665D01*
Y236661D02*
Y229997D01*
X644335Y236661D01*
X642669D01*
X641003Y234995D01*
Y231663D01*
X642669Y229997D01*
X651000Y244992D02*
X641003D01*
X646002Y239994D01*
Y246658D01*
X259000Y81000D02*
Y90997D01*
X263998D01*
X265665Y89331D01*
Y85998D01*
X263998Y84332D01*
X259000D01*
X262332D02*
X265665Y81000D01*
X275661D02*
X268997D01*
X275661Y87664D01*
Y89331D01*
X273995Y90997D01*
X270663D01*
X268997Y89331D01*
X285658Y90997D02*
X278993D01*
Y85998D01*
X282326Y87664D01*
X283992D01*
X285658Y85998D01*
Y82666D01*
X283992Y81000D01*
X280660D01*
X278993Y82666D01*
X121000Y208000D02*
Y217997D01*
X125998D01*
X127664Y216331D01*
Y212998D01*
X125998Y211332D01*
X121000D01*
X124332D02*
X127664Y208000D01*
X137661D02*
X130997D01*
X137661Y214664D01*
Y216331D01*
X135995Y217997D01*
X132663D01*
X130997Y216331D01*
X147658Y217997D02*
X144326Y216331D01*
X140993Y212998D01*
Y209666D01*
X142660Y208000D01*
X145992D01*
X147658Y209666D01*
Y211332D01*
X145992Y212998D01*
X140993D01*
X325000Y76000D02*
X315003D01*
Y80998D01*
X316669Y82664D01*
X320002D01*
X321668Y80998D01*
Y76000D01*
Y79332D02*
X325000Y82664D01*
Y92661D02*
Y85997D01*
X318335Y92661D01*
X316669D01*
X315003Y90995D01*
Y87663D01*
X316669Y85997D01*
X315003Y95994D02*
Y102658D01*
X316669D01*
X323334Y95994D01*
X325000D01*
X326000Y43000D02*
X316003D01*
Y47998D01*
X317669Y49665D01*
X321002D01*
X322668Y47998D01*
Y43000D01*
Y46332D02*
X326000Y49665D01*
Y59661D02*
Y52997D01*
X319335Y59661D01*
X317669D01*
X316003Y57995D01*
Y54663D01*
X317669Y52997D01*
Y62994D02*
X316003Y64660D01*
Y67992D01*
X317669Y69658D01*
X319335D01*
X321002Y67992D01*
X322668Y69658D01*
X324334D01*
X326000Y67992D01*
Y64660D01*
X324334Y62994D01*
X322668D01*
X321002Y64660D01*
X319335Y62994D01*
X317669D01*
X321002Y64660D02*
Y67992D01*
D11*
X178000Y443000D02*
G03*
X178000Y443000I-1000J0D01*
G01*
X50000Y257000D02*
G03*
X50000Y257000I-1000J0D01*
G01*
X673000Y162000D02*
G03*
X673000Y162000I-1000J0D01*
G01*
X210000Y161000D02*
G03*
X210000Y161000I-1000J0D01*
G01*
X14000Y300000D02*
G03*
X14000Y300000I-1000J0D01*
G01*
X596000Y247000D02*
G03*
X596000Y247000I-1000J0D01*
G01*
X634550Y111830D02*
Y215830D01*
X277550Y111830D02*
X634550D01*
X277550D02*
Y215830D01*
X634550D01*
X235540Y651775D02*
Y641618D01*
X240618Y636540D01*
X245697Y641618D01*
Y651775D01*
X250775Y636540D02*
X255853D01*
X253314D01*
Y651775D01*
X250775Y649236D01*
X263471Y651775D02*
X268549D01*
X266010D01*
Y636540D01*
X263471D01*
X268549D01*
X276167D02*
X281245D01*
X278706D01*
Y651775D01*
X276167Y649236D01*
X135540Y665618D02*
Y675775D01*
X140618Y680853D01*
X145697Y675775D01*
Y665618D01*
Y673236D01*
X135540D01*
X150775Y665618D02*
X158393D01*
X160932Y668158D01*
X158393Y670697D01*
X153314D01*
X150775Y673236D01*
X153314Y675775D01*
X160932D01*
X166010Y665618D02*
X173628D01*
X176167Y668158D01*
X173628Y670697D01*
X168549D01*
X166010Y673236D01*
X168549Y675775D01*
X176167D01*
X188863Y665618D02*
X183784D01*
X181245Y668158D01*
Y673236D01*
X183784Y675775D01*
X188863D01*
X191402Y673236D01*
Y670697D01*
X181245D01*
X196480Y665618D02*
Y675775D01*
X199020D01*
X201559Y673236D01*
Y665618D01*
Y673236D01*
X204098Y675775D01*
X206637Y673236D01*
Y665618D01*
X211715Y680853D02*
Y665618D01*
X219333D01*
X221872Y668158D01*
Y670697D01*
Y673236D01*
X219333Y675775D01*
X211715D01*
X226950Y665618D02*
X232029D01*
X229490D01*
Y680853D01*
X226950D01*
X239646Y675775D02*
Y668158D01*
X242185Y665618D01*
X249803D01*
Y663079D01*
X247264Y660540D01*
X244725D01*
X249803Y665618D02*
Y675775D01*
X272656Y665618D02*
X277734D01*
X280273Y668158D01*
Y673236D01*
X277734Y675775D01*
X272656D01*
X270117Y673236D01*
Y668158D01*
X272656Y665618D01*
X287891D02*
Y678314D01*
Y673236D01*
X285352D01*
X290430D01*
X287891D01*
Y678314D01*
X290430Y680853D01*
X323439Y665618D02*
X313283D01*
X323439Y675775D01*
Y678314D01*
X320900Y680853D01*
X315822D01*
X313283Y678314D01*
X328518D02*
X331057Y680853D01*
X336135D01*
X338674Y678314D01*
Y675775D01*
X336135Y673236D01*
X338674Y670697D01*
Y668158D01*
X336135Y665618D01*
X331057D01*
X328518Y668158D01*
Y670697D01*
X331057Y673236D01*
X328518Y675775D01*
Y678314D01*
X331057Y673236D02*
X336135D01*
X343753Y660540D02*
Y675775D01*
X351370D01*
X353909Y673236D01*
Y668158D01*
X351370Y665618D01*
X343753D01*
X358988D02*
X364066D01*
X361527D01*
Y675775D01*
X358988D01*
X371684Y665618D02*
Y675775D01*
X379301D01*
X381840Y673236D01*
Y665618D01*
X386919D02*
X394536D01*
X397075Y668158D01*
X394536Y670697D01*
X389458D01*
X386919Y673236D01*
X389458Y675775D01*
X397075D01*
X545697Y513775D02*
X540618D01*
X543158D01*
Y501079D01*
X540618Y498540D01*
X538079D01*
X535540Y501079D01*
X550775Y511236D02*
X553314Y513775D01*
X558393D01*
X560932Y511236D01*
Y508697D01*
X558393Y506157D01*
X555853D01*
X558393D01*
X560932Y503618D01*
Y501079D01*
X558393Y498540D01*
X553314D01*
X550775Y501079D01*
X281937Y515615D02*
X276859D01*
X279398D01*
Y502919D01*
X276859Y500380D01*
X274319D01*
X271780Y502919D01*
X294633Y500380D02*
Y515615D01*
X287015Y507997D01*
X297172D01*
X367697Y31775D02*
X362618D01*
X365158D01*
Y19079D01*
X362618Y16540D01*
X360079D01*
X357540Y19079D01*
X372775Y16540D02*
X377853D01*
X375314D01*
Y31775D01*
X372775Y29236D01*
X567697Y33775D02*
X562618D01*
X565158D01*
Y21079D01*
X562618Y18540D01*
X560079D01*
X557540Y21079D01*
X582932Y18540D02*
X572775D01*
X582932Y28697D01*
Y31236D01*
X580393Y33775D01*
X575314D01*
X572775Y31236D01*
X138225Y398697D02*
Y393618D01*
Y396157D01*
X150921D01*
X153460Y393618D01*
Y391079D01*
X150921Y388540D01*
X153460Y403775D02*
X138225D01*
Y411393D01*
X140764Y413932D01*
X145842D01*
X148382Y411393D01*
Y403775D01*
X140764Y419010D02*
X138225Y421549D01*
Y426628D01*
X140764Y429167D01*
X143303D01*
X145842Y426628D01*
Y424089D01*
Y426628D01*
X148382Y429167D01*
X150921D01*
X153460Y426628D01*
Y421549D01*
X150921Y419010D01*
X654225Y435697D02*
Y430618D01*
Y433158D01*
X666921D01*
X669460Y430618D01*
Y428079D01*
X666921Y425540D01*
X669460Y440775D02*
X654225D01*
Y448393D01*
X656764Y450932D01*
X661842D01*
X664382Y448393D01*
Y440775D01*
X669460Y456010D02*
Y461088D01*
Y458549D01*
X654225D01*
X656764Y456010D01*
X135697Y93775D02*
X130618D01*
X133158D01*
Y81079D01*
X130618Y78540D01*
X128079D01*
X125540Y81079D01*
X140775Y78540D02*
Y93775D01*
X148393D01*
X150932Y91236D01*
Y86158D01*
X148393Y83618D01*
X140775D01*
X163628Y78540D02*
Y93775D01*
X156010Y86158D01*
X166167D01*
X45697Y493775D02*
X40618D01*
X43158D01*
Y481079D01*
X40618Y478540D01*
X38079D01*
X35540Y481079D01*
X60932Y493775D02*
X50775D01*
Y486157D01*
X55853Y488697D01*
X58393D01*
X60932Y486157D01*
Y481079D01*
X58393Y478540D01*
X53314D01*
X50775Y481079D01*
X48697Y407775D02*
X43618D01*
X46157D01*
Y395079D01*
X43618Y392540D01*
X41079D01*
X38540Y395079D01*
X63932Y407775D02*
X58853Y405236D01*
X53775Y400158D01*
Y395079D01*
X56314Y392540D01*
X61393D01*
X63932Y395079D01*
Y397618D01*
X61393Y400158D01*
X53775D01*
X26697Y338775D02*
X21618D01*
X24158D01*
Y326079D01*
X21618Y323540D01*
X19079D01*
X16540Y326079D01*
X31775Y323540D02*
Y338775D01*
X39393D01*
X41932Y336236D01*
Y331157D01*
X39393Y328618D01*
X31775D01*
X57167Y323540D02*
X47010D01*
X57167Y333697D01*
Y336236D01*
X54628Y338775D01*
X49549D01*
X47010Y336236D01*
X431540Y291775D02*
Y289236D01*
X436618Y284158D01*
X441697Y289236D01*
Y291775D01*
X436618Y284158D02*
Y276540D01*
X446775D02*
X451853D01*
X449314D01*
Y291775D01*
X446775Y289236D01*
X239540Y299775D02*
Y297236D01*
X244618Y292157D01*
X249697Y297236D01*
Y299775D01*
X244618Y292157D02*
Y284540D01*
X264932D02*
X254775D01*
X264932Y294697D01*
Y297236D01*
X262393Y299775D01*
X257314D01*
X254775Y297236D01*
X626697Y291236D02*
X624157Y293775D01*
X619079D01*
X616540Y291236D01*
Y288697D01*
X619079Y286157D01*
X624157D01*
X626697Y283618D01*
Y281079D01*
X624157Y278540D01*
X619079D01*
X616540Y281079D01*
X631775Y293775D02*
Y278540D01*
X636853Y283618D01*
X641932Y278540D01*
Y293775D01*
X647010Y278540D02*
X652088D01*
X649549D01*
Y293775D01*
X647010Y291236D01*
X210697Y55236D02*
X208158Y57775D01*
X203079D01*
X200540Y55236D01*
Y52697D01*
X203079Y50157D01*
X208158D01*
X210697Y47618D01*
Y45079D01*
X208158Y42540D01*
X203079D01*
X200540Y45079D01*
X215775Y57775D02*
Y42540D01*
X220853Y47618D01*
X225932Y42540D01*
Y57775D01*
X241167Y42540D02*
X231010D01*
X241167Y52697D01*
Y55236D01*
X238628Y57775D01*
X233549D01*
X231010Y55236D01*
X23697Y210775D02*
X18618D01*
X21158D01*
Y198079D01*
X18618Y195540D01*
X16079D01*
X13540Y198079D01*
X28775Y210775D02*
X38932D01*
Y208236D01*
X28775Y198079D01*
Y195540D01*
D71*
X140000Y309994D02*
Y294999D01*
X142999Y292000D01*
X148997D01*
X151996Y294999D01*
Y309994D01*
X169990Y292000D02*
X157994D01*
X169990Y303996D01*
Y306995D01*
X166991Y309994D01*
X160993D01*
X157994Y306995D01*
D77*
X426720Y513080D02*
G03*
X426720Y513080I-2540J0D01*
G01*
X274320Y20320D02*
G03*
X274320Y20320I-2540J0D01*
G01*
X645160Y513080D02*
G03*
X645160Y513080I-2540J0D01*
G01*
X502920Y20320D02*
G03*
X502920Y20320I-2540J0D01*
G01*
X143460Y453620D02*
G03*
X143460Y453620I-2540J0D01*
G01*
X659460Y476620D02*
G03*
X659460Y476620I-2540J0D01*
G01*
X111120Y82920D02*
G03*
X111120Y82920I-2540J0D01*
G01*
X182414Y273000D02*
G03*
X182414Y273000I-1414J0D01*
G01*
X609236Y308000D02*
G03*
X609236Y308000I-2236J0D01*
G01*
X197236Y26000D02*
G03*
X197236Y26000I-2236J0D01*
G01*
X623021Y201930D02*
G03*
X623021Y201930I-2371J0D01*
G01*
X427550Y171820D02*
Y146828D01*
X432549Y141830D01*
X442546D01*
X447544Y146828D01*
Y171820D01*
X457541Y141830D02*
X467537D01*
X462539D01*
Y171820D01*
X457541Y166822D01*
D91*
X22860Y468630D02*
G03*
X22860Y468630I-1270J0D01*
G01*
Y382270D02*
G03*
X22860Y382270I-1270J0D01*
G01*
X55880Y345810D02*
G03*
X55880Y345810I-1270J0D01*
G01*
D92*
X247332Y485165D02*
X246499Y485998D01*
X244833D01*
X244000Y485165D01*
Y481833D01*
X244833Y481000D01*
X246499D01*
X247332Y481833D01*
X252331Y481000D02*
X248998D01*
X252331Y484332D01*
Y485165D01*
X251497Y485998D01*
X249831D01*
X248998Y485165D01*
X253997Y481000D02*
X255663D01*
X254830D01*
Y485998D01*
X253997Y485165D01*
X587332Y335165D02*
X586499Y335998D01*
X584833D01*
X584000Y335165D01*
Y331833D01*
X584833Y331000D01*
X586499D01*
X587332Y331833D01*
X588998Y335165D02*
X589831Y335998D01*
X591497D01*
X592331Y335165D01*
Y334332D01*
X591497Y333499D01*
X590664D01*
X591497D01*
X592331Y332666D01*
Y331833D01*
X591497Y331000D01*
X589831D01*
X588998Y331833D01*
X596496Y331000D02*
Y335998D01*
X593997Y333499D01*
X597329D01*
X202332Y116165D02*
X201499Y116998D01*
X199833D01*
X199000Y116165D01*
Y112833D01*
X199833Y112000D01*
X201499D01*
X202332Y112833D01*
X203998Y112000D02*
X205665D01*
X204831D01*
Y116998D01*
X203998Y116165D01*
X208164D02*
X208997Y116998D01*
X210663D01*
X211496Y116165D01*
Y115332D01*
X210663Y114499D01*
X209830D01*
X210663D01*
X211496Y113666D01*
Y112833D01*
X210663Y112000D01*
X208997D01*
X208164Y112833D01*
X469332Y77165D02*
X468499Y77998D01*
X466833D01*
X466000Y77165D01*
Y73833D01*
X466833Y73000D01*
X468499D01*
X469332Y73833D01*
X470998Y73000D02*
X472664D01*
X471831D01*
Y77998D01*
X470998Y77165D01*
X475164Y73833D02*
X475997Y73000D01*
X477663D01*
X478496Y73833D01*
Y77165D01*
X477663Y77998D01*
X475997D01*
X475164Y77165D01*
Y76332D01*
X475997Y75499D01*
X478496D01*
X215332Y231165D02*
X214499Y231998D01*
X212833D01*
X212000Y231165D01*
Y227833D01*
X212833Y227000D01*
X214499D01*
X215332Y227833D01*
X216998Y231165D02*
X217831Y231998D01*
X219498D01*
X220331Y231165D01*
Y230332D01*
X219498Y229499D01*
X218664D01*
X219498D01*
X220331Y228666D01*
Y227833D01*
X219498Y227000D01*
X217831D01*
X216998Y227833D01*
X440332Y70165D02*
X439499Y70998D01*
X437833D01*
X437000Y70165D01*
Y66833D01*
X437833Y66000D01*
X439499D01*
X440332Y66833D01*
X445331Y66000D02*
X441998D01*
X445331Y69332D01*
Y70165D01*
X444497Y70998D01*
X442831D01*
X441998Y70165D01*
X450329Y66000D02*
X446997D01*
X450329Y69332D01*
Y70165D01*
X449496Y70998D01*
X447830D01*
X446997Y70165D01*
X110332Y126165D02*
X109499Y126998D01*
X107833D01*
X107000Y126165D01*
Y122833D01*
X107833Y122000D01*
X109499D01*
X110332Y122833D01*
X111998Y122000D02*
X113665D01*
X112831D01*
Y126998D01*
X111998Y126165D01*
X119496Y122000D02*
X116164D01*
X119496Y125332D01*
Y126165D01*
X118663Y126998D01*
X116997D01*
X116164Y126165D01*
X133332Y236165D02*
X132499Y236998D01*
X130833D01*
X130000Y236165D01*
Y232833D01*
X130833Y232000D01*
X132499D01*
X133332Y232833D01*
X134998Y236998D02*
X138331D01*
Y236165D01*
X134998Y232833D01*
Y232000D01*
X67002Y212000D02*
Y215999D01*
X68002D01*
X72000Y212000D01*
X73000D01*
Y215999D01*
Y217998D02*
Y219997D01*
Y218998D01*
X67002D01*
X68002Y217998D01*
X65002Y181000D02*
Y184999D01*
X66002D01*
X70000Y181000D01*
X71000D01*
Y184999D01*
Y190997D02*
Y186998D01*
X67001Y190997D01*
X66002D01*
X65002Y189997D01*
Y187998D01*
X66002Y186998D01*
X193332Y232165D02*
X192499Y232998D01*
X190833D01*
X190000Y232165D01*
Y228833D01*
X190833Y228000D01*
X192499D01*
X193332Y228833D01*
X197498Y228000D02*
Y232998D01*
X194998Y230499D01*
X198331D01*
X217332Y322165D02*
X216499Y322998D01*
X214833D01*
X214000Y322165D01*
Y318833D01*
X214833Y318000D01*
X216499D01*
X217332Y318833D01*
X222331Y322998D02*
X218998D01*
Y320499D01*
X220665Y321332D01*
X221498D01*
X222331Y320499D01*
Y318833D01*
X221498Y318000D01*
X219831D01*
X218998Y318833D01*
X168332Y230165D02*
X167499Y230998D01*
X165833D01*
X165000Y230165D01*
Y226833D01*
X165833Y226000D01*
X167499D01*
X168332Y226833D01*
X173331Y230998D02*
X171665Y230165D01*
X169998Y228499D01*
Y226833D01*
X170831Y226000D01*
X172498D01*
X173331Y226833D01*
Y227666D01*
X172498Y228499D01*
X169998D01*
X24332Y445165D02*
X23499Y445998D01*
X21833D01*
X21000Y445165D01*
Y441833D01*
X21833Y441000D01*
X23499D01*
X24332Y441833D01*
X25998Y445165D02*
X26831Y445998D01*
X28498D01*
X29331Y445165D01*
Y444332D01*
X28498Y443499D01*
X29331Y442666D01*
Y441833D01*
X28498Y441000D01*
X26831D01*
X25998Y441833D01*
Y442666D01*
X26831Y443499D01*
X25998Y444332D01*
Y445165D01*
X26831Y443499D02*
X28498D01*
X248332Y345165D02*
X247499Y345998D01*
X245833D01*
X245000Y345165D01*
Y341833D01*
X245833Y341000D01*
X247499D01*
X248332Y341833D01*
X249998D02*
X250831Y341000D01*
X252498D01*
X253331Y341833D01*
Y345165D01*
X252498Y345998D01*
X250831D01*
X249998Y345165D01*
Y344332D01*
X250831Y343499D01*
X253331D01*
X245332Y239165D02*
X244499Y239998D01*
X242833D01*
X242000Y239165D01*
Y235833D01*
X242833Y235000D01*
X244499D01*
X245332Y235833D01*
X246998Y235000D02*
X248664D01*
X247831D01*
Y239998D01*
X246998Y239165D01*
X251164D02*
X251997Y239998D01*
X253663D01*
X254496Y239165D01*
Y235833D01*
X253663Y235000D01*
X251997D01*
X251164Y235833D01*
Y239165D01*
X633332Y466165D02*
X632499Y466998D01*
X630833D01*
X630000Y466165D01*
Y462833D01*
X630833Y462000D01*
X632499D01*
X633332Y462833D01*
X634998Y462000D02*
X636665D01*
X635831D01*
Y466998D01*
X634998Y466165D01*
X639164Y462000D02*
X640830D01*
X639997D01*
Y466998D01*
X639164Y466165D01*
X391332Y52165D02*
X390499Y52998D01*
X388833D01*
X388000Y52165D01*
Y48833D01*
X388833Y48000D01*
X390499D01*
X391332Y48833D01*
X392998Y48000D02*
X394664D01*
X393831D01*
Y52998D01*
X392998Y52165D01*
X399663Y48000D02*
Y52998D01*
X397164Y50499D01*
X400496D01*
X302332Y61165D02*
X301499Y61998D01*
X299833D01*
X299000Y61165D01*
Y57833D01*
X299833Y57000D01*
X301499D01*
X302332Y57833D01*
X303998Y57000D02*
X305665D01*
X304831D01*
Y61998D01*
X303998Y61165D01*
X311496Y61998D02*
X308164D01*
Y59499D01*
X309830Y60332D01*
X310663D01*
X311496Y59499D01*
Y57833D01*
X310663Y57000D01*
X308997D01*
X308164Y57833D01*
X358332Y61165D02*
X357499Y61998D01*
X355833D01*
X355000Y61165D01*
Y57833D01*
X355833Y57000D01*
X357499D01*
X358332Y57833D01*
X359998Y57000D02*
X361665D01*
X360831D01*
Y61998D01*
X359998Y61165D01*
X367496Y61998D02*
X365830Y61165D01*
X364164Y59499D01*
Y57833D01*
X364997Y57000D01*
X366663D01*
X367496Y57833D01*
Y58666D01*
X366663Y59499D01*
X364164D01*
X31332Y523165D02*
X30499Y523998D01*
X28833D01*
X28000Y523165D01*
Y519833D01*
X28833Y519000D01*
X30499D01*
X31332Y519833D01*
X32998Y519000D02*
X34664D01*
X33831D01*
Y523998D01*
X32998Y523165D01*
X37164Y523998D02*
X40496D01*
Y523165D01*
X37164Y519833D01*
Y519000D01*
X454332Y229165D02*
X453499Y229998D01*
X451833D01*
X451000Y229165D01*
Y225833D01*
X451833Y225000D01*
X453499D01*
X454332Y225833D01*
X459331Y225000D02*
X455998D01*
X459331Y228332D01*
Y229165D01*
X458498Y229998D01*
X456831D01*
X455998Y229165D01*
X460997D02*
X461830Y229998D01*
X463496D01*
X464329Y229165D01*
Y225833D01*
X463496Y225000D01*
X461830D01*
X460997Y225833D01*
Y229165D01*
X402632Y101625D02*
X401799Y102458D01*
X400133D01*
X399300Y101625D01*
Y98293D01*
X400133Y97460D01*
X401799D01*
X402632Y98293D01*
X407631Y97460D02*
X404298D01*
X407631Y100792D01*
Y101625D01*
X406797Y102458D01*
X405131D01*
X404298Y101625D01*
X409297D02*
X410130Y102458D01*
X411796D01*
X412629Y101625D01*
Y100792D01*
X411796Y99959D01*
X410963D01*
X411796D01*
X412629Y99126D01*
Y98293D01*
X411796Y97460D01*
X410130D01*
X409297Y98293D01*
X445332Y101165D02*
X444499Y101998D01*
X442833D01*
X442000Y101165D01*
Y97833D01*
X442833Y97000D01*
X444499D01*
X445332Y97833D01*
X450331Y97000D02*
X446998D01*
X450331Y100332D01*
Y101165D01*
X449498Y101998D01*
X447831D01*
X446998Y101165D01*
X454496Y97000D02*
Y101998D01*
X451997Y99499D01*
X455329D01*
X416332Y252165D02*
X415499Y252998D01*
X413833D01*
X413000Y252165D01*
Y248833D01*
X413833Y248000D01*
X415499D01*
X416332Y248833D01*
X421331Y248000D02*
X417998D01*
X421331Y251332D01*
Y252165D01*
X420498Y252998D01*
X418831D01*
X417998Y252165D01*
X426329Y252998D02*
X422997D01*
Y250499D01*
X424663Y251332D01*
X425496D01*
X426329Y250499D01*
Y248833D01*
X425496Y248000D01*
X423830D01*
X422997Y248833D01*
X210332Y435165D02*
X209499Y435998D01*
X207833D01*
X207000Y435165D01*
Y431833D01*
X207833Y431000D01*
X209499D01*
X210332Y431833D01*
X215331Y431000D02*
X211998D01*
X215331Y434332D01*
Y435165D01*
X214498Y435998D01*
X212831D01*
X211998Y435165D01*
X220329Y435998D02*
X218663Y435165D01*
X216997Y433499D01*
Y431833D01*
X217830Y431000D01*
X219496D01*
X220329Y431833D01*
Y432666D01*
X219496Y433499D01*
X216997D01*
X455332Y253165D02*
X454499Y253998D01*
X452833D01*
X452000Y253165D01*
Y249833D01*
X452833Y249000D01*
X454499D01*
X455332Y249833D01*
X460331Y249000D02*
X456998D01*
X460331Y252332D01*
Y253165D01*
X459498Y253998D01*
X457831D01*
X456998Y253165D01*
X461997Y253998D02*
X465329D01*
Y253165D01*
X461997Y249833D01*
Y249000D01*
X658332Y128165D02*
X657499Y128998D01*
X655833D01*
X655000Y128165D01*
Y124833D01*
X655833Y124000D01*
X657499D01*
X658332Y124833D01*
X663331Y124000D02*
X659998D01*
X663331Y127332D01*
Y128165D01*
X662497Y128998D01*
X660831D01*
X659998Y128165D01*
X664997D02*
X665830Y128998D01*
X667496D01*
X668329Y128165D01*
Y127332D01*
X667496Y126499D01*
X668329Y125666D01*
Y124833D01*
X667496Y124000D01*
X665830D01*
X664997Y124833D01*
Y125666D01*
X665830Y126499D01*
X664997Y127332D01*
Y128165D01*
X665830Y126499D02*
X667496D01*
X213332Y192165D02*
X212499Y192998D01*
X210833D01*
X210000Y192165D01*
Y188833D01*
X210833Y188000D01*
X212499D01*
X213332Y188833D01*
X218331Y188000D02*
X214998D01*
X218331Y191332D01*
Y192165D01*
X217498Y192998D01*
X215831D01*
X214998Y192165D01*
X219997Y188833D02*
X220830Y188000D01*
X222496D01*
X223329Y188833D01*
Y192165D01*
X222496Y192998D01*
X220830D01*
X219997Y192165D01*
Y191332D01*
X220830Y190499D01*
X223329D01*
X57332Y295165D02*
X56499Y295998D01*
X54833D01*
X54000Y295165D01*
Y291833D01*
X54833Y291000D01*
X56499D01*
X57332Y291833D01*
X58998Y295165D02*
X59831Y295998D01*
X61498D01*
X62331Y295165D01*
Y294332D01*
X61498Y293499D01*
X60665D01*
X61498D01*
X62331Y292666D01*
Y291833D01*
X61498Y291000D01*
X59831D01*
X58998Y291833D01*
X63997Y295165D02*
X64830Y295998D01*
X66496D01*
X67329Y295165D01*
Y291833D01*
X66496Y291000D01*
X64830D01*
X63997Y291833D01*
Y295165D01*
X94332Y236165D02*
X93499Y236998D01*
X91833D01*
X91000Y236165D01*
Y232833D01*
X91833Y232000D01*
X93499D01*
X94332Y232833D01*
X95998Y236165D02*
X96831Y236998D01*
X98497D01*
X99331Y236165D01*
Y235332D01*
X98497Y234499D01*
X97664D01*
X98497D01*
X99331Y233666D01*
Y232833D01*
X98497Y232000D01*
X96831D01*
X95998Y232833D01*
X100997Y232000D02*
X102663D01*
X101830D01*
Y236998D01*
X100997Y236165D01*
X643332Y197165D02*
X642499Y197998D01*
X640833D01*
X640000Y197165D01*
Y193833D01*
X640833Y193000D01*
X642499D01*
X643332Y193833D01*
X644998Y197165D02*
X645831Y197998D01*
X647497D01*
X648331Y197165D01*
Y196332D01*
X647497Y195499D01*
X646665D01*
X647497D01*
X648331Y194666D01*
Y193833D01*
X647497Y193000D01*
X645831D01*
X644998Y193833D01*
X653329Y193000D02*
X649997D01*
X653329Y196332D01*
Y197165D01*
X652496Y197998D01*
X650830D01*
X649997Y197165D01*
X225332Y117165D02*
X224499Y117998D01*
X222833D01*
X222000Y117165D01*
Y113833D01*
X222833Y113000D01*
X224499D01*
X225332Y113833D01*
X226998Y117165D02*
X227831Y117998D01*
X229498D01*
X230331Y117165D01*
Y116332D01*
X229498Y115499D01*
X228664D01*
X229498D01*
X230331Y114666D01*
Y113833D01*
X229498Y113000D01*
X227831D01*
X226998Y113833D01*
X231997Y117165D02*
X232830Y117998D01*
X234496D01*
X235329Y117165D01*
Y116332D01*
X234496Y115499D01*
X233663D01*
X234496D01*
X235329Y114666D01*
Y113833D01*
X234496Y113000D01*
X232830D01*
X231997Y113833D01*
X191332Y192998D02*
X188000D01*
Y190499D01*
X189666D01*
X188000D01*
Y188000D01*
X192998Y192998D02*
Y188000D01*
X195498D01*
X196331Y188833D01*
Y189666D01*
X195498Y190499D01*
X192998D01*
X195498D01*
X196331Y191332D01*
Y192165D01*
X195498Y192998D01*
X192998D01*
X197997Y188000D02*
X199663D01*
X198830D01*
Y192998D01*
X197997Y192165D01*
X469332Y55998D02*
X466000D01*
Y53499D01*
X467666D01*
X466000D01*
Y51000D01*
X470998Y55998D02*
Y51000D01*
X473498D01*
X474331Y51833D01*
Y52666D01*
X473498Y53499D01*
X470998D01*
X473498D01*
X474331Y54332D01*
Y55165D01*
X473498Y55998D01*
X470998D01*
X479329Y51000D02*
X475997D01*
X479329Y54332D01*
Y55165D01*
X478496Y55998D01*
X476830D01*
X475997Y55165D01*
X403132Y79458D02*
X399800D01*
Y76959D01*
X401466D01*
X399800D01*
Y74460D01*
X404798Y79458D02*
Y74460D01*
X407298D01*
X408131Y75293D01*
Y76126D01*
X407298Y76959D01*
X404798D01*
X407298D01*
X408131Y77792D01*
Y78625D01*
X407298Y79458D01*
X404798D01*
X409797Y78625D02*
X410630Y79458D01*
X412296D01*
X413129Y78625D01*
Y77792D01*
X412296Y76959D01*
X411463D01*
X412296D01*
X413129Y76126D01*
Y75293D01*
X412296Y74460D01*
X410630D01*
X409797Y75293D01*
D93*
X584500Y381498D02*
Y374500D01*
X587999D01*
X589165Y375666D01*
Y380331D01*
X587999Y381498D01*
X584500D01*
X591498Y374500D02*
X593830D01*
X592664D01*
Y381498D01*
X591498Y380331D01*
X239500Y425498D02*
Y418500D01*
X242999D01*
X244165Y419666D01*
Y424331D01*
X242999Y425498D01*
X239500D01*
X251163Y418500D02*
X246498D01*
X251163Y423165D01*
Y424331D01*
X249997Y425498D01*
X247664D01*
X246498Y424331D01*
X238500Y405498D02*
Y398500D01*
X241999D01*
X243165Y399666D01*
Y404331D01*
X241999Y405498D01*
X238500D01*
X245498Y404331D02*
X246664Y405498D01*
X248997D01*
X250163Y404331D01*
Y403165D01*
X248997Y401999D01*
X247830D01*
X248997D01*
X250163Y400832D01*
Y399666D01*
X248997Y398500D01*
X246664D01*
X245498Y399666D01*
X239500Y387498D02*
Y380500D01*
X242999D01*
X244165Y381666D01*
Y386331D01*
X242999Y387498D01*
X239500D01*
X249997Y380500D02*
Y387498D01*
X246498Y383999D01*
X251163D01*
M02*
