G04*
G04 #@! TF.GenerationSoftware,Altium Limited,Altium Designer,20.2.5 (213)*
G04*
G04 Layer_Color=10517442*
%FSLAX44Y44*%
%MOMM*%
G71*
G04*
G04 #@! TF.SameCoordinates,D028A582-A43C-45AF-95F9-5D6BD50934B0*
G04*
G04*
G04 #@! TF.FilePolarity,Positive*
G04*
G01*
G75*
%ADD11C,0.2540*%
%ADD94C,1.0160*%
%ADD95C,0.1524*%
G36*
X497555Y739923D02*
X491302D01*
Y745706D01*
X497555D01*
Y739923D01*
D02*
G37*
G36*
X297880Y739923D02*
X291627D01*
Y745706D01*
X297880D01*
Y739923D01*
D02*
G37*
G36*
X424634Y737243D02*
X425151Y737149D01*
X425809Y737008D01*
X426515Y736773D01*
X427220Y736491D01*
X427972Y736068D01*
X425997Y730661D01*
X425950Y730708D01*
X425715Y730802D01*
X425433Y730990D01*
X425057Y731178D01*
X424587Y731366D01*
X424117Y731554D01*
X423600Y731648D01*
X423082Y731695D01*
X422894D01*
X422612Y731648D01*
X422330Y731601D01*
X422001Y731507D01*
X421625Y731366D01*
X421249Y731178D01*
X420873Y730943D01*
X420826Y730896D01*
X420732Y730802D01*
X420544Y730614D01*
X420355Y730332D01*
X420121Y730003D01*
X419885Y729533D01*
X419650Y728968D01*
X419462Y728310D01*
Y728216D01*
X419415Y728075D01*
X419368Y727934D01*
Y727699D01*
X419321Y727417D01*
X419274Y727041D01*
X419227Y726618D01*
X419180Y726147D01*
X419133Y725536D01*
X419086Y724925D01*
Y724173D01*
X419039Y723373D01*
X418992Y722480D01*
Y721493D01*
Y720412D01*
Y713171D01*
X412739D01*
Y736773D01*
X418522D01*
Y733435D01*
X418569Y733482D01*
X418757Y733764D01*
X419039Y734187D01*
X419415Y734704D01*
X419791Y735221D01*
X420261Y735739D01*
X420685Y736209D01*
X421155Y736538D01*
X421202Y736585D01*
X421343Y736679D01*
X421625Y736773D01*
X421954Y736914D01*
X422330Y737055D01*
X422800Y737196D01*
X423270Y737243D01*
X423835Y737290D01*
X424211D01*
X424634Y737243D01*
D02*
G37*
G36*
X518195Y737243D02*
X518712Y737196D01*
X519276Y737102D01*
X519887Y736961D01*
X520545Y736773D01*
X521204Y736538D01*
X521298Y736491D01*
X521486Y736397D01*
X521815Y736256D01*
X522191Y736021D01*
X522614Y735739D01*
X523037Y735409D01*
X523460Y735033D01*
X523836Y734610D01*
X523884Y734563D01*
X523978Y734422D01*
X524118Y734187D01*
X524307Y733858D01*
X524542Y733482D01*
X524730Y733012D01*
X524918Y732542D01*
X525059Y731977D01*
Y731930D01*
X525106Y731695D01*
X525200Y731366D01*
X525247Y730896D01*
X525341Y730332D01*
X525388Y729580D01*
X525435Y728780D01*
Y727793D01*
Y713171D01*
X519182D01*
Y725160D01*
Y725207D01*
Y725348D01*
Y725536D01*
Y725771D01*
Y726100D01*
Y726430D01*
X519135Y727229D01*
X519088Y728028D01*
X518994Y728874D01*
X518900Y729580D01*
X518853Y729862D01*
X518759Y730097D01*
Y730144D01*
X518665Y730285D01*
X518571Y730473D01*
X518430Y730755D01*
X518007Y731319D01*
X517771Y731601D01*
X517442Y731836D01*
X517395Y731883D01*
X517301Y731930D01*
X517113Y732024D01*
X516831Y732165D01*
X516502Y732307D01*
X516173Y732401D01*
X515750Y732448D01*
X515280Y732495D01*
X514997D01*
X514715Y732448D01*
X514339Y732401D01*
X513869Y732260D01*
X513399Y732118D01*
X512882Y731883D01*
X512365Y731601D01*
X512318Y731554D01*
X512177Y731460D01*
X511941Y731225D01*
X511660Y730990D01*
X511377Y730614D01*
X511095Y730238D01*
X510813Y729721D01*
X510625Y729203D01*
Y729156D01*
X510531Y728921D01*
X510484Y728545D01*
X510390Y727981D01*
X510343Y727652D01*
X510296Y727229D01*
X510249Y726806D01*
Y726289D01*
X510202Y725771D01*
X510155Y725160D01*
Y724502D01*
Y723797D01*
Y713171D01*
X503902D01*
Y736773D01*
X509685D01*
Y733294D01*
X509732Y733341D01*
X509826Y733482D01*
X510014Y733670D01*
X510249Y733905D01*
X510531Y734234D01*
X510907Y734563D01*
X511330Y734939D01*
X511800Y735315D01*
X512318Y735645D01*
X512929Y736021D01*
X513540Y736350D01*
X514245Y736679D01*
X514997Y736914D01*
X515750Y737102D01*
X516596Y737243D01*
X517442Y737290D01*
X517771D01*
X518195Y737243D01*
D02*
G37*
G36*
X278087Y737243D02*
X278604Y737196D01*
X279168Y737102D01*
X279779Y736961D01*
X280438Y736773D01*
X281096Y736538D01*
X281190Y736491D01*
X281378Y736397D01*
X281707Y736256D01*
X282083Y736021D01*
X282506Y735739D01*
X282929Y735409D01*
X283353Y735033D01*
X283729Y734610D01*
X283776Y734563D01*
X283870Y734422D01*
X284011Y734187D01*
X284199Y733858D01*
X284434Y733482D01*
X284622Y733012D01*
X284810Y732542D01*
X284951Y731977D01*
Y731930D01*
X284998Y731695D01*
X285092Y731366D01*
X285139Y730896D01*
X285233Y730332D01*
X285280Y729579D01*
X285327Y728780D01*
Y727793D01*
Y713171D01*
X279074D01*
Y725160D01*
Y725207D01*
Y725348D01*
Y725536D01*
Y725771D01*
Y726100D01*
Y726430D01*
X279027Y727229D01*
X278980Y728028D01*
X278886Y728874D01*
X278792Y729579D01*
X278745Y729862D01*
X278651Y730097D01*
Y730144D01*
X278557Y730285D01*
X278463Y730473D01*
X278322Y730755D01*
X277899Y731319D01*
X277664Y731601D01*
X277335Y731836D01*
X277288Y731883D01*
X277194Y731930D01*
X277006Y732024D01*
X276723Y732165D01*
X276394Y732306D01*
X276065Y732401D01*
X275642Y732448D01*
X275172Y732495D01*
X274890D01*
X274608Y732448D01*
X274232Y732401D01*
X273762Y732259D01*
X273291Y732118D01*
X272774Y731883D01*
X272257Y731601D01*
X272210Y731554D01*
X272069Y731460D01*
X271834Y731225D01*
X271552Y730990D01*
X271270Y730614D01*
X270988Y730238D01*
X270706Y729721D01*
X270518Y729203D01*
Y729156D01*
X270423Y728921D01*
X270376Y728545D01*
X270282Y727981D01*
X270235Y727652D01*
X270188Y727229D01*
X270141Y726806D01*
Y726289D01*
X270094Y725771D01*
X270047Y725160D01*
Y724502D01*
Y723797D01*
Y713171D01*
X263794D01*
Y736773D01*
X269577D01*
Y733294D01*
X269624Y733341D01*
X269718Y733482D01*
X269906Y733670D01*
X270141Y733905D01*
X270423Y734234D01*
X270800Y734563D01*
X271223Y734939D01*
X271693Y735315D01*
X272210Y735645D01*
X272821Y736021D01*
X273432Y736350D01*
X274138Y736679D01*
X274890Y736914D01*
X275642Y737102D01*
X276488Y737243D01*
X277335Y737290D01*
X277664D01*
X278087Y737243D01*
D02*
G37*
G36*
X314994D02*
X315370D01*
X315793Y737196D01*
X316264Y737149D01*
X316781Y737055D01*
X317862Y736820D01*
X318990Y736491D01*
X320119Y736021D01*
X321153Y735409D01*
X321200D01*
X321247Y735315D01*
X321388Y735221D01*
X321576Y735080D01*
X321999Y734657D01*
X322564Y734046D01*
X323175Y733247D01*
X323786Y732306D01*
X324350Y731178D01*
X324820Y729862D01*
X318661Y728733D01*
Y728827D01*
X318614Y729015D01*
X318520Y729344D01*
X318379Y729768D01*
X318144Y730191D01*
X317909Y730661D01*
X317580Y731084D01*
X317204Y731460D01*
X317157Y731507D01*
X317016Y731601D01*
X316781Y731742D01*
X316451Y731930D01*
X316028Y732118D01*
X315558Y732259D01*
X314994Y732354D01*
X314383Y732401D01*
X314289D01*
X314007Y732354D01*
X313584Y732306D01*
X313019Y732212D01*
X312455Y731977D01*
X311844Y731695D01*
X311233Y731319D01*
X310669Y730755D01*
X310622Y730661D01*
X310481Y730426D01*
X310245Y730050D01*
X310010Y729485D01*
X309728Y728733D01*
X309634Y728310D01*
X309540Y727840D01*
X309446Y727276D01*
X309352Y726712D01*
X309305Y726053D01*
Y725395D01*
Y725348D01*
Y725207D01*
Y724972D01*
X309352Y724690D01*
Y724361D01*
X309399Y723985D01*
X309493Y723044D01*
X309634Y722057D01*
X309916Y721070D01*
X310245Y720176D01*
X310481Y719800D01*
X310716Y719424D01*
X310763Y719330D01*
X310998Y719142D01*
X311280Y718907D01*
X311703Y718578D01*
X312267Y718249D01*
X312878Y718014D01*
X313631Y717826D01*
X314477Y717732D01*
X314759D01*
X315088Y717779D01*
X315511Y717873D01*
X315981Y717967D01*
X316451Y718155D01*
X316922Y718390D01*
X317392Y718719D01*
X317439Y718766D01*
X317580Y718907D01*
X317768Y719142D01*
X318050Y719518D01*
X318332Y719988D01*
X318567Y720600D01*
X318849Y721352D01*
X319037Y722198D01*
X325149Y721164D01*
Y721117D01*
X325102Y720976D01*
X325055Y720741D01*
X324961Y720459D01*
X324820Y720129D01*
X324679Y719706D01*
X324303Y718766D01*
X323833Y717732D01*
X323175Y716697D01*
X322375Y715663D01*
X321905Y715193D01*
X321435Y714770D01*
X321388D01*
X321294Y714676D01*
X321153Y714582D01*
X320965Y714441D01*
X320683Y714299D01*
X320354Y714111D01*
X319978Y713923D01*
X319508Y713735D01*
X319037Y713500D01*
X318473Y713312D01*
X317909Y713124D01*
X317251Y712983D01*
X316546Y712842D01*
X315793Y712748D01*
X315041Y712701D01*
X314195Y712654D01*
X313678D01*
X313349Y712701D01*
X312925Y712748D01*
X312408Y712842D01*
X311844Y712936D01*
X311233Y713077D01*
X310575Y713218D01*
X309916Y713453D01*
X309211Y713688D01*
X308553Y714017D01*
X307848Y714394D01*
X307190Y714817D01*
X306578Y715334D01*
X305967Y715898D01*
X305920Y715945D01*
X305826Y716039D01*
X305685Y716227D01*
X305497Y716509D01*
X305262Y716838D01*
X304980Y717215D01*
X304745Y717685D01*
X304463Y718249D01*
X304133Y718860D01*
X303898Y719518D01*
X303616Y720270D01*
X303381Y721070D01*
X303193Y721963D01*
X303052Y722856D01*
X302958Y723891D01*
X302911Y724925D01*
Y724972D01*
Y725160D01*
Y725489D01*
X302958Y725865D01*
X303005Y726383D01*
X303052Y726947D01*
X303146Y727558D01*
X303287Y728263D01*
X303663Y729721D01*
X303898Y730473D01*
X304181Y731225D01*
X304557Y731977D01*
X304980Y732683D01*
X305450Y733341D01*
X305967Y733999D01*
X306014Y734046D01*
X306108Y734140D01*
X306296Y734281D01*
X306531Y734516D01*
X306860Y734751D01*
X307236Y735033D01*
X307660Y735362D01*
X308177Y735645D01*
X308741Y735974D01*
X309352Y736256D01*
X310057Y736538D01*
X310810Y736773D01*
X311562Y737008D01*
X312455Y737149D01*
X313349Y737243D01*
X314289Y737290D01*
X314712D01*
X314994Y737243D01*
D02*
G37*
G36*
X196186D02*
X196562D01*
X196985Y737196D01*
X197456Y737149D01*
X197973Y737055D01*
X199054Y736820D01*
X200182Y736491D01*
X201311Y736021D01*
X202345Y735409D01*
X202392D01*
X202439Y735315D01*
X202580Y735221D01*
X202768Y735080D01*
X203191Y734657D01*
X203756Y734046D01*
X204367Y733247D01*
X204978Y732306D01*
X205542Y731178D01*
X206012Y729862D01*
X199853Y728733D01*
Y728827D01*
X199806Y729015D01*
X199712Y729344D01*
X199571Y729768D01*
X199336Y730191D01*
X199101Y730661D01*
X198772Y731084D01*
X198396Y731460D01*
X198349Y731507D01*
X198208Y731601D01*
X197973Y731742D01*
X197644Y731930D01*
X197220Y732118D01*
X196750Y732259D01*
X196186Y732354D01*
X195575Y732401D01*
X195481D01*
X195199Y732354D01*
X194776Y732306D01*
X194212Y732212D01*
X193647Y731977D01*
X193036Y731695D01*
X192425Y731319D01*
X191861Y730755D01*
X191814Y730661D01*
X191673Y730426D01*
X191438Y730050D01*
X191203Y729485D01*
X190920Y728733D01*
X190826Y728310D01*
X190732Y727840D01*
X190638Y727276D01*
X190544Y726712D01*
X190497Y726053D01*
Y725395D01*
Y725348D01*
Y725207D01*
Y724972D01*
X190544Y724690D01*
Y724361D01*
X190591Y723985D01*
X190685Y723044D01*
X190826Y722057D01*
X191108Y721070D01*
X191438Y720176D01*
X191673Y719800D01*
X191908Y719424D01*
X191955Y719330D01*
X192190Y719142D01*
X192472Y718907D01*
X192895Y718578D01*
X193459Y718249D01*
X194070Y718014D01*
X194823Y717826D01*
X195669Y717732D01*
X195951D01*
X196280Y717779D01*
X196703Y717873D01*
X197173Y717967D01*
X197644Y718155D01*
X198114Y718390D01*
X198584Y718719D01*
X198631Y718766D01*
X198772Y718907D01*
X198960Y719142D01*
X199242Y719518D01*
X199524Y719988D01*
X199759Y720600D01*
X200041Y721352D01*
X200229Y722198D01*
X206341Y721164D01*
Y721117D01*
X206294Y720976D01*
X206247Y720741D01*
X206153Y720459D01*
X206012Y720129D01*
X205871Y719706D01*
X205495Y718766D01*
X205025Y717732D01*
X204367Y716697D01*
X203568Y715663D01*
X203097Y715193D01*
X202627Y714770D01*
X202580D01*
X202486Y714676D01*
X202345Y714582D01*
X202157Y714441D01*
X201875Y714299D01*
X201546Y714111D01*
X201170Y713923D01*
X200700Y713735D01*
X200229Y713500D01*
X199665Y713312D01*
X199101Y713124D01*
X198443Y712983D01*
X197738Y712842D01*
X196985Y712748D01*
X196233Y712701D01*
X195387Y712654D01*
X194870Y712654D01*
X194541Y712701D01*
X194117Y712748D01*
X193600Y712842D01*
X193036Y712936D01*
X192425Y713077D01*
X191767Y713218D01*
X191108Y713453D01*
X190403Y713688D01*
X189745Y714017D01*
X189040Y714393D01*
X188382Y714817D01*
X187770Y715334D01*
X187159Y715898D01*
X187112Y715945D01*
X187018Y716039D01*
X186877Y716227D01*
X186689Y716509D01*
X186454Y716838D01*
X186172Y717215D01*
X185937Y717685D01*
X185655Y718249D01*
X185326Y718860D01*
X185091Y719518D01*
X184808Y720270D01*
X184573Y721070D01*
X184385Y721963D01*
X184244Y722856D01*
X184150Y723891D01*
X184103Y724925D01*
Y724972D01*
Y725160D01*
Y725489D01*
X184150Y725865D01*
X184197Y726383D01*
X184244Y726947D01*
X184338Y727558D01*
X184479Y728263D01*
X184855Y729721D01*
X185091Y730473D01*
X185373Y731225D01*
X185749Y731977D01*
X186172Y732682D01*
X186642Y733341D01*
X187159Y733999D01*
X187206Y734046D01*
X187300Y734140D01*
X187488Y734281D01*
X187723Y734516D01*
X188053Y734751D01*
X188429Y735033D01*
X188852Y735362D01*
X189369Y735645D01*
X189933Y735974D01*
X190544Y736256D01*
X191250Y736538D01*
X192002Y736773D01*
X192754Y737008D01*
X193647Y737149D01*
X194541Y737243D01*
X195481Y737290D01*
X195904D01*
X196186Y737243D01*
D02*
G37*
G36*
X153590Y713171D02*
X147525D01*
X147478Y738747D01*
X141084Y713171D01*
X134737D01*
X128343Y738747D01*
Y713171D01*
X122278D01*
Y745706D01*
X132104D01*
X137934Y723467D01*
X143717Y745706D01*
X153590D01*
Y713171D01*
D02*
G37*
G36*
X480441Y713171D02*
X474423D01*
X470380Y728310D01*
X466384Y713171D01*
X460319D01*
X452890Y736773D01*
X458908D01*
X463328Y721305D01*
X467418Y736773D01*
X473436D01*
X477338Y721305D01*
X481852Y736773D01*
X488011Y736773D01*
X480441Y713171D01*
D02*
G37*
G36*
X497555Y713171D02*
X491302D01*
Y736773D01*
X497555D01*
Y713171D01*
D02*
G37*
G36*
X440901Y737243D02*
X441277D01*
X442218Y737149D01*
X443205Y737055D01*
X444239Y736867D01*
X445227Y736585D01*
X445650Y736444D01*
X446073Y736256D01*
X446120D01*
X446167Y736209D01*
X446402Y736068D01*
X446778Y735880D01*
X447201Y735598D01*
X447719Y735221D01*
X448189Y734798D01*
X448612Y734281D01*
X448988Y733764D01*
X449035Y733670D01*
X449129Y733482D01*
X449270Y733059D01*
X449317Y732824D01*
X449411Y732495D01*
X449505Y732165D01*
X449552Y731742D01*
X449646Y731272D01*
X449693Y730755D01*
X449740Y730191D01*
X449787Y729580D01*
X449834Y728921D01*
Y728169D01*
X449740Y720882D01*
Y720835D01*
Y720741D01*
Y720600D01*
Y720365D01*
Y719800D01*
X449787Y719142D01*
Y718390D01*
X449881Y717638D01*
X449928Y716885D01*
X450022Y716274D01*
Y716227D01*
X450069Y716039D01*
X450163Y715710D01*
X450257Y715334D01*
X450445Y714864D01*
X450634Y714347D01*
X450868Y713782D01*
X451151Y713171D01*
X444992D01*
Y713218D01*
X444945Y713265D01*
X444898Y713453D01*
X444804Y713641D01*
X444710Y713876D01*
X444616Y714205D01*
X444521Y714582D01*
X444380Y715005D01*
Y715052D01*
X444333Y715099D01*
X444286Y715287D01*
X444192Y715522D01*
X444145Y715710D01*
X444051Y715663D01*
X443863Y715475D01*
X443534Y715193D01*
X443111Y714864D01*
X442594Y714488D01*
X442030Y714064D01*
X441371Y713735D01*
X440713Y713406D01*
X440619Y713359D01*
X440384Y713312D01*
X440008Y713171D01*
X439538Y713030D01*
X438974Y712889D01*
X438315Y712795D01*
X437563Y712701D01*
X436811Y712654D01*
X436482D01*
X436200Y712701D01*
X435918D01*
X435541Y712748D01*
X434742Y712889D01*
X433802Y713124D01*
X432862Y713453D01*
X431921Y713923D01*
X431075Y714582D01*
Y714629D01*
X430981Y714676D01*
X430746Y714958D01*
X430417Y715381D01*
X430041Y715945D01*
X429665Y716650D01*
X429336Y717497D01*
X429100Y718484D01*
X429053Y719001D01*
X429006Y719565D01*
Y719659D01*
Y719894D01*
X429053Y720270D01*
X429147Y720741D01*
X429241Y721305D01*
X429383Y721869D01*
X429618Y722480D01*
X429947Y723091D01*
X429994Y723186D01*
X430135Y723373D01*
X430323Y723656D01*
X430652Y723985D01*
X430981Y724361D01*
X431451Y724784D01*
X431968Y725160D01*
X432580Y725489D01*
X432674Y725536D01*
X432909Y725630D01*
X433285Y725771D01*
X433849Y726006D01*
X434554Y726242D01*
X435401Y726477D01*
X436435Y726712D01*
X437563Y726947D01*
X437610D01*
X437751Y726994D01*
X437986Y727041D01*
X438268Y727088D01*
X438644Y727135D01*
X439068Y727229D01*
X440008Y727464D01*
X440995Y727699D01*
X442030Y727934D01*
X442923Y728216D01*
X443346Y728357D01*
X443675Y728498D01*
Y729109D01*
Y729203D01*
Y729391D01*
X443628Y729721D01*
X443581Y730144D01*
X443440Y730567D01*
X443299Y730990D01*
X443064Y731366D01*
X442735Y731695D01*
X442688Y731742D01*
X442547Y731836D01*
X442312Y731930D01*
X441983Y732118D01*
X441512Y732259D01*
X440948Y732354D01*
X440243Y732448D01*
X439397Y732495D01*
X439115D01*
X438833Y732448D01*
X438456Y732401D01*
X438033Y732307D01*
X437563Y732212D01*
X437140Y732024D01*
X436764Y731789D01*
X436717Y731742D01*
X436623Y731648D01*
X436435Y731507D01*
X436247Y731272D01*
X435965Y730943D01*
X435730Y730520D01*
X435494Y730050D01*
X435259Y729485D01*
X429665Y730520D01*
Y730567D01*
X429712Y730661D01*
X429759Y730849D01*
X429853Y731084D01*
X429947Y731366D01*
X430088Y731695D01*
X430417Y732448D01*
X430887Y733247D01*
X431451Y734093D01*
X432109Y734892D01*
X432909Y735598D01*
X432956D01*
X433003Y735692D01*
X433144Y735739D01*
X433332Y735880D01*
X433614Y735974D01*
X433896Y736115D01*
X434272Y736303D01*
X434648Y736444D01*
X435118Y736585D01*
X435636Y736773D01*
X436200Y736914D01*
X436858Y737008D01*
X437516Y737149D01*
X438268Y737196D01*
X439021Y737290D01*
X440572D01*
X440901Y737243D01*
D02*
G37*
G36*
X393604Y745659D02*
X394497Y745612D01*
X395484Y745565D01*
X396519Y745424D01*
X397506Y745283D01*
X398399Y745048D01*
X398446D01*
X398540Y745001D01*
X398681Y744954D01*
X398870Y744907D01*
X399434Y744671D01*
X400092Y744342D01*
X400844Y743919D01*
X401690Y743402D01*
X402490Y742791D01*
X403289Y742039D01*
X403336D01*
X403383Y741945D01*
X403618Y741663D01*
X403994Y741192D01*
X404417Y740581D01*
X404935Y739829D01*
X405452Y738936D01*
X405969Y737901D01*
X406392Y736773D01*
Y736726D01*
X406439Y736632D01*
X406486Y736444D01*
X406580Y736209D01*
X406627Y735927D01*
X406721Y735551D01*
X406815Y735127D01*
X406956Y734657D01*
X407050Y734140D01*
X407144Y733529D01*
X407238Y732918D01*
X407285Y732212D01*
X407426Y730755D01*
X407473Y729109D01*
Y729062D01*
Y728921D01*
Y728733D01*
Y728451D01*
X407426Y728075D01*
Y727699D01*
X407379Y727229D01*
X407332Y726712D01*
X407238Y725630D01*
X407050Y724502D01*
X406768Y723326D01*
X406439Y722198D01*
Y722151D01*
X406392Y722057D01*
X406298Y721869D01*
X406204Y721587D01*
X406110Y721305D01*
X405922Y720976D01*
X405546Y720129D01*
X405075Y719236D01*
X404464Y718249D01*
X403759Y717309D01*
X402960Y716415D01*
X402866Y716321D01*
X402631Y716133D01*
X402255Y715851D01*
X401737Y715475D01*
X401079Y715052D01*
X400327Y714629D01*
X399387Y714205D01*
X398352Y713829D01*
X398305D01*
X398258Y713782D01*
X398117D01*
X397976Y713735D01*
X397459Y713641D01*
X396801Y713500D01*
X396002Y713359D01*
X395014Y713265D01*
X393839Y713218D01*
X392569Y713171D01*
X380251D01*
Y745706D01*
X393228D01*
X393604Y745659D01*
D02*
G37*
G36*
X361116Y713171D02*
X354863D01*
Y745706D01*
X361116D01*
Y713171D01*
D02*
G37*
G36*
X339818Y737243D02*
X340194Y737243D01*
X341135Y737149D01*
X342122Y737055D01*
X343156Y736867D01*
X344144Y736585D01*
X344567Y736444D01*
X344990Y736256D01*
X345037D01*
X345084Y736209D01*
X345319Y736068D01*
X345695Y735880D01*
X346118Y735598D01*
X346635Y735221D01*
X347106Y734798D01*
X347529Y734281D01*
X347905Y733764D01*
X347952Y733670D01*
X348046Y733482D01*
X348187Y733059D01*
X348234Y732824D01*
X348328Y732495D01*
X348422Y732165D01*
X348469Y731742D01*
X348563Y731272D01*
X348610Y730755D01*
X348657Y730191D01*
X348704Y729580D01*
X348751Y728921D01*
Y728169D01*
X348657Y720882D01*
Y720835D01*
Y720741D01*
Y720600D01*
Y720365D01*
Y719800D01*
X348704Y719142D01*
Y718390D01*
X348798Y717638D01*
X348845Y716885D01*
X348939Y716274D01*
Y716227D01*
X348986Y716039D01*
X349080Y715710D01*
X349174Y715334D01*
X349362Y714864D01*
X349550Y714347D01*
X349785Y713782D01*
X350067Y713171D01*
X343909D01*
Y713218D01*
X343862Y713265D01*
X343815Y713453D01*
X343720Y713641D01*
X343626Y713876D01*
X343532Y714205D01*
X343438Y714582D01*
X343297Y715005D01*
Y715052D01*
X343250Y715099D01*
X343203Y715287D01*
X343109Y715522D01*
X343062Y715710D01*
X342968Y715663D01*
X342780Y715475D01*
X342451Y715193D01*
X342028Y714864D01*
X341511Y714488D01*
X340947Y714064D01*
X340288Y713735D01*
X339630Y713406D01*
X339536Y713359D01*
X339301Y713312D01*
X338925Y713171D01*
X338455Y713030D01*
X337891Y712889D01*
X337232Y712795D01*
X336480Y712701D01*
X335728Y712654D01*
X335399D01*
X335117Y712701D01*
X334835D01*
X334458Y712748D01*
X333659Y712889D01*
X332719Y713124D01*
X331778Y713453D01*
X330838Y713923D01*
X329992Y714582D01*
Y714629D01*
X329898Y714676D01*
X329663Y714958D01*
X329334Y715381D01*
X328958Y715945D01*
X328582Y716650D01*
X328252Y717497D01*
X328017Y718484D01*
X327970Y719001D01*
X327923Y719565D01*
Y719659D01*
Y719894D01*
X327970Y720270D01*
X328064Y720741D01*
X328158Y721305D01*
X328299Y721869D01*
X328535Y722480D01*
X328864Y723091D01*
X328911Y723185D01*
X329052Y723373D01*
X329240Y723656D01*
X329569Y723985D01*
X329898Y724361D01*
X330368Y724784D01*
X330885Y725160D01*
X331496Y725489D01*
X331590Y725536D01*
X331825Y725630D01*
X332202Y725771D01*
X332766Y726006D01*
X333471Y726241D01*
X334317Y726477D01*
X335352Y726712D01*
X336480Y726947D01*
X336527D01*
X336668Y726994D01*
X336903Y727041D01*
X337185Y727088D01*
X337561Y727135D01*
X337985Y727229D01*
X338925Y727464D01*
X339912Y727699D01*
X340947Y727934D01*
X341840Y728216D01*
X342263Y728357D01*
X342592Y728498D01*
Y729109D01*
Y729203D01*
Y729391D01*
X342545Y729721D01*
X342498Y730144D01*
X342357Y730567D01*
X342216Y730990D01*
X341981Y731366D01*
X341652Y731695D01*
X341605Y731742D01*
X341464Y731836D01*
X341229Y731930D01*
X340900Y732118D01*
X340429Y732259D01*
X339865Y732354D01*
X339160Y732448D01*
X338314Y732495D01*
X338032D01*
X337749Y732448D01*
X337373Y732401D01*
X336950Y732306D01*
X336480Y732212D01*
X336057Y732024D01*
X335681Y731789D01*
X335634Y731742D01*
X335540Y731648D01*
X335352Y731507D01*
X335164Y731272D01*
X334882Y730943D01*
X334646Y730520D01*
X334411Y730050D01*
X334176Y729485D01*
X328582Y730520D01*
Y730567D01*
X328629Y730661D01*
X328675Y730849D01*
X328769Y731084D01*
X328864Y731366D01*
X329005Y731695D01*
X329334Y732448D01*
X329804Y733247D01*
X330368Y734093D01*
X331026Y734892D01*
X331825Y735598D01*
X331873D01*
X331920Y735692D01*
X332061Y735739D01*
X332249Y735880D01*
X332531Y735974D01*
X332813Y736115D01*
X333189Y736303D01*
X333565Y736444D01*
X334035Y736585D01*
X334552Y736773D01*
X335117Y736914D01*
X335775Y737008D01*
X336433Y737149D01*
X337185Y737196D01*
X337938Y737290D01*
X339489D01*
X339818Y737243D01*
D02*
G37*
G36*
X297880Y713171D02*
X291627D01*
Y736773D01*
X297880D01*
Y713171D01*
D02*
G37*
G36*
X248796Y737243D02*
X249172D01*
X250113Y737149D01*
X251100Y737055D01*
X252134Y736867D01*
X253122Y736585D01*
X253545Y736444D01*
X253968Y736256D01*
X254015D01*
X254062Y736209D01*
X254297Y736068D01*
X254673Y735880D01*
X255096Y735598D01*
X255614Y735221D01*
X256084Y734798D01*
X256507Y734281D01*
X256883Y733764D01*
X256930Y733670D01*
X257024Y733482D01*
X257165Y733059D01*
X257212Y732824D01*
X257306Y732495D01*
X257400Y732165D01*
X257447Y731742D01*
X257541Y731272D01*
X257588Y730755D01*
X257635Y730191D01*
X257682Y729579D01*
X257729Y728921D01*
Y728169D01*
X257635Y720882D01*
Y720835D01*
Y720741D01*
Y720600D01*
Y720365D01*
Y719800D01*
X257682Y719142D01*
Y718390D01*
X257776Y717638D01*
X257823Y716885D01*
X257917Y716274D01*
Y716227D01*
X257964Y716039D01*
X258058Y715710D01*
X258152Y715334D01*
X258340Y714864D01*
X258528Y714347D01*
X258764Y713782D01*
X259046Y713171D01*
X252887D01*
Y713218D01*
X252840Y713265D01*
X252793Y713453D01*
X252699Y713641D01*
X252605Y713876D01*
X252511Y714205D01*
X252416Y714582D01*
X252276Y715005D01*
Y715052D01*
X252229Y715099D01*
X252181Y715287D01*
X252087Y715522D01*
X252040Y715710D01*
X251946Y715663D01*
X251758Y715475D01*
X251429Y715193D01*
X251006Y714864D01*
X250489Y714488D01*
X249925Y714064D01*
X249266Y713735D01*
X248608Y713406D01*
X248514Y713359D01*
X248279Y713312D01*
X247903Y713171D01*
X247433Y713030D01*
X246869Y712889D01*
X246210Y712795D01*
X245458Y712701D01*
X244706Y712654D01*
X244377D01*
X244095Y712701D01*
X243813D01*
X243437Y712748D01*
X242637Y712889D01*
X241697Y713124D01*
X240757Y713453D01*
X239816Y713923D01*
X238970Y714582D01*
Y714629D01*
X238876Y714676D01*
X238641Y714958D01*
X238312Y715381D01*
X237936Y715945D01*
X237560Y716650D01*
X237231Y717497D01*
X236996Y718484D01*
X236949Y719001D01*
X236901Y719565D01*
Y719659D01*
Y719894D01*
X236949Y720270D01*
X237043Y720741D01*
X237136Y721305D01*
X237278Y721869D01*
X237513Y722480D01*
X237842Y723091D01*
X237889Y723185D01*
X238030Y723373D01*
X238218Y723656D01*
X238547Y723985D01*
X238876Y724361D01*
X239346Y724784D01*
X239863Y725160D01*
X240475Y725489D01*
X240569Y725536D01*
X240804Y725630D01*
X241180Y725771D01*
X241744Y726006D01*
X242449Y726241D01*
X243296Y726477D01*
X244330Y726712D01*
X245458Y726947D01*
X245505D01*
X245646Y726994D01*
X245881Y727041D01*
X246164Y727088D01*
X246540Y727135D01*
X246963Y727229D01*
X247903Y727464D01*
X248890Y727699D01*
X249925Y727934D01*
X250818Y728216D01*
X251241Y728357D01*
X251570Y728498D01*
Y729109D01*
Y729203D01*
Y729391D01*
X251523Y729721D01*
X251476Y730144D01*
X251335Y730567D01*
X251194Y730990D01*
X250959Y731366D01*
X250630Y731695D01*
X250583Y731742D01*
X250442Y731836D01*
X250207Y731930D01*
X249878Y732118D01*
X249408Y732259D01*
X248843Y732354D01*
X248138Y732448D01*
X247292Y732495D01*
X247010D01*
X246728Y732448D01*
X246352Y732401D01*
X245928Y732306D01*
X245458Y732212D01*
X245035Y732024D01*
X244659Y731789D01*
X244612Y731742D01*
X244518Y731648D01*
X244330Y731507D01*
X244142Y731272D01*
X243860Y730943D01*
X243625Y730520D01*
X243390Y730050D01*
X243155Y729485D01*
X237560Y730520D01*
Y730567D01*
X237607Y730661D01*
X237654Y730849D01*
X237748Y731084D01*
X237842Y731366D01*
X237983Y731695D01*
X238312Y732448D01*
X238782Y733247D01*
X239346Y734093D01*
X240005Y734892D01*
X240804Y735598D01*
X240851D01*
X240898Y735692D01*
X241039Y735739D01*
X241227Y735880D01*
X241509Y735974D01*
X241791Y736115D01*
X242167Y736303D01*
X242543Y736444D01*
X243013Y736585D01*
X243531Y736773D01*
X244095Y736914D01*
X244753Y737008D01*
X245411Y737149D01*
X246164Y737196D01*
X246916Y737290D01*
X248467D01*
X248796Y737243D01*
D02*
G37*
G36*
X216967Y733670D02*
X217014Y733717D01*
X217108Y733811D01*
X217296Y733999D01*
X217484Y734234D01*
X217813Y734516D01*
X218142Y734798D01*
X218566Y735127D01*
X218989Y735503D01*
X219506Y735833D01*
X220070Y736162D01*
X221292Y736726D01*
X221951Y736961D01*
X222656Y737149D01*
X223408Y737243D01*
X224160Y737290D01*
X224536D01*
X224960Y737243D01*
X225477Y737196D01*
X226088Y737102D01*
X226699Y736914D01*
X227404Y736726D01*
X228063Y736444D01*
X228157Y736397D01*
X228345Y736303D01*
X228674Y736115D01*
X229050Y735880D01*
X229473Y735598D01*
X229896Y735268D01*
X230319Y734845D01*
X230695Y734422D01*
X230742Y734375D01*
X230837Y734187D01*
X230977Y733952D01*
X231166Y733623D01*
X231401Y733200D01*
X231589Y732730D01*
X231777Y732212D01*
X231918Y731648D01*
Y731601D01*
X231965Y731366D01*
X232012Y730990D01*
X232106Y730520D01*
X232153Y729862D01*
X232200Y729062D01*
X232247Y728122D01*
Y726994D01*
Y713171D01*
X225994D01*
Y725583D01*
Y725630D01*
Y725724D01*
Y725912D01*
Y726194D01*
Y726477D01*
Y726806D01*
X225947Y727558D01*
X225900Y728357D01*
X225853Y729156D01*
X225759Y729815D01*
X225665Y730050D01*
X225618Y730285D01*
Y730332D01*
X225524Y730473D01*
X225430Y730614D01*
X225336Y730849D01*
X224912Y731366D01*
X224678Y731648D01*
X224348Y731883D01*
X224301Y731930D01*
X224207Y731977D01*
X223972Y732071D01*
X223737Y732212D01*
X223408Y732306D01*
X223032Y732401D01*
X222562Y732448D01*
X222092Y732495D01*
X221810D01*
X221527Y732448D01*
X221151Y732401D01*
X220728Y732306D01*
X220258Y732165D01*
X219788Y731977D01*
X219318Y731695D01*
X219271Y731648D01*
X219130Y731554D01*
X218895Y731366D01*
X218659Y731131D01*
X218330Y730802D01*
X218048Y730426D01*
X217766Y729956D01*
X217531Y729438D01*
Y729391D01*
X217437Y729156D01*
X217343Y728827D01*
X217249Y728310D01*
X217155Y727699D01*
X217061Y726900D01*
X217014Y726006D01*
X216967Y724972D01*
Y713171D01*
X210714D01*
Y745706D01*
X216967D01*
Y733670D01*
D02*
G37*
G36*
X170046Y737243D02*
X170469Y737196D01*
X170986Y737102D01*
X171550Y737008D01*
X172161Y736867D01*
X172819Y736679D01*
X173478Y736444D01*
X174183Y736162D01*
X174888Y735786D01*
X175546Y735409D01*
X176205Y734939D01*
X176863Y734375D01*
X177427Y733764D01*
X177474Y733717D01*
X177568Y733623D01*
X177709Y733388D01*
X177897Y733106D01*
X178132Y732729D01*
X178367Y732306D01*
X178649Y731742D01*
X178932Y731131D01*
X179214Y730426D01*
X179496Y729626D01*
X179731Y728780D01*
X179966Y727793D01*
X180154Y726759D01*
X180295Y725630D01*
X180389Y724455D01*
Y723138D01*
X164780D01*
Y723091D01*
Y722997D01*
Y722856D01*
X164827Y722668D01*
X164874Y722198D01*
X164968Y721540D01*
X165156Y720882D01*
X165438Y720129D01*
X165767Y719424D01*
X166237Y718813D01*
X166284Y718766D01*
X166519Y718578D01*
X166801Y718343D01*
X167225Y718061D01*
X167742Y717779D01*
X168400Y717544D01*
X169105Y717355D01*
X169858Y717309D01*
X170093D01*
X170375Y717355D01*
X170704Y717402D01*
X171080Y717497D01*
X171503Y717638D01*
X171926Y717826D01*
X172302Y718108D01*
X172349Y718155D01*
X172490Y718249D01*
X172678Y718437D01*
X172866Y718719D01*
X173149Y719095D01*
X173384Y719518D01*
X173619Y720082D01*
X173854Y720694D01*
X180060Y719659D01*
Y719612D01*
X180013Y719518D01*
X179919Y719330D01*
X179825Y719095D01*
X179684Y718813D01*
X179543Y718484D01*
X179119Y717732D01*
X178602Y716885D01*
X177944Y715992D01*
X177145Y715193D01*
X176252Y714441D01*
X176205D01*
X176158Y714346D01*
X175970Y714299D01*
X175781Y714158D01*
X175546Y714017D01*
X175217Y713876D01*
X174888Y713735D01*
X174465Y713547D01*
X173525Y713218D01*
X172443Y712936D01*
X171174Y712748D01*
X169811Y712654D01*
X169528D01*
X169246Y712701D01*
X168823D01*
X168306Y712795D01*
X167695Y712889D01*
X167037Y712983D01*
X166378Y713171D01*
X165626Y713359D01*
X164874Y713641D01*
X164122Y713970D01*
X163369Y714346D01*
X162617Y714817D01*
X161912Y715334D01*
X161301Y715945D01*
X160690Y716650D01*
X160643Y716697D01*
X160595Y716791D01*
X160501Y716979D01*
X160313Y717215D01*
X160172Y717544D01*
X159984Y717920D01*
X159749Y718343D01*
X159561Y718860D01*
X159326Y719424D01*
X159138Y720035D01*
X158903Y720694D01*
X158762Y721446D01*
X158621Y722198D01*
X158480Y722997D01*
X158433Y723891D01*
X158386Y724784D01*
Y724831D01*
Y725019D01*
Y725348D01*
X158433Y725771D01*
X158480Y726241D01*
X158527Y726806D01*
X158621Y727417D01*
X158762Y728122D01*
X159138Y729579D01*
X159373Y730332D01*
X159655Y731131D01*
X160031Y731883D01*
X160454Y732589D01*
X160925Y733294D01*
X161442Y733952D01*
X161489Y733999D01*
X161583Y734093D01*
X161771Y734281D01*
X162006Y734469D01*
X162288Y734704D01*
X162664Y734986D01*
X163087Y735315D01*
X163557Y735645D01*
X164075Y735927D01*
X164686Y736256D01*
X165297Y736538D01*
X166002Y736773D01*
X166707Y736961D01*
X167507Y737149D01*
X168306Y737243D01*
X169152Y737290D01*
X169669D01*
X170046Y737243D01*
D02*
G37*
G36*
X540715Y737243D02*
X541044D01*
X541373Y737149D01*
X541843Y737102D01*
X542313Y736961D01*
X542831Y736820D01*
X543395Y736585D01*
X543959Y736350D01*
X544570Y736021D01*
X545181Y735645D01*
X545793Y735221D01*
X546404Y734657D01*
X546968Y734093D01*
X547532Y733388D01*
Y736773D01*
X553362D01*
Y715569D01*
Y715522D01*
Y715381D01*
Y715193D01*
Y714911D01*
Y714535D01*
X553315Y714158D01*
X553268Y713265D01*
X553174Y712231D01*
X553080Y711197D01*
X552892Y710209D01*
X552798Y709786D01*
X552657Y709363D01*
X552610Y709269D01*
X552516Y709034D01*
X552375Y708658D01*
X552140Y708188D01*
X551858Y707670D01*
X551529Y707106D01*
X551152Y706589D01*
X550682Y706119D01*
X550635Y706072D01*
X550447Y705931D01*
X550165Y705696D01*
X549836Y705461D01*
X549366Y705179D01*
X548802Y704849D01*
X548143Y704567D01*
X547391Y704285D01*
X547297Y704238D01*
X547015Y704191D01*
X546592Y704050D01*
X545981Y703956D01*
X545181Y703815D01*
X544288Y703674D01*
X543254Y703627D01*
X542125Y703580D01*
X541561D01*
X541138Y703627D01*
X540668D01*
X540104Y703674D01*
X539493Y703768D01*
X538834Y703862D01*
X537424Y704097D01*
X536013Y704473D01*
X535355Y704708D01*
X534697Y704990D01*
X534133Y705273D01*
X533616Y705649D01*
X533569Y705696D01*
X533522Y705743D01*
X533240Y706025D01*
X532816Y706448D01*
X532393Y707059D01*
X531923Y707812D01*
X531500Y708705D01*
X531218Y709739D01*
X531171Y710303D01*
X531124Y710867D01*
Y710915D01*
Y711103D01*
Y711338D01*
X531171Y711620D01*
X538317Y710773D01*
Y710726D01*
X538364Y710585D01*
X538411Y710350D01*
X538458Y710115D01*
X538693Y709551D01*
X538881Y709269D01*
X539116Y709081D01*
X539164Y709034D01*
X539305Y708987D01*
X539493Y708846D01*
X539822Y708752D01*
X540198Y708611D01*
X540668Y708470D01*
X541232Y708423D01*
X541890Y708376D01*
X542313D01*
X542737Y708423D01*
X543254Y708470D01*
X543865Y708564D01*
X544476Y708705D01*
X545040Y708893D01*
X545558Y709128D01*
X545605Y709175D01*
X545699Y709222D01*
X545840Y709316D01*
X546028Y709504D01*
X546216Y709739D01*
X546404Y710021D01*
X546592Y710350D01*
X546780Y710726D01*
Y710773D01*
X546827Y710867D01*
X546874Y711056D01*
X546968Y711385D01*
X547015Y711761D01*
X547062Y712231D01*
X547109Y712842D01*
Y713547D01*
Y716980D01*
X547062Y716932D01*
X546968Y716838D01*
X546827Y716650D01*
X546592Y716368D01*
X546357Y716086D01*
X546028Y715757D01*
X545605Y715428D01*
X545181Y715099D01*
X544711Y714723D01*
X544147Y714394D01*
X542972Y713782D01*
X542313Y713547D01*
X541608Y713359D01*
X540856Y713218D01*
X540057Y713171D01*
X539869D01*
X539587Y713218D01*
X539258D01*
X538881Y713312D01*
X538411Y713406D01*
X537894Y713500D01*
X537330Y713688D01*
X536766Y713876D01*
X536155Y714158D01*
X535496Y714488D01*
X534885Y714864D01*
X534274Y715334D01*
X533663Y715851D01*
X533098Y716462D01*
X532534Y717168D01*
Y717215D01*
X532440Y717309D01*
X532346Y717497D01*
X532205Y717732D01*
X532017Y718061D01*
X531829Y718437D01*
X531641Y718860D01*
X531453Y719377D01*
X531265Y719894D01*
X531077Y720506D01*
X530889Y721164D01*
X530701Y721869D01*
X530466Y723374D01*
X530419Y724220D01*
X530372Y725066D01*
Y725113D01*
Y725348D01*
Y725630D01*
X530419Y726053D01*
X530466Y726524D01*
X530513Y727088D01*
X530607Y727746D01*
X530748Y728404D01*
X531077Y729909D01*
X531312Y730661D01*
X531547Y731413D01*
X531876Y732118D01*
X532252Y732871D01*
X532675Y733529D01*
X533192Y734140D01*
X533240Y734187D01*
X533334Y734281D01*
X533475Y734422D01*
X533710Y734657D01*
X533992Y734892D01*
X534321Y735127D01*
X534697Y735409D01*
X535167Y735739D01*
X535637Y736021D01*
X536202Y736303D01*
X537377Y736820D01*
X538082Y737008D01*
X538787Y737149D01*
X539540Y737243D01*
X540292Y737290D01*
X540480D01*
X540715Y737243D01*
D02*
G37*
%LPC*%
G36*
X443675Y724455D02*
X443628D01*
X443440Y724361D01*
X443158Y724314D01*
X442735Y724173D01*
X442218Y724032D01*
X441512Y723844D01*
X440760Y723656D01*
X439820Y723468D01*
X439726D01*
X439585Y723420D01*
X439397Y723373D01*
X438974Y723279D01*
X438410Y723139D01*
X437845Y722997D01*
X437281Y722809D01*
X436811Y722574D01*
X436435Y722386D01*
X436388Y722339D01*
X436247Y722245D01*
X436059Y722057D01*
X435871Y721822D01*
X435636Y721493D01*
X435448Y721117D01*
X435306Y720694D01*
X435259Y720223D01*
Y720176D01*
Y719988D01*
X435306Y719753D01*
X435401Y719471D01*
X435494Y719095D01*
X435636Y718719D01*
X435871Y718343D01*
X436200Y717967D01*
X436247Y717920D01*
X436388Y717826D01*
X436576Y717685D01*
X436905Y717497D01*
X437234Y717309D01*
X437657Y717168D01*
X438174Y717074D01*
X438692Y717027D01*
X438974D01*
X439303Y717074D01*
X439726Y717168D01*
X440243Y717309D01*
X440760Y717497D01*
X441371Y717732D01*
X441936Y718108D01*
X441983Y718155D01*
X442124Y718249D01*
X442312Y718437D01*
X442547Y718672D01*
X442782Y719001D01*
X443017Y719330D01*
X443252Y719753D01*
X443393Y720176D01*
Y720223D01*
X443440Y720318D01*
X443487Y720553D01*
X443534Y720835D01*
X443581Y721258D01*
X443628Y721775D01*
X443675Y722433D01*
Y723186D01*
Y724455D01*
D02*
G37*
G36*
X391112Y740205D02*
X386834D01*
Y718672D01*
X392617D01*
X393228Y718719D01*
X393886D01*
X394544Y718813D01*
X395155Y718860D01*
X395672Y718954D01*
X395766D01*
X395955Y719048D01*
X396237Y719142D01*
X396613Y719283D01*
X397036Y719471D01*
X397459Y719706D01*
X397882Y719988D01*
X398305Y720318D01*
X398352Y720365D01*
X398493Y720506D01*
X398681Y720741D01*
X398917Y721070D01*
X399152Y721493D01*
X399481Y722010D01*
X399716Y722668D01*
X399998Y723420D01*
Y723468D01*
X400045Y723515D01*
Y723656D01*
X400092Y723844D01*
X400186Y724032D01*
X400233Y724314D01*
X400374Y725019D01*
X400468Y725865D01*
X400609Y726853D01*
X400656Y728075D01*
X400703Y729391D01*
Y729438D01*
Y729580D01*
Y729768D01*
Y730003D01*
Y730332D01*
X400656Y730708D01*
X400609Y731507D01*
X400515Y732448D01*
X400421Y733435D01*
X400233Y734328D01*
X399998Y735174D01*
Y735221D01*
X399951Y735268D01*
X399857Y735503D01*
X399716Y735880D01*
X399528Y736350D01*
X399246Y736820D01*
X398917Y737337D01*
X398540Y737854D01*
X398117Y738324D01*
X398070Y738371D01*
X397929Y738512D01*
X397647Y738701D01*
X397318Y738936D01*
X396848Y739218D01*
X396331Y739453D01*
X395766Y739688D01*
X395108Y739876D01*
X395061D01*
X394826Y739923D01*
X394450Y739970D01*
X393933Y740064D01*
X393604D01*
X393181Y740111D01*
X392757D01*
X392287Y740158D01*
X391723D01*
X391112Y740205D01*
D02*
G37*
G36*
X342592Y724455D02*
X342545D01*
X342357Y724361D01*
X342075Y724314D01*
X341652Y724173D01*
X341135Y724032D01*
X340429Y723844D01*
X339677Y723656D01*
X338737Y723467D01*
X338643D01*
X338502Y723420D01*
X338314Y723373D01*
X337891Y723279D01*
X337326Y723138D01*
X336762Y722997D01*
X336198Y722809D01*
X335728Y722574D01*
X335352Y722386D01*
X335305Y722339D01*
X335164Y722245D01*
X334976Y722057D01*
X334787Y721822D01*
X334552Y721493D01*
X334364Y721117D01*
X334223Y720694D01*
X334176Y720223D01*
Y720176D01*
Y719988D01*
X334223Y719753D01*
X334317Y719471D01*
X334411Y719095D01*
X334552Y718719D01*
X334787Y718343D01*
X335117Y717967D01*
X335164Y717920D01*
X335305Y717826D01*
X335493Y717685D01*
X335822Y717497D01*
X336151Y717309D01*
X336574Y717168D01*
X337091Y717073D01*
X337608Y717026D01*
X337891D01*
X338220Y717073D01*
X338643Y717168D01*
X339160Y717309D01*
X339677Y717497D01*
X340288Y717732D01*
X340853Y718108D01*
X340900Y718155D01*
X341041Y718249D01*
X341229Y718437D01*
X341464Y718672D01*
X341699Y719001D01*
X341934Y719330D01*
X342169Y719753D01*
X342310Y720176D01*
Y720223D01*
X342357Y720318D01*
X342404Y720553D01*
X342451Y720835D01*
X342498Y721258D01*
X342545Y721775D01*
X342592Y722433D01*
Y723186D01*
Y724455D01*
D02*
G37*
G36*
X251570Y724455D02*
X251523D01*
X251335Y724361D01*
X251053Y724314D01*
X250630Y724173D01*
X250113Y724032D01*
X249408Y723844D01*
X248655Y723656D01*
X247715Y723467D01*
X247621D01*
X247480Y723420D01*
X247292Y723373D01*
X246869Y723279D01*
X246304Y723138D01*
X245740Y722997D01*
X245176Y722809D01*
X244706Y722574D01*
X244330Y722386D01*
X244283Y722339D01*
X244142Y722245D01*
X243954Y722057D01*
X243766Y721822D01*
X243531Y721493D01*
X243343Y721117D01*
X243202Y720694D01*
X243155Y720223D01*
Y720176D01*
Y719988D01*
X243202Y719753D01*
X243296Y719471D01*
X243390Y719095D01*
X243531Y718719D01*
X243766Y718343D01*
X244095Y717967D01*
X244142Y717920D01*
X244283Y717826D01*
X244471Y717685D01*
X244800Y717497D01*
X245129Y717309D01*
X245552Y717168D01*
X246070Y717073D01*
X246587Y717026D01*
X246869D01*
X247198Y717073D01*
X247621Y717168D01*
X248138Y717309D01*
X248655Y717497D01*
X249266Y717732D01*
X249831Y718108D01*
X249878Y718155D01*
X250019Y718249D01*
X250207Y718437D01*
X250442Y718672D01*
X250677Y719001D01*
X250912Y719330D01*
X251147Y719753D01*
X251288Y720176D01*
Y720223D01*
X251335Y720318D01*
X251382Y720553D01*
X251429Y720835D01*
X251476Y721258D01*
X251523Y721775D01*
X251570Y722433D01*
Y723185D01*
Y724455D01*
D02*
G37*
G36*
X169528Y732495D02*
X169199D01*
X168823Y732400D01*
X168353Y732306D01*
X167836Y732118D01*
X167272Y731883D01*
X166707Y731507D01*
X166190Y730990D01*
X166143Y730943D01*
X166002Y730708D01*
X165767Y730379D01*
X165532Y729909D01*
X165250Y729344D01*
X165062Y728639D01*
X164921Y727840D01*
X164874Y726947D01*
X174183D01*
Y726994D01*
Y727088D01*
Y727182D01*
X174136Y727370D01*
X174089Y727887D01*
X173995Y728451D01*
X173807Y729109D01*
X173572Y729815D01*
X173196Y730473D01*
X172773Y731037D01*
X172725Y731084D01*
X172537Y731272D01*
X172255Y731507D01*
X171879Y731789D01*
X171409Y732024D01*
X170845Y732259D01*
X170234Y732448D01*
X169528Y732495D01*
D02*
G37*
G36*
X541890Y732495D02*
X541796D01*
X541514Y732448D01*
X541091Y732401D01*
X540574Y732260D01*
X540010Y732071D01*
X539352Y731742D01*
X538740Y731319D01*
X538176Y730708D01*
X538129Y730614D01*
X537941Y730379D01*
X537753Y729956D01*
X537471Y729391D01*
X537236Y728639D01*
X537001Y727746D01*
X536813Y726665D01*
X536766Y725395D01*
Y725348D01*
Y725254D01*
Y725019D01*
X536813Y724784D01*
Y724502D01*
X536860Y724126D01*
X536954Y723326D01*
X537095Y722433D01*
X537377Y721540D01*
X537706Y720694D01*
X538176Y719941D01*
X538223Y719847D01*
X538458Y719659D01*
X538740Y719377D01*
X539164Y719095D01*
X539681Y718766D01*
X540292Y718484D01*
X540997Y718296D01*
X541749Y718202D01*
X541843D01*
X542125Y718249D01*
X542549Y718296D01*
X543113Y718437D01*
X543724Y718625D01*
X544335Y718954D01*
X544993Y719377D01*
X545605Y719988D01*
X545652Y720082D01*
X545840Y720318D01*
X546122Y720741D01*
X546404Y721305D01*
X546686Y722057D01*
X546968Y722950D01*
X547156Y724032D01*
X547203Y725254D01*
Y725301D01*
Y725395D01*
Y725583D01*
Y725865D01*
X547156Y726148D01*
X547109Y726524D01*
X547015Y727323D01*
X546827Y728216D01*
X546592Y729109D01*
X546216Y729956D01*
X545699Y730708D01*
X545652Y730802D01*
X545416Y730990D01*
X545087Y731272D01*
X544664Y731601D01*
X544100Y731930D01*
X543442Y732213D01*
X542737Y732401D01*
X541890Y732495D01*
D02*
G37*
%LPD*%
D11*
X-149860Y355600D02*
X-144780Y340360D01*
X-154940D02*
X-149860Y355600D01*
X-154940Y15240D02*
X-149860Y0D01*
X-144780Y15240D01*
X-149860Y243819D02*
Y355600D01*
Y0D02*
Y103653D01*
X-152400Y355600D02*
X636780D01*
X-152400Y0D02*
X-7620D01*
X-73660Y76200D02*
X-68580Y60960D01*
X-78740D02*
X-73660Y76200D01*
X-78740Y15240D02*
X-73660Y0D01*
X-68580Y15240D01*
X-73660Y38100D02*
Y76200D01*
Y0D02*
Y38100D01*
X-76200Y76200D02*
X636780D01*
X-76200Y0D02*
X-7620D01*
X-33020Y40640D02*
X-27940Y25400D01*
X-22860Y40640D01*
X-27940Y0D02*
X-22860Y-15240D01*
X-33020D02*
X-27940Y0D01*
Y25400D02*
Y50800D01*
Y-25400D02*
Y0D01*
X-30480D02*
X-7620D01*
X-30480Y25400D02*
X116080D01*
X645160Y-129540D02*
X660400Y-124460D01*
X645160Y-119380D02*
X660400Y-124460D01*
X0D02*
X15240Y-119380D01*
X0Y-124460D02*
X15240Y-129540D01*
X397488Y-124460D02*
X660400D01*
X0D02*
X254784D01*
X660400Y-127000D02*
Y332740D01*
X0Y-127000D02*
Y-7620D01*
X137160Y-104140D02*
X152400Y-99060D01*
X137160Y-93980D02*
X152400Y-99060D01*
X0D02*
X15240Y-93980D01*
X0Y-99060D02*
X15240Y-104140D01*
X135871Y-99060D02*
X152400D01*
X0D02*
X8401D01*
X152400Y-101600D02*
Y484380D01*
X0Y-101600D02*
Y-7620D01*
X-15240Y-48260D02*
X0Y-43180D01*
X-15240Y-38100D02*
X0Y-43180D01*
X139700D02*
X154940Y-38100D01*
X139700Y-43180D02*
X154940Y-48260D01*
X-25400Y-43180D02*
X0D01*
X139700D02*
X165100D01*
X139700Y-45720D02*
Y17780D01*
X0Y-45720D02*
Y-7620D01*
Y-152400D02*
X15240Y-147320D01*
X0Y-152400D02*
X15240Y-157480D01*
X670560D02*
X685800Y-152400D01*
X670560Y-147320D02*
X685800Y-152400D01*
X0D02*
X267484D01*
X410188D02*
X685800D01*
X0Y-154940D02*
Y-7620D01*
X685800Y-154940D02*
Y-7620D01*
X-233680Y15240D02*
X-228600Y0D01*
X-223520Y15240D01*
X-228600Y533400D02*
X-223520Y518160D01*
X-233680D02*
X-228600Y533400D01*
Y0D02*
Y192553D01*
Y332719D02*
Y533400D01*
X-231140Y0D02*
X-7620D01*
X-231140Y533400D02*
X-7620D01*
D94*
X168400Y508000D02*
G03*
X168400Y508000I-16000J0D01*
G01*
X676400Y355600D02*
G03*
X676400Y355600I-16000J0D01*
G01*
Y76200D02*
G03*
X676400Y76200I-16000J0D01*
G01*
X155700Y25400D02*
G03*
X155700Y25400I-16000J0D01*
G01*
X0Y0D02*
Y533400D01*
X685800D01*
Y0D02*
Y533400D01*
X0Y0D02*
X685800D01*
D95*
X-140718Y107717D02*
Y112796D01*
Y110257D01*
X-155954D01*
X-153414Y107717D01*
X-140718Y128031D02*
X-155954D01*
X-148336Y120413D01*
Y130570D01*
X-153414Y135648D02*
X-155954Y138188D01*
Y143266D01*
X-153414Y145805D01*
X-143258D01*
X-140718Y143266D01*
Y138188D01*
X-143258Y135648D01*
X-153414D01*
Y150883D02*
X-155954Y153423D01*
Y158501D01*
X-153414Y161040D01*
X-143258D01*
X-140718Y158501D01*
Y153423D01*
X-143258Y150883D01*
X-153414D01*
X-140718Y186432D02*
X-145797Y181353D01*
X-150875D01*
X-155954Y186432D01*
X-140718Y194049D02*
X-150875D01*
Y196589D01*
X-148336Y199128D01*
X-140718D01*
X-148336D01*
X-150875Y201667D01*
X-148336Y204206D01*
X-140718D01*
Y209284D02*
Y214363D01*
Y211824D01*
X-150875D01*
Y209284D01*
X-140718Y221980D02*
Y227059D01*
Y224520D01*
X-155954D01*
Y221980D01*
X-140718Y234676D02*
X-145797Y239755D01*
X-150875D01*
X-155954Y234676D01*
X-77214Y-124929D02*
X-79753Y-122390D01*
Y-117312D01*
X-77214Y-114773D01*
X-74675D01*
X-72136Y-117312D01*
Y-119851D01*
Y-117312D01*
X-69597Y-114773D01*
X-67058D01*
X-64518Y-117312D01*
Y-122390D01*
X-67058Y-124929D01*
X-77214Y-109694D02*
X-79753Y-107155D01*
Y-102077D01*
X-77214Y-99538D01*
X-67058D01*
X-64518Y-102077D01*
Y-107155D01*
X-67058Y-109694D01*
X-77214D01*
Y-94459D02*
X-79753Y-91920D01*
Y-86842D01*
X-77214Y-84303D01*
X-67058D01*
X-64518Y-86842D01*
Y-91920D01*
X-67058Y-94459D01*
X-77214D01*
X-64518Y-58911D02*
X-69597Y-63989D01*
X-74675D01*
X-79753Y-58911D01*
X-64518Y-51293D02*
X-74675D01*
Y-48754D01*
X-72136Y-46215D01*
X-64518D01*
X-72136D01*
X-74675Y-43676D01*
X-72136Y-41136D01*
X-64518D01*
Y-36058D02*
Y-30980D01*
Y-33519D01*
X-74675D01*
Y-36058D01*
X-64518Y-23362D02*
Y-18284D01*
Y-20823D01*
X-79753D01*
Y-23362D01*
X-64518Y-10666D02*
X-69597Y-5588D01*
X-74675D01*
X-79753Y-10666D01*
X-18799Y-147790D02*
Y-142712D01*
Y-145251D01*
X-34034D01*
X-31494Y-147790D01*
Y-135094D02*
X-34034Y-132555D01*
Y-127477D01*
X-31494Y-124938D01*
X-21338D01*
X-18799Y-127477D01*
Y-132555D01*
X-21338Y-135094D01*
X-31494D01*
Y-119859D02*
X-34034Y-117320D01*
Y-112242D01*
X-31494Y-109703D01*
X-21338D01*
X-18799Y-112242D01*
Y-117320D01*
X-21338Y-119859D01*
X-31494D01*
X-18799Y-84311D02*
X-23877Y-89389D01*
X-28955D01*
X-34034Y-84311D01*
X-18799Y-76693D02*
X-28955D01*
Y-74154D01*
X-26416Y-71615D01*
X-18799D01*
X-26416D01*
X-28955Y-69076D01*
X-26416Y-66536D01*
X-18799D01*
Y-61458D02*
Y-56380D01*
Y-58919D01*
X-28955D01*
Y-61458D01*
X-18799Y-48762D02*
Y-43684D01*
Y-46223D01*
X-34034D01*
Y-48762D01*
X-18799Y-36066D02*
X-23877Y-30988D01*
X-28955D01*
X-34034Y-36066D01*
X269004Y-133602D02*
X258848D01*
X269004Y-123445D01*
Y-120906D01*
X266465Y-118366D01*
X261387D01*
X258848Y-120906D01*
X284240Y-118366D02*
X279161Y-120906D01*
X274083Y-125984D01*
Y-131062D01*
X276622Y-133602D01*
X281700D01*
X284240Y-131062D01*
Y-128523D01*
X281700Y-125984D01*
X274083D01*
X289318Y-120906D02*
X291857Y-118366D01*
X296935D01*
X299475Y-120906D01*
Y-131062D01*
X296935Y-133602D01*
X291857D01*
X289318Y-131062D01*
Y-120906D01*
X304553D02*
X307092Y-118366D01*
X312171D01*
X314710Y-120906D01*
Y-131062D01*
X312171Y-133602D01*
X307092D01*
X304553Y-131062D01*
Y-120906D01*
X340102Y-133602D02*
X335023Y-128523D01*
Y-123445D01*
X340102Y-118366D01*
X347719Y-133602D02*
Y-123445D01*
X350258D01*
X352797Y-125984D01*
Y-133602D01*
Y-125984D01*
X355337Y-123445D01*
X357876Y-125984D01*
Y-133602D01*
X362954D02*
X368032D01*
X365493D01*
Y-123445D01*
X362954D01*
X375650Y-133602D02*
X380728D01*
X378189D01*
Y-118366D01*
X375650D01*
X388346Y-133602D02*
X393424Y-128523D01*
Y-123445D01*
X388346Y-118366D01*
X22622Y-92966D02*
X17544Y-95506D01*
X12465Y-100584D01*
Y-105662D01*
X15005Y-108202D01*
X20083D01*
X22622Y-105662D01*
Y-103123D01*
X20083Y-100584D01*
X12465D01*
X27700Y-95506D02*
X30240Y-92966D01*
X35318D01*
X37857Y-95506D01*
Y-105662D01*
X35318Y-108202D01*
X30240D01*
X27700Y-105662D01*
Y-95506D01*
X42935D02*
X45475Y-92966D01*
X50553D01*
X53092Y-95506D01*
Y-105662D01*
X50553Y-108202D01*
X45475D01*
X42935Y-105662D01*
Y-95506D01*
X78484Y-108202D02*
X73406Y-103123D01*
Y-98045D01*
X78484Y-92966D01*
X86102Y-108202D02*
Y-98045D01*
X88641D01*
X91180Y-100584D01*
Y-108202D01*
Y-100584D01*
X93719Y-98045D01*
X96258Y-100584D01*
Y-108202D01*
X101337D02*
X106415D01*
X103876D01*
Y-98045D01*
X101337D01*
X114032Y-108202D02*
X119111D01*
X116572D01*
Y-92966D01*
X114032D01*
X126728Y-108202D02*
X131807Y-103123D01*
Y-98045D01*
X126728Y-92966D01*
X177797Y-37087D02*
X167640D01*
Y-44704D01*
X172718Y-42165D01*
X175257D01*
X177797Y-44704D01*
Y-49782D01*
X175257Y-52322D01*
X170179D01*
X167640Y-49782D01*
X193032Y-37087D02*
X182875D01*
Y-44704D01*
X187953Y-42165D01*
X190493D01*
X193032Y-44704D01*
Y-49782D01*
X190493Y-52322D01*
X185414D01*
X182875Y-49782D01*
X198110Y-39626D02*
X200649Y-37087D01*
X205728D01*
X208267Y-39626D01*
Y-49782D01*
X205728Y-52322D01*
X200649D01*
X198110Y-49782D01*
Y-39626D01*
X233659Y-52322D02*
X228580Y-47243D01*
Y-42165D01*
X233659Y-37087D01*
X241276Y-52322D02*
Y-42165D01*
X243815D01*
X246355Y-44704D01*
Y-52322D01*
Y-44704D01*
X248894Y-42165D01*
X251433Y-44704D01*
Y-52322D01*
X256511D02*
X261590D01*
X259050D01*
Y-42165D01*
X256511D01*
X269207Y-52322D02*
X274286D01*
X271746D01*
Y-37087D01*
X269207D01*
X281903Y-52322D02*
X286981Y-47243D01*
Y-42165D01*
X281903Y-37087D01*
X281705Y-161542D02*
X271548D01*
X281705Y-151385D01*
Y-148846D01*
X279165Y-146306D01*
X274087D01*
X271548Y-148846D01*
X286783Y-146306D02*
X296940D01*
Y-148846D01*
X286783Y-159002D01*
Y-161542D01*
X302018Y-148846D02*
X304557Y-146306D01*
X309635D01*
X312175Y-148846D01*
Y-159002D01*
X309635Y-161542D01*
X304557D01*
X302018Y-159002D01*
Y-148846D01*
X317253D02*
X319792Y-146306D01*
X324870D01*
X327410Y-148846D01*
Y-159002D01*
X324870Y-161542D01*
X319792D01*
X317253Y-159002D01*
Y-148846D01*
X352802Y-161542D02*
X347723Y-156463D01*
Y-151385D01*
X352802Y-146306D01*
X360419Y-161542D02*
Y-151385D01*
X362958D01*
X365497Y-153924D01*
Y-161542D01*
Y-153924D01*
X368037Y-151385D01*
X370576Y-153924D01*
Y-161542D01*
X375654D02*
X380732D01*
X378193D01*
Y-151385D01*
X375654D01*
X388350Y-161542D02*
X393428D01*
X390889D01*
Y-146306D01*
X388350D01*
X401046Y-161542D02*
X406124Y-156463D01*
Y-151385D01*
X401046Y-146306D01*
X-219459Y206774D02*
Y196617D01*
X-229615Y206774D01*
X-232154D01*
X-234694Y204235D01*
Y199156D01*
X-232154Y196617D01*
X-219459Y211852D02*
Y216931D01*
Y214392D01*
X-234694D01*
X-232154Y211852D01*
Y224548D02*
X-234694Y227087D01*
Y232166D01*
X-232154Y234705D01*
X-221998D01*
X-219459Y232166D01*
Y227087D01*
X-221998Y224548D01*
X-232154D01*
Y239783D02*
X-234694Y242323D01*
Y247401D01*
X-232154Y249940D01*
X-221998D01*
X-219459Y247401D01*
Y242323D01*
X-221998Y239783D01*
X-232154D01*
X-219459Y275332D02*
X-224537Y270254D01*
X-229615D01*
X-234694Y275332D01*
X-219459Y282949D02*
X-229615D01*
Y285489D01*
X-227076Y288028D01*
X-219459D01*
X-227076D01*
X-229615Y290567D01*
X-227076Y293106D01*
X-219459D01*
Y298185D02*
Y303263D01*
Y300724D01*
X-229615D01*
Y298185D01*
X-219459Y310880D02*
Y315959D01*
Y313420D01*
X-234694D01*
Y310880D01*
X-219459Y323576D02*
X-224537Y328655D01*
X-229615D01*
X-234694Y323576D01*
M02*
