G04*
G04 #@! TF.GenerationSoftware,Altium Limited,Altium Designer,20.2.5 (213)*
G04*
G04 Layer_Physical_Order=2*
G04 Layer_Color=16711680*
%FSLAX44Y44*%
%MOMM*%
G71*
G04*
G04 #@! TF.SameCoordinates,D028A582-A43C-45AF-95F9-5D6BD50934B0*
G04*
G04*
G04 #@! TF.FilePolarity,Positive*
G04*
G01*
G75*
%ADD26R,1.9000X1.9000*%
%ADD63R,1.9000X1.9000*%
%ADD64C,1.9000*%
%ADD71C,0.3000*%
%ADD73C,0.6000*%
%ADD74C,0.4000*%
%ADD75C,1.0000*%
%ADD78C,3.2000*%
%ADD79C,4.0000*%
%ADD80R,1.0000X2.0000*%
%ADD81O,1.0000X2.0000*%
%ADD82O,2.0000X1.0000*%
%ADD83R,2.0000X1.0000*%
%ADD84C,7.4000*%
%ADD85R,1.7000X1.7000*%
%ADD86C,1.7000*%
%ADD87R,1.4000X2.0000*%
%ADD88O,1.4000X2.0000*%
G04:AMPARAMS|DCode=89|XSize=2mm|YSize=1.2mm|CornerRadius=0.3mm|HoleSize=0mm|Usage=FLASHONLY|Rotation=0.000|XOffset=0mm|YOffset=0mm|HoleType=Round|Shape=RoundedRectangle|*
%AMROUNDEDRECTD89*
21,1,2.0000,0.6000,0,0,0.0*
21,1,1.4000,1.2000,0,0,0.0*
1,1,0.6000,0.7000,-0.3000*
1,1,0.6000,-0.7000,-0.3000*
1,1,0.6000,-0.7000,0.3000*
1,1,0.6000,0.7000,0.3000*
%
%ADD89ROUNDEDRECTD89*%
%ADD90C,0.6000*%
G36*
X683191Y1152D02*
X395191Y1152D01*
X394039Y3952D01*
Y38000D01*
X395961Y40011D01*
X396412Y40279D01*
X453164D01*
X455697Y39150D01*
Y39150D01*
D01*
X455819Y37279D01*
X455661Y37258D01*
X455373Y37220D01*
X453670Y36514D01*
X452208Y35392D01*
X451086Y33930D01*
X450380Y32227D01*
X450140Y30400D01*
Y20400D01*
X450380Y18573D01*
X451086Y16870D01*
X452208Y15408D01*
X453670Y14286D01*
X455373Y13580D01*
X457200Y13340D01*
X459027Y13580D01*
X460730Y14286D01*
X462192Y15408D01*
X463315Y16870D01*
X464020Y18573D01*
X464260Y20400D01*
Y30400D01*
X464020Y32227D01*
X463315Y33930D01*
X462192Y35392D01*
X460730Y36514D01*
X459027Y37220D01*
X458739Y37258D01*
X458581Y37279D01*
X458703Y39150D01*
X461236Y40279D01*
X500707D01*
X501000Y37400D01*
X501000Y37279D01*
Y25859D01*
X500940Y25400D01*
X501000Y24941D01*
Y13400D01*
X515000D01*
Y24941D01*
X515060Y25400D01*
X515000Y25859D01*
Y37279D01*
X515000Y37400D01*
X515293Y40279D01*
X529364D01*
X531897Y39150D01*
Y39150D01*
D01*
X532019Y37279D01*
X531861Y37258D01*
X531573Y37220D01*
X529870Y36514D01*
X528408Y35392D01*
X527285Y33930D01*
X526580Y32227D01*
X526340Y30400D01*
Y20400D01*
X526580Y18573D01*
X527285Y16870D01*
X528408Y15408D01*
X529870Y14286D01*
X531573Y13580D01*
X533400Y13340D01*
X535227Y13580D01*
X536930Y14286D01*
X538392Y15408D01*
X539515Y16870D01*
X540220Y18573D01*
X540460Y20400D01*
Y30400D01*
X540220Y32227D01*
X539515Y33930D01*
X538392Y35392D01*
X536930Y36514D01*
X535227Y37220D01*
X534939Y37258D01*
X534781Y37279D01*
X534903Y39150D01*
X537436Y40279D01*
X554764D01*
X557297Y39150D01*
Y39150D01*
D01*
X557419Y37279D01*
X557261Y37258D01*
X556973Y37220D01*
X555270Y36514D01*
X553808Y35392D01*
X552686Y33930D01*
X551980Y32227D01*
X551740Y30400D01*
Y20400D01*
X551980Y18573D01*
X552686Y16870D01*
X553808Y15408D01*
X555270Y14286D01*
X556973Y13580D01*
X558800Y13340D01*
X560627Y13580D01*
X562330Y14286D01*
X563792Y15408D01*
X564915Y16870D01*
X565620Y18573D01*
X565860Y20400D01*
Y30400D01*
X565620Y32227D01*
X564915Y33930D01*
X563792Y35392D01*
X562330Y36514D01*
X560627Y37220D01*
X560339Y37258D01*
X560181Y37279D01*
X560303Y39150D01*
X562836Y40279D01*
X580164D01*
X582697Y39150D01*
Y39150D01*
D01*
X582819Y37279D01*
X582661Y37258D01*
X582373Y37220D01*
X580670Y36514D01*
X579208Y35392D01*
X578086Y33930D01*
X577380Y32227D01*
X577140Y30400D01*
Y20400D01*
X577380Y18573D01*
X578086Y16870D01*
X579208Y15408D01*
X580670Y14286D01*
X582373Y13580D01*
X584200Y13340D01*
X586027Y13580D01*
X587730Y14286D01*
X589192Y15408D01*
X590314Y16870D01*
X591020Y18573D01*
X591260Y20400D01*
Y30400D01*
X591020Y32227D01*
X590314Y33930D01*
X589192Y35392D01*
X587730Y36514D01*
X586027Y37220D01*
X585739Y37258D01*
X585581Y37279D01*
X585703Y39150D01*
X588236Y40279D01*
X605564D01*
X608097Y39150D01*
Y39150D01*
D01*
X608219Y37279D01*
X608061Y37258D01*
X607773Y37220D01*
X606070Y36514D01*
X604608Y35392D01*
X603485Y33930D01*
X602780Y32227D01*
X602540Y30400D01*
Y20400D01*
X602780Y18573D01*
X603485Y16870D01*
X604608Y15408D01*
X606070Y14286D01*
X607773Y13580D01*
X609600Y13340D01*
X611427Y13580D01*
X613130Y14286D01*
X614592Y15408D01*
X615714Y16870D01*
X616420Y18573D01*
X616660Y20400D01*
Y30400D01*
X616420Y32227D01*
X615714Y33930D01*
X614592Y35392D01*
X613130Y36514D01*
X611427Y37220D01*
X611139Y37258D01*
X610981Y37279D01*
X611103Y39150D01*
X613636Y40279D01*
X615682D01*
X616463Y40434D01*
X617124Y40876D01*
X620124Y43876D01*
X620566Y44538D01*
X620721Y45318D01*
X620721Y83000D01*
X620566Y83780D01*
X620124Y84442D01*
X619463Y84884D01*
X618682Y85039D01*
X572000Y85039D01*
X572000Y85039D01*
X571220Y84884D01*
X570558Y84442D01*
X570558Y84442D01*
X545473Y59357D01*
X428117D01*
X428000Y59334D01*
X427883Y59357D01*
X425527D01*
X408124Y76760D01*
X407462Y77202D01*
X406682Y77357D01*
X266761D01*
X225191Y139509D01*
X223358D01*
X223342Y139532D01*
X223124Y139858D01*
X223121Y139860D01*
X223119Y139864D01*
X222217Y140758D01*
X222214Y140760D01*
X222212Y140764D01*
X221878Y140983D01*
X221554Y141198D01*
X221550Y141199D01*
X221547Y141201D01*
X221158Y141275D01*
X220773Y141350D01*
X220769Y141349D01*
X220765Y141350D01*
X100774Y140441D01*
X100770Y140440D01*
X100634Y140530D01*
X100192Y141192D01*
X95192Y146192D01*
X94530Y146634D01*
X93750Y146789D01*
X87845Y146789D01*
X70789Y163845D01*
X70789Y230500D01*
X70789Y230500D01*
X70634Y231280D01*
X70192Y231942D01*
X70192Y231942D01*
X67191Y234943D01*
X67191Y375977D01*
X70191Y377456D01*
X70905Y376908D01*
X73459Y375850D01*
X76200Y375489D01*
X78941Y375850D01*
X81495Y376908D01*
X83689Y378591D01*
X85372Y380785D01*
X86430Y383339D01*
X86791Y386080D01*
X86430Y388821D01*
X85372Y391375D01*
X83689Y393569D01*
X81495Y395252D01*
X78941Y396310D01*
X76200Y396671D01*
X73459Y396310D01*
X70905Y395252D01*
X70191Y394704D01*
X67191Y396183D01*
Y418690D01*
X69325Y420799D01*
X134016Y420017D01*
X134180Y418773D01*
X134886Y417070D01*
X136007Y415608D01*
X137470Y414486D01*
X139173Y413780D01*
X141000Y413540D01*
X151000D01*
X152827Y413780D01*
X154530Y414486D01*
X155992Y415608D01*
X157114Y417070D01*
X157820Y418773D01*
X157946Y419728D01*
X162554Y419673D01*
Y390000D01*
X182987D01*
X184049Y389290D01*
X186000Y388902D01*
X187951Y389290D01*
X189013Y390000D01*
X581095Y390000D01*
X582243Y387228D01*
X574008Y378993D01*
X572886Y377530D01*
X572180Y375827D01*
X571940Y374000D01*
Y232929D01*
X572180Y231102D01*
X572886Y229399D01*
X574008Y227937D01*
X576008Y225937D01*
X576752Y225366D01*
Y214760D01*
X575728Y213907D01*
X573752Y213055D01*
X572200Y213698D01*
X569850Y214008D01*
X567500Y213698D01*
X565311Y212792D01*
X563431Y211349D01*
X561988Y209469D01*
X561082Y207279D01*
X560772Y204930D01*
Y198930D01*
X561082Y196581D01*
X561725Y195028D01*
X561352Y193620D01*
X561199Y193314D01*
X560141Y191871D01*
X558979Y191640D01*
X557325Y190535D01*
X552395Y185605D01*
X551290Y183951D01*
X550902Y182000D01*
X551290Y180049D01*
X552395Y178395D01*
X554049Y177290D01*
X556000Y176902D01*
X557951Y177290D01*
X559605Y178395D01*
X563042Y181832D01*
X574821D01*
X576771Y182220D01*
X578425Y183325D01*
X585455Y190355D01*
X586036Y191225D01*
X586891Y191618D01*
X588693Y191947D01*
X589601Y191920D01*
X590711Y191068D01*
X592901Y190162D01*
X595250Y189852D01*
X597599Y190162D01*
X599789Y191068D01*
X601669Y192511D01*
X603111Y194391D01*
X604018Y196581D01*
X604328Y198930D01*
Y204930D01*
X604018Y207279D01*
X603111Y209469D01*
X601669Y211349D01*
X599789Y212792D01*
X597599Y213698D01*
X595250Y214008D01*
X592901Y213698D01*
X590711Y212792D01*
X589948Y212206D01*
X586948Y213630D01*
Y227182D01*
X587114Y227399D01*
X587820Y229102D01*
X588060Y230929D01*
X587820Y232757D01*
X587114Y234459D01*
X586060Y235833D01*
Y252390D01*
X586550Y252807D01*
X589060Y253713D01*
X590700Y252455D01*
X593498Y251296D01*
X596500Y250901D01*
X599502Y251296D01*
X602300Y252455D01*
X604702Y254298D01*
X606545Y256700D01*
X607704Y259498D01*
X608099Y262500D01*
X607704Y265502D01*
X606545Y268300D01*
X604702Y270702D01*
X602300Y272545D01*
X599502Y273704D01*
X596500Y274099D01*
X593498Y273704D01*
X590700Y272545D01*
X589060Y271287D01*
X586550Y272192D01*
X586060Y272610D01*
Y371076D01*
X599660Y384675D01*
X602431Y383527D01*
Y335950D01*
X602703Y334584D01*
X603477Y333426D01*
X628432Y308472D01*
Y213930D01*
X611650D01*
Y189930D01*
X628432D01*
Y166958D01*
X598570Y137096D01*
X597599Y137498D01*
X595250Y137808D01*
X592901Y137498D01*
X590711Y136592D01*
X588831Y135149D01*
X587388Y133269D01*
X586482Y131080D01*
X586172Y128730D01*
Y122730D01*
X586482Y120380D01*
X587388Y118191D01*
X588831Y116311D01*
X590711Y114868D01*
X592901Y113962D01*
X595250Y113652D01*
X597599Y113962D01*
X599789Y114868D01*
X601669Y116311D01*
X603111Y118191D01*
X604018Y120380D01*
X604328Y122730D01*
Y128730D01*
X604018Y131080D01*
X603616Y132050D01*
X630660Y159093D01*
X633431Y157945D01*
Y146558D01*
X623970Y137096D01*
X622999Y137498D01*
X620650Y137808D01*
X618301Y137498D01*
X616111Y136592D01*
X614231Y135149D01*
X612789Y133269D01*
X611882Y131080D01*
X611572Y128730D01*
Y122730D01*
X611882Y120380D01*
X612789Y118191D01*
X614231Y116311D01*
X616111Y114868D01*
X618301Y113962D01*
X620650Y113652D01*
X622999Y113962D01*
X625189Y114868D01*
X627069Y116311D01*
X628511Y118191D01*
X629418Y120380D01*
X629728Y122730D01*
Y128730D01*
X629418Y131080D01*
X629016Y132050D01*
X639523Y142557D01*
X640297Y143714D01*
X640569Y145080D01*
Y166465D01*
X643340Y167613D01*
X653911Y157043D01*
X653902Y157000D01*
X654290Y155049D01*
X655395Y153395D01*
X657049Y152290D01*
X659000Y151902D01*
X660951Y152290D01*
X662605Y153395D01*
X663710Y155049D01*
X664098Y157000D01*
X663710Y158951D01*
X662605Y160605D01*
X660951Y161710D01*
X659000Y162098D01*
X658957Y162089D01*
X645569Y175478D01*
Y315142D01*
X645297Y316508D01*
X644523Y317665D01*
X621569Y340620D01*
Y372522D01*
X635523Y386477D01*
X636297Y387634D01*
X636569Y389000D01*
Y390000D01*
X636761D01*
X636761Y490000D01*
X240991D01*
X240744Y496245D01*
X242290Y496885D01*
X243752Y498008D01*
X244874Y499470D01*
X245580Y501173D01*
X245820Y503000D01*
Y513000D01*
X245580Y514827D01*
X244874Y516530D01*
X243752Y517993D01*
X242290Y519114D01*
X240587Y519820D01*
X238760Y520060D01*
X236933Y519820D01*
X235230Y519114D01*
X233768Y517993D01*
X232645Y516530D01*
X232086Y515180D01*
X230980Y514857D01*
X228927Y514920D01*
X228523Y515523D01*
X222523Y521523D01*
X221366Y522297D01*
X221072Y522355D01*
X219404Y524023D01*
X218246Y524797D01*
X216881Y525069D01*
X196500D01*
X195134Y524797D01*
X193977Y524023D01*
X189775Y519822D01*
X187960Y520060D01*
X186133Y519820D01*
X184430Y519114D01*
X182968Y517993D01*
X181845Y516530D01*
X181140Y514827D01*
X180900Y513000D01*
Y503000D01*
X181140Y501173D01*
X181845Y499470D01*
X182968Y498008D01*
X184430Y496885D01*
X186133Y496180D01*
X186542Y496126D01*
Y485000D01*
X167134Y461569D01*
X163000D01*
X161634Y461297D01*
X160477Y460523D01*
X152953Y453000D01*
X146459D01*
X146000Y453060D01*
X145541Y453000D01*
X134000D01*
Y449569D01*
X104118D01*
X85715Y467972D01*
X86430Y469699D01*
X86791Y472440D01*
X86430Y475181D01*
X85372Y477735D01*
X83689Y479929D01*
X81495Y481612D01*
X78941Y482670D01*
X76200Y483031D01*
X73459Y482670D01*
X70905Y481612D01*
X70191Y481064D01*
X67191Y482543D01*
Y509227D01*
X65486Y509217D01*
X65124Y509760D01*
X64462Y510202D01*
X63682Y510357D01*
X56261D01*
X56064Y510318D01*
X55863D01*
X55677Y510241D01*
X55480Y510202D01*
X55313Y510090D01*
X55128Y510013D01*
X54986Y509871D01*
X54819Y509760D01*
X54707Y509593D01*
X54565Y509451D01*
X54488Y509265D01*
X54417Y509158D01*
X47209Y509120D01*
X47112Y509265D01*
X47035Y509451D01*
X46893Y509593D01*
X46781Y509760D01*
X46614Y509871D01*
X46472Y510013D01*
X46287Y510090D01*
X46120Y510202D01*
X45923Y510241D01*
X45737Y510318D01*
X45536D01*
X45339Y510357D01*
X3942Y510357D01*
X3942Y528152D01*
X146489D01*
X146933Y525152D01*
X145478Y524710D01*
X142351Y523039D01*
X139611Y520789D01*
X137361Y518049D01*
X135690Y514922D01*
X134661Y511529D01*
X134313Y508000D01*
X134661Y504471D01*
X135690Y501078D01*
X137361Y497951D01*
X139611Y495210D01*
X142351Y492961D01*
X145478Y491290D01*
X148871Y490261D01*
X152400Y489913D01*
X155929Y490261D01*
X159322Y491290D01*
X162449Y492961D01*
X165189Y495210D01*
X167439Y497951D01*
X169110Y501078D01*
X170140Y504471D01*
X170487Y508000D01*
X170140Y511529D01*
X169110Y514922D01*
X167439Y518049D01*
X165189Y520789D01*
X162449Y523039D01*
X159322Y524710D01*
X157866Y525152D01*
X158312Y528152D01*
X683191D01*
X683191Y1152D01*
D02*
G37*
G36*
X45339Y508318D02*
X45592Y507048D01*
X45505Y507012D01*
X43311Y505329D01*
X41628Y503135D01*
X40570Y500581D01*
X40209Y497840D01*
X40570Y495099D01*
X41628Y492545D01*
X43311Y490351D01*
X45505Y488668D01*
X48059Y487610D01*
X50800Y487249D01*
X53541Y487610D01*
X56095Y488668D01*
X58289Y490351D01*
X59972Y492545D01*
X61030Y495099D01*
X61391Y497840D01*
X61030Y500581D01*
X59972Y503135D01*
X58289Y505329D01*
X56095Y507012D01*
X56008Y507048D01*
X56261Y508318D01*
X63682D01*
Y451000D01*
X92593D01*
X100117Y443477D01*
X101274Y442703D01*
X102640Y442431D01*
X134000D01*
Y439000D01*
X145541D01*
X146000Y438940D01*
X146459Y439000D01*
X158000D01*
Y447953D01*
X161047Y451000D01*
X302914Y451000D01*
X303107Y423901D01*
X302213Y423000D01*
X222000Y423000D01*
Y398932D01*
X186833Y398932D01*
X186000Y399098D01*
X185167Y398932D01*
X165000D01*
Y425000D01*
X156447Y425000D01*
X155992Y425592D01*
X154530Y426715D01*
X152827Y427420D01*
X151000Y427660D01*
X141000D01*
X139173Y427420D01*
X137470Y426715D01*
X136007Y425592D01*
X135553Y425000D01*
X63682Y425000D01*
Y373318D01*
X62682Y372318D01*
Y364318D01*
X63417Y240204D01*
X63332Y240062D01*
X62152Y239259D01*
X62000Y239289D01*
X54250Y239289D01*
X53470Y239134D01*
X52808Y238692D01*
X52558Y238442D01*
X52116Y237780D01*
X51961Y237000D01*
Y218250D01*
X52116Y217470D01*
X52558Y216808D01*
X52558Y216808D01*
X56961Y212405D01*
Y155250D01*
X56961Y155250D01*
X57116Y154470D01*
X57558Y153808D01*
X80711Y130655D01*
Y92500D01*
X80866Y91720D01*
X81308Y91058D01*
X81308Y91058D01*
X82808Y89558D01*
X83470Y89116D01*
X84250Y88961D01*
X92500D01*
X92500Y88961D01*
X93280Y89116D01*
X93942Y89558D01*
X93942Y89558D01*
X100192Y95808D01*
X100634Y96470D01*
X100789Y97250D01*
Y138402D01*
X220781Y139311D01*
X221682Y138416D01*
Y138318D01*
X265000Y75318D01*
X406682D01*
X424682Y57318D01*
X427883D01*
X428000Y57295D01*
X428117Y57318D01*
X546318D01*
X572000Y83000D01*
X618682Y83000D01*
X618682Y45318D01*
X615682Y42318D01*
X372682D01*
X357682Y57318D01*
X242682Y57318D01*
X221682Y78318D01*
X221682Y100318D01*
X209682Y112318D01*
X152682D01*
X149682Y109318D01*
Y76039D01*
X135846D01*
X123539Y88346D01*
X123539Y98000D01*
X123384Y98780D01*
X123200Y99056D01*
Y100000D01*
X121697D01*
X121500Y100039D01*
X111000D01*
X110803Y100000D01*
X109200D01*
Y98906D01*
X109116Y98780D01*
X108961Y98000D01*
Y87845D01*
X87155Y66039D01*
X3000D01*
X2952Y66030D01*
X1682Y66936D01*
X1682Y122858D01*
X2952Y123312D01*
X5368Y120368D01*
X8718Y117619D01*
X12540Y115576D01*
X16687Y114318D01*
X21000Y113894D01*
X25313Y114318D01*
X29460Y115576D01*
X33282Y117619D01*
X36632Y120368D01*
X39381Y123718D01*
X41424Y127540D01*
X42682Y131687D01*
X43106Y136000D01*
X42682Y140313D01*
X41424Y144460D01*
X39381Y148282D01*
X36632Y151632D01*
X33282Y154381D01*
X29460Y156424D01*
X25313Y157682D01*
X21000Y158106D01*
X16687Y157682D01*
X12540Y156424D01*
X8718Y154381D01*
X5368Y151632D01*
X2952Y148688D01*
X1682Y149142D01*
X1682Y295318D01*
X1682Y508318D01*
X45339Y508318D01*
D02*
G37*
G36*
X68750Y230500D02*
X68750Y163000D01*
X87000Y144750D01*
X93750Y144750D01*
X98750Y139750D01*
Y97250D01*
X92500Y91000D01*
X84250D01*
X82750Y92500D01*
Y131500D01*
X59000Y155250D01*
Y213250D01*
X54000Y218250D01*
Y237000D01*
X54250Y237250D01*
X62000Y237250D01*
X68750Y230500D01*
D02*
G37*
G36*
X206000Y108000D02*
X217000Y97000D01*
X217000Y79000D01*
X242000Y54000D01*
X358000D01*
X367000Y45000D01*
Y38197D01*
X366961Y38000D01*
Y18845D01*
X363155Y15039D01*
X344961D01*
X340000Y20000D01*
X340000Y34000D01*
X336000Y38000D01*
X251712Y38000D01*
X251638Y38024D01*
X251514Y38015D01*
X251391Y38039D01*
X216845Y38039D01*
X179442Y75442D01*
X178780Y75884D01*
X178000Y76039D01*
X154000D01*
X154000Y108000D01*
X206000Y108000D01*
D02*
G37*
G36*
X121500Y87501D02*
X135001Y74000D01*
X178000D01*
X216000Y36000D01*
X251391Y36000D01*
X269391Y13000D01*
X364000Y13000D01*
X369000Y18000D01*
Y38000D01*
X392000D01*
Y3000D01*
X243388D01*
X243305Y4270D01*
X243502Y4296D01*
X246300Y5455D01*
X248702Y7298D01*
X250545Y9700D01*
X251704Y12498D01*
X252099Y15500D01*
X251704Y18502D01*
X250545Y21300D01*
X248702Y23702D01*
X246300Y25545D01*
X243502Y26704D01*
X240500Y27099D01*
X237498Y26704D01*
X234700Y25545D01*
X232298Y23702D01*
X230455Y21300D01*
X229296Y18502D01*
X228901Y15500D01*
X229296Y12498D01*
X230455Y9700D01*
X232298Y7298D01*
X234700Y5455D01*
X237498Y4296D01*
X237696Y4270D01*
X237612Y3000D01*
X207652D01*
X207000Y4000D01*
Y27000D01*
X189462D01*
X189061Y27268D01*
X187500Y27578D01*
X187500Y27578D01*
X178649D01*
X178339Y31520D01*
X176906Y37489D01*
X174557Y43160D01*
X171349Y48394D01*
X167362Y53062D01*
X162694Y57049D01*
X157460Y60257D01*
X151789Y62606D01*
X145820Y64039D01*
X139700Y64521D01*
X133580Y64039D01*
X127611Y62606D01*
X121940Y60257D01*
X116706Y57049D01*
X112038Y53062D01*
X108051Y48394D01*
X104843Y43160D01*
X102494Y37489D01*
X101061Y31520D01*
X100579Y25400D01*
X101061Y19280D01*
X102494Y13311D01*
X104843Y7640D01*
X107007Y4108D01*
X106387Y3000D01*
X3000D01*
Y64000D01*
X88000D01*
X111000Y87000D01*
Y98000D01*
X121500D01*
X121500Y87501D01*
D02*
G37*
%LPC*%
G36*
X642000Y520000D02*
X628000D01*
Y508459D01*
X627940Y508000D01*
X628000Y507541D01*
Y496000D01*
X642000D01*
Y507541D01*
X642060Y508000D01*
X642000Y508459D01*
Y520000D01*
D02*
G37*
G36*
X423560D02*
X409560D01*
Y508459D01*
X409500Y508000D01*
X409560Y507541D01*
Y496000D01*
X423560D01*
Y507541D01*
X423620Y508000D01*
X423560Y508459D01*
Y520000D01*
D02*
G37*
G36*
X609600Y520060D02*
X607773Y519820D01*
X606070Y519114D01*
X604608Y517993D01*
X603485Y516530D01*
X602780Y514827D01*
X602540Y513000D01*
Y503000D01*
X602780Y501173D01*
X603485Y499470D01*
X604608Y498008D01*
X606070Y496885D01*
X607773Y496180D01*
X609600Y495940D01*
X611427Y496180D01*
X613130Y496885D01*
X614592Y498008D01*
X615714Y499470D01*
X616420Y501173D01*
X616660Y503000D01*
Y513000D01*
X616420Y514827D01*
X615714Y516530D01*
X614592Y517993D01*
X613130Y519114D01*
X611427Y519820D01*
X609600Y520060D01*
D02*
G37*
G36*
X584200D02*
X582373Y519820D01*
X580670Y519114D01*
X579208Y517993D01*
X578086Y516530D01*
X577380Y514827D01*
X577140Y513000D01*
Y503000D01*
X577380Y501173D01*
X578086Y499470D01*
X579208Y498008D01*
X580670Y496885D01*
X582373Y496180D01*
X584200Y495940D01*
X586027Y496180D01*
X587730Y496885D01*
X589192Y498008D01*
X590314Y499470D01*
X591020Y501173D01*
X591260Y503000D01*
Y513000D01*
X591020Y514827D01*
X590314Y516530D01*
X589192Y517993D01*
X587730Y519114D01*
X586027Y519820D01*
X584200Y520060D01*
D02*
G37*
G36*
X558800D02*
X556973Y519820D01*
X555270Y519114D01*
X553808Y517993D01*
X552686Y516530D01*
X551980Y514827D01*
X551740Y513000D01*
Y503000D01*
X551980Y501173D01*
X552686Y499470D01*
X553808Y498008D01*
X555270Y496885D01*
X556973Y496180D01*
X558800Y495940D01*
X560627Y496180D01*
X562330Y496885D01*
X563792Y498008D01*
X564915Y499470D01*
X565620Y501173D01*
X565860Y503000D01*
Y513000D01*
X565620Y514827D01*
X564915Y516530D01*
X563792Y517993D01*
X562330Y519114D01*
X560627Y519820D01*
X558800Y520060D01*
D02*
G37*
G36*
X533400D02*
X531573Y519820D01*
X529870Y519114D01*
X528408Y517993D01*
X527285Y516530D01*
X526580Y514827D01*
X526340Y513000D01*
Y503000D01*
X526580Y501173D01*
X527285Y499470D01*
X528408Y498008D01*
X529870Y496885D01*
X531573Y496180D01*
X533400Y495940D01*
X535227Y496180D01*
X536930Y496885D01*
X538392Y498008D01*
X539515Y499470D01*
X540220Y501173D01*
X540460Y503000D01*
Y513000D01*
X540220Y514827D01*
X539515Y516530D01*
X538392Y517993D01*
X536930Y519114D01*
X535227Y519820D01*
X533400Y520060D01*
D02*
G37*
G36*
X508000D02*
X506173Y519820D01*
X504470Y519114D01*
X503008Y517993D01*
X501885Y516530D01*
X501180Y514827D01*
X500940Y513000D01*
Y503000D01*
X501180Y501173D01*
X501885Y499470D01*
X503008Y498008D01*
X504470Y496885D01*
X506173Y496180D01*
X508000Y495940D01*
X509827Y496180D01*
X511530Y496885D01*
X512992Y498008D01*
X514114Y499470D01*
X514820Y501173D01*
X515060Y503000D01*
Y513000D01*
X514820Y514827D01*
X514114Y516530D01*
X512992Y517993D01*
X511530Y519114D01*
X509827Y519820D01*
X508000Y520060D01*
D02*
G37*
G36*
X482600D02*
X480773Y519820D01*
X479070Y519114D01*
X477608Y517993D01*
X476485Y516530D01*
X475780Y514827D01*
X475540Y513000D01*
Y503000D01*
X475780Y501173D01*
X476485Y499470D01*
X477608Y498008D01*
X479070Y496885D01*
X480773Y496180D01*
X482600Y495940D01*
X484427Y496180D01*
X486130Y496885D01*
X487592Y498008D01*
X488714Y499470D01*
X489420Y501173D01*
X489660Y503000D01*
Y513000D01*
X489420Y514827D01*
X488714Y516530D01*
X487592Y517993D01*
X486130Y519114D01*
X484427Y519820D01*
X482600Y520060D01*
D02*
G37*
G36*
X457200D02*
X455373Y519820D01*
X453670Y519114D01*
X452208Y517993D01*
X451086Y516530D01*
X450380Y514827D01*
X450140Y513000D01*
Y503000D01*
X450380Y501173D01*
X451086Y499470D01*
X452208Y498008D01*
X453670Y496885D01*
X455373Y496180D01*
X457200Y495940D01*
X459027Y496180D01*
X460730Y496885D01*
X462192Y498008D01*
X463315Y499470D01*
X464020Y501173D01*
X464260Y503000D01*
Y513000D01*
X464020Y514827D01*
X463315Y516530D01*
X462192Y517993D01*
X460730Y519114D01*
X459027Y519820D01*
X457200Y520060D01*
D02*
G37*
G36*
X391160D02*
X389333Y519820D01*
X387630Y519114D01*
X386168Y517993D01*
X385046Y516530D01*
X384340Y514827D01*
X384100Y513000D01*
Y503000D01*
X384340Y501173D01*
X385046Y499470D01*
X386168Y498008D01*
X387630Y496885D01*
X389333Y496180D01*
X391160Y495940D01*
X392987Y496180D01*
X394690Y496885D01*
X396152Y498008D01*
X397275Y499470D01*
X397980Y501173D01*
X398220Y503000D01*
Y513000D01*
X397980Y514827D01*
X397275Y516530D01*
X396152Y517993D01*
X394690Y519114D01*
X392987Y519820D01*
X391160Y520060D01*
D02*
G37*
G36*
X365760D02*
X363933Y519820D01*
X362230Y519114D01*
X360768Y517993D01*
X359646Y516530D01*
X358940Y514827D01*
X358700Y513000D01*
Y503000D01*
X358940Y501173D01*
X359646Y499470D01*
X360768Y498008D01*
X362230Y496885D01*
X363933Y496180D01*
X365760Y495940D01*
X367587Y496180D01*
X369290Y496885D01*
X370752Y498008D01*
X371875Y499470D01*
X372580Y501173D01*
X372820Y503000D01*
Y513000D01*
X372580Y514827D01*
X371875Y516530D01*
X370752Y517993D01*
X369290Y519114D01*
X367587Y519820D01*
X365760Y520060D01*
D02*
G37*
G36*
X340360D02*
X338533Y519820D01*
X336830Y519114D01*
X335368Y517993D01*
X334245Y516530D01*
X333540Y514827D01*
X333300Y513000D01*
Y503000D01*
X333540Y501173D01*
X334245Y499470D01*
X335368Y498008D01*
X336830Y496885D01*
X338533Y496180D01*
X340360Y495940D01*
X342187Y496180D01*
X343890Y496885D01*
X345352Y498008D01*
X346474Y499470D01*
X347180Y501173D01*
X347420Y503000D01*
Y513000D01*
X347180Y514827D01*
X346474Y516530D01*
X345352Y517993D01*
X343890Y519114D01*
X342187Y519820D01*
X340360Y520060D01*
D02*
G37*
G36*
X314960D02*
X313133Y519820D01*
X311430Y519114D01*
X309968Y517993D01*
X308846Y516530D01*
X308140Y514827D01*
X307900Y513000D01*
Y503000D01*
X308140Y501173D01*
X308846Y499470D01*
X309968Y498008D01*
X311430Y496885D01*
X313133Y496180D01*
X314960Y495940D01*
X316787Y496180D01*
X318490Y496885D01*
X319952Y498008D01*
X321074Y499470D01*
X321780Y501173D01*
X322020Y503000D01*
Y513000D01*
X321780Y514827D01*
X321074Y516530D01*
X319952Y517993D01*
X318490Y519114D01*
X316787Y519820D01*
X314960Y520060D01*
D02*
G37*
G36*
X289560D02*
X287733Y519820D01*
X286030Y519114D01*
X284568Y517993D01*
X283445Y516530D01*
X282740Y514827D01*
X282500Y513000D01*
Y503000D01*
X282740Y501173D01*
X283445Y499470D01*
X284568Y498008D01*
X286030Y496885D01*
X287733Y496180D01*
X289560Y495940D01*
X291387Y496180D01*
X293090Y496885D01*
X294552Y498008D01*
X295674Y499470D01*
X296380Y501173D01*
X296620Y503000D01*
Y513000D01*
X296380Y514827D01*
X295674Y516530D01*
X294552Y517993D01*
X293090Y519114D01*
X291387Y519820D01*
X289560Y520060D01*
D02*
G37*
G36*
X662000Y476060D02*
X661541Y476000D01*
X650000D01*
Y462000D01*
X661541D01*
X662000Y461940D01*
X662459Y462000D01*
X674000D01*
Y476000D01*
X662459D01*
X662000Y476060D01*
D02*
G37*
G36*
X667000Y450660D02*
X657000D01*
X655173Y450420D01*
X653470Y449715D01*
X652008Y448592D01*
X650885Y447130D01*
X650180Y445427D01*
X649940Y443600D01*
X650180Y441773D01*
X650885Y440070D01*
X652008Y438608D01*
X653470Y437486D01*
X655173Y436780D01*
X657000Y436540D01*
X667000D01*
X668827Y436780D01*
X670530Y437486D01*
X671992Y438608D01*
X673114Y440070D01*
X673820Y441773D01*
X674060Y443600D01*
X673820Y445427D01*
X673114Y447130D01*
X671992Y448592D01*
X670530Y449715D01*
X668827Y450420D01*
X667000Y450660D01*
D02*
G37*
G36*
Y425260D02*
X657000D01*
X655173Y425020D01*
X653470Y424314D01*
X652008Y423192D01*
X650885Y421730D01*
X650180Y420027D01*
X649940Y418200D01*
X650180Y416373D01*
X650885Y414670D01*
X652008Y413208D01*
X653470Y412085D01*
X655173Y411380D01*
X657000Y411140D01*
X667000D01*
X668827Y411380D01*
X670530Y412085D01*
X671992Y413208D01*
X673114Y414670D01*
X673820Y416373D01*
X674060Y418200D01*
X673820Y420027D01*
X673114Y421730D01*
X671992Y423192D01*
X670530Y424314D01*
X668827Y425020D01*
X667000Y425260D01*
D02*
G37*
G36*
X151000Y402260D02*
X141000D01*
X139173Y402020D01*
X137470Y401315D01*
X136007Y400192D01*
X134886Y398730D01*
X134180Y397027D01*
X133940Y395200D01*
X134180Y393373D01*
X134886Y391670D01*
X136007Y390208D01*
X137470Y389086D01*
X139173Y388380D01*
X141000Y388140D01*
X151000D01*
X152827Y388380D01*
X154530Y389086D01*
X155992Y390208D01*
X157114Y391670D01*
X157820Y393373D01*
X158060Y395200D01*
X157820Y397027D01*
X157114Y398730D01*
X155992Y400192D01*
X154530Y401315D01*
X152827Y402020D01*
X151000Y402260D01*
D02*
G37*
G36*
Y376860D02*
X141000D01*
X139173Y376620D01*
X137470Y375914D01*
X136007Y374792D01*
X134886Y373330D01*
X134180Y371627D01*
X133940Y369800D01*
X134180Y367973D01*
X134886Y366270D01*
X136007Y364808D01*
X137470Y363685D01*
X139173Y362980D01*
X141000Y362740D01*
X151000D01*
X152827Y362980D01*
X154530Y363685D01*
X155992Y364808D01*
X157114Y366270D01*
X157820Y367973D01*
X158060Y369800D01*
X157820Y371627D01*
X157114Y373330D01*
X155992Y374792D01*
X154530Y375914D01*
X152827Y376620D01*
X151000Y376860D01*
D02*
G37*
G36*
X99000Y415098D02*
X97049Y414710D01*
X95395Y413605D01*
X94290Y411951D01*
X93902Y410000D01*
X94290Y408049D01*
X95395Y406395D01*
X95431Y406371D01*
Y326290D01*
X95051Y325909D01*
X94049Y325710D01*
X92395Y324605D01*
X91290Y322951D01*
X90902Y321000D01*
X91290Y319049D01*
X92395Y317395D01*
X94049Y316290D01*
X96000Y315902D01*
X97951Y316290D01*
X99605Y317395D01*
X100710Y319049D01*
X101098Y321000D01*
X100955Y321720D01*
X101523Y322288D01*
X102297Y323446D01*
X102569Y324812D01*
Y406371D01*
X102605Y406395D01*
X103710Y408049D01*
X104098Y410000D01*
X103710Y411951D01*
X102605Y413605D01*
X100951Y414710D01*
X99000Y415098D01*
D02*
G37*
G36*
X112000Y375098D02*
X110049Y374710D01*
X108395Y373605D01*
X107290Y371951D01*
X106902Y370000D01*
X107290Y368049D01*
X107931Y367089D01*
Y264963D01*
X107395Y264605D01*
X106290Y262951D01*
X105902Y261000D01*
X106290Y259049D01*
X107395Y257395D01*
X109049Y256290D01*
X111000Y255902D01*
X112951Y256290D01*
X114605Y257395D01*
X115710Y259049D01*
X116098Y261000D01*
X115710Y262951D01*
X115069Y263911D01*
Y366037D01*
X115605Y366395D01*
X116710Y368049D01*
X117098Y370000D01*
X116710Y371951D01*
X115605Y373605D01*
X113951Y374710D01*
X112000Y375098D01*
D02*
G37*
G36*
X661500Y274099D02*
X658498Y273704D01*
X655700Y272545D01*
X653298Y270702D01*
X651455Y268300D01*
X650296Y265502D01*
X649901Y262500D01*
X650296Y259498D01*
X651455Y256700D01*
X653298Y254298D01*
X655700Y252455D01*
X658498Y251296D01*
X661500Y250901D01*
X664502Y251296D01*
X667300Y252455D01*
X669702Y254298D01*
X671545Y256700D01*
X672704Y259498D01*
X673099Y262500D01*
X672704Y265502D01*
X671545Y268300D01*
X669702Y270702D01*
X667300Y272545D01*
X664502Y273704D01*
X661500Y274099D01*
D02*
G37*
G36*
X326000Y275098D02*
X324049Y274710D01*
X322395Y273605D01*
X321290Y271951D01*
X320902Y270000D01*
X321290Y268049D01*
X322395Y266395D01*
X324049Y265290D01*
X326000Y264902D01*
X326431Y261990D01*
Y210669D01*
X324728Y209917D01*
X323431Y209834D01*
X322269Y211349D01*
X320389Y212792D01*
X318200Y213698D01*
X315850Y214008D01*
X313500Y213698D01*
X311311Y212792D01*
X309431Y211349D01*
X308569Y210225D01*
X305569Y211146D01*
Y223703D01*
X306605Y224395D01*
X307710Y226049D01*
X308098Y228000D01*
X307710Y229951D01*
X306605Y231605D01*
X304951Y232710D01*
X303000Y233098D01*
X301049Y232710D01*
X299395Y231605D01*
X298290Y229951D01*
X297902Y228000D01*
X298290Y226049D01*
X298431Y225838D01*
Y213931D01*
X295431Y212452D01*
X294989Y212792D01*
X292799Y213698D01*
X290450Y214008D01*
X288100Y213698D01*
X285911Y212792D01*
X284031Y211349D01*
X282589Y209469D01*
X281682Y207279D01*
X281447Y205499D01*
X260930D01*
X259564Y205227D01*
X258407Y204453D01*
X246043Y192090D01*
X246000Y192098D01*
X244049Y191710D01*
X242395Y190605D01*
X241290Y188951D01*
X240902Y187000D01*
X241290Y185049D01*
X242395Y183395D01*
X244049Y182290D01*
X246000Y181902D01*
X247951Y182290D01*
X249605Y183395D01*
X250710Y185049D01*
X251098Y187000D01*
X251089Y187043D01*
X262408Y198361D01*
X281447D01*
X281682Y196581D01*
X282589Y194391D01*
X284031Y192511D01*
X285911Y191068D01*
X288100Y190162D01*
X290450Y189852D01*
X292799Y190162D01*
X294989Y191068D01*
X295431Y191408D01*
X298431Y189929D01*
Y167066D01*
X298395Y167042D01*
X297290Y165388D01*
X296902Y163438D01*
X297290Y161487D01*
X298395Y159833D01*
X300049Y158728D01*
X302000Y158340D01*
X303951Y158728D01*
X305605Y159833D01*
X306710Y161487D01*
X307098Y163438D01*
X306710Y165388D01*
X305605Y167042D01*
X305569Y167066D01*
Y192714D01*
X308569Y193635D01*
X309431Y192511D01*
X311311Y191068D01*
X313500Y190162D01*
X315850Y189852D01*
X318200Y190162D01*
X320389Y191068D01*
X322269Y192511D01*
X323431Y194026D01*
X324728Y193943D01*
X326431Y193191D01*
Y169629D01*
X326395Y169605D01*
X325290Y167951D01*
X324902Y166000D01*
X325290Y164049D01*
X326395Y162395D01*
X328049Y161290D01*
X330000Y160902D01*
X331951Y161290D01*
X333605Y162395D01*
X334710Y164049D01*
X335098Y166000D01*
X334710Y167951D01*
X333605Y169605D01*
X333569Y169629D01*
Y189699D01*
X336569Y191178D01*
X336711Y191068D01*
X338900Y190162D01*
X341250Y189852D01*
X343600Y190162D01*
X345789Y191068D01*
X347669Y192511D01*
X349111Y194391D01*
X350018Y196581D01*
X350328Y198930D01*
Y204930D01*
X350018Y207279D01*
X349111Y209469D01*
X347669Y211349D01*
X345789Y212792D01*
X343600Y213698D01*
X341250Y214008D01*
X338900Y213698D01*
X336711Y212792D01*
X336569Y212682D01*
X333569Y214161D01*
Y266000D01*
X333297Y267366D01*
X332523Y268523D01*
X331090Y269957D01*
X331098Y270000D01*
X330710Y271951D01*
X329605Y273605D01*
X327951Y274710D01*
X326000Y275098D01*
D02*
G37*
G36*
X544450Y214008D02*
X542100Y213698D01*
X539911Y212792D01*
X538031Y211349D01*
X536589Y209469D01*
X535682Y207279D01*
X535372Y204930D01*
Y198930D01*
X535682Y196581D01*
X536589Y194391D01*
X538031Y192511D01*
X539911Y191068D01*
X542100Y190162D01*
X544450Y189852D01*
X546800Y190162D01*
X548989Y191068D01*
X550869Y192511D01*
X552311Y194391D01*
X553218Y196581D01*
X553528Y198930D01*
Y204930D01*
X553218Y207279D01*
X552311Y209469D01*
X550869Y211349D01*
X548989Y212792D01*
X546800Y213698D01*
X544450Y214008D01*
D02*
G37*
G36*
X519050D02*
X516701Y213698D01*
X514511Y212792D01*
X512631Y211349D01*
X511189Y209469D01*
X510282Y207279D01*
X509972Y204930D01*
Y198930D01*
X510282Y196581D01*
X511189Y194391D01*
X512631Y192511D01*
X514511Y191068D01*
X516701Y190162D01*
X519050Y189852D01*
X521399Y190162D01*
X523589Y191068D01*
X525469Y192511D01*
X526911Y194391D01*
X527818Y196581D01*
X528128Y198930D01*
Y204930D01*
X527818Y207279D01*
X526911Y209469D01*
X525469Y211349D01*
X523589Y212792D01*
X521399Y213698D01*
X519050Y214008D01*
D02*
G37*
G36*
X493650D02*
X491301Y213698D01*
X489111Y212792D01*
X487231Y211349D01*
X485788Y209469D01*
X484882Y207279D01*
X484572Y204930D01*
Y198930D01*
X484882Y196581D01*
X485788Y194391D01*
X487231Y192511D01*
X489111Y191068D01*
X491301Y190162D01*
X493650Y189852D01*
X495999Y190162D01*
X498189Y191068D01*
X500069Y192511D01*
X501511Y194391D01*
X502418Y196581D01*
X502728Y198930D01*
Y204930D01*
X502418Y207279D01*
X501511Y209469D01*
X500069Y211349D01*
X498189Y212792D01*
X495999Y213698D01*
X493650Y214008D01*
D02*
G37*
G36*
X468250D02*
X465900Y213698D01*
X463711Y212792D01*
X461831Y211349D01*
X460388Y209469D01*
X459482Y207279D01*
X459172Y204930D01*
Y198930D01*
X459482Y196581D01*
X460388Y194391D01*
X461831Y192511D01*
X463711Y191068D01*
X465900Y190162D01*
X468250Y189852D01*
X470600Y190162D01*
X472789Y191068D01*
X474669Y192511D01*
X476111Y194391D01*
X477018Y196581D01*
X477328Y198930D01*
Y204930D01*
X477018Y207279D01*
X476111Y209469D01*
X474669Y211349D01*
X472789Y212792D01*
X470600Y213698D01*
X468250Y214008D01*
D02*
G37*
G36*
X417450D02*
X415101Y213698D01*
X412911Y212792D01*
X411031Y211349D01*
X409589Y209469D01*
X408682Y207279D01*
X408372Y204930D01*
Y198930D01*
X408682Y196581D01*
X409589Y194391D01*
X411031Y192511D01*
X412911Y191068D01*
X415101Y190162D01*
X417450Y189852D01*
X419799Y190162D01*
X421989Y191068D01*
X423869Y192511D01*
X425311Y194391D01*
X426218Y196581D01*
X426528Y198930D01*
Y204930D01*
X426218Y207279D01*
X425311Y209469D01*
X423869Y211349D01*
X421989Y212792D01*
X419799Y213698D01*
X417450Y214008D01*
D02*
G37*
G36*
X392050D02*
X389701Y213698D01*
X387511Y212792D01*
X385631Y211349D01*
X384188Y209469D01*
X383282Y207279D01*
X382972Y204930D01*
Y198930D01*
X383282Y196581D01*
X384188Y194391D01*
X385631Y192511D01*
X387511Y191068D01*
X389701Y190162D01*
X392050Y189852D01*
X394399Y190162D01*
X396589Y191068D01*
X398469Y192511D01*
X399911Y194391D01*
X400818Y196581D01*
X401128Y198930D01*
Y204930D01*
X400818Y207279D01*
X399911Y209469D01*
X398469Y211349D01*
X396589Y212792D01*
X394399Y213698D01*
X392050Y214008D01*
D02*
G37*
G36*
X366650D02*
X364300Y213698D01*
X362111Y212792D01*
X360231Y211349D01*
X358788Y209469D01*
X357882Y207279D01*
X357572Y204930D01*
Y198930D01*
X357882Y196581D01*
X358788Y194391D01*
X360231Y192511D01*
X362111Y191068D01*
X364300Y190162D01*
X366650Y189852D01*
X368999Y190162D01*
X371189Y191068D01*
X373069Y192511D01*
X374511Y194391D01*
X375418Y196581D01*
X375728Y198930D01*
Y204930D01*
X375418Y207279D01*
X374511Y209469D01*
X373069Y211349D01*
X371189Y212792D01*
X368999Y213698D01*
X366650Y214008D01*
D02*
G37*
G36*
X114500Y217098D02*
X112549Y216710D01*
X110895Y215605D01*
X109790Y213951D01*
X109402Y212000D01*
X109790Y210049D01*
X110895Y208395D01*
X112549Y207290D01*
X113013Y207198D01*
X117344Y202866D01*
X117470Y199701D01*
X117015Y199061D01*
X114940Y196987D01*
X113549Y196710D01*
X111895Y195605D01*
X110790Y193951D01*
X110402Y192000D01*
X110516Y191426D01*
X110431Y191000D01*
X110703Y189634D01*
X111477Y188477D01*
X112634Y187703D01*
X113057Y187619D01*
X113549Y187290D01*
X115500Y186902D01*
X117451Y187290D01*
X119105Y188395D01*
X120033Y189785D01*
X121373Y189741D01*
X123042Y189298D01*
X123290Y188049D01*
X124395Y186395D01*
X125395Y185395D01*
X127049Y184290D01*
X129000Y183902D01*
X185750D01*
X187701Y184290D01*
X189355Y185395D01*
X207855Y203895D01*
X208960Y205549D01*
X209348Y207500D01*
Y209750D01*
X208960Y211701D01*
X207855Y213355D01*
X206201Y214460D01*
X204250Y214848D01*
X202299Y214460D01*
X200645Y213355D01*
X199540Y211701D01*
X199152Y209750D01*
Y209611D01*
X183639Y194098D01*
X162475D01*
X160227Y197023D01*
X160468Y197908D01*
X160940Y198089D01*
X161951Y198290D01*
X163605Y199395D01*
X164710Y201049D01*
X165098Y203000D01*
X164710Y204951D01*
X163605Y206605D01*
X161951Y207710D01*
X160000Y208098D01*
X158049Y207710D01*
X157837Y207569D01*
X122736D01*
X119383Y210921D01*
X119598Y212000D01*
X119210Y213951D01*
X118105Y215605D01*
X116451Y216710D01*
X114500Y217098D01*
D02*
G37*
G36*
X502000Y174039D02*
X473662Y174039D01*
X472000Y174039D01*
X471726Y173985D01*
X471447Y173963D01*
X471339Y173908D01*
X471220Y173884D01*
X470987Y173729D01*
X470738Y173602D01*
X464172Y168430D01*
X464106Y168352D01*
X464020Y168297D01*
X463849Y168052D01*
X463655Y167825D01*
X463624Y167728D01*
X463565Y167644D01*
X463501Y167352D01*
X463409Y167068D01*
X463417Y166966D01*
X463395Y166867D01*
X463205Y157039D01*
X463261Y156726D01*
X463292Y156410D01*
X463331Y156337D01*
X463345Y156256D01*
X463517Y155988D01*
X463666Y155708D01*
X474641Y142310D01*
Y131897D01*
X474796Y131116D01*
X475032Y130547D01*
X475288Y128596D01*
Y122864D01*
X475032Y120913D01*
X474796Y120344D01*
X474641Y119563D01*
Y103189D01*
Y89733D01*
X474796Y88953D01*
X475238Y88291D01*
X477232Y86298D01*
X477280Y86055D01*
X477722Y85393D01*
X478383Y84951D01*
X479164Y84796D01*
X495835D01*
X495835Y84796D01*
X496615Y84951D01*
X497277Y85393D01*
X509442Y97558D01*
X509884Y98220D01*
X510039Y99000D01*
Y114761D01*
X511452Y115606D01*
X513039Y115998D01*
X514511Y114868D01*
X516701Y113962D01*
X519050Y113652D01*
X521399Y113962D01*
X523589Y114868D01*
X525469Y116311D01*
X526911Y118191D01*
X527818Y120380D01*
X528128Y122730D01*
Y128730D01*
X527818Y131080D01*
X526911Y133269D01*
X525469Y135149D01*
X523589Y136592D01*
X521399Y137498D01*
X519050Y137808D01*
X516701Y137498D01*
X514511Y136592D01*
X513039Y135462D01*
X511452Y135854D01*
X510039Y136699D01*
Y166828D01*
X510024Y166902D01*
X510034Y166978D01*
X509947Y167290D01*
X509884Y167608D01*
X509842Y167671D01*
X509821Y167745D01*
X509622Y168000D01*
X509442Y168270D01*
X509379Y168312D01*
X509332Y168372D01*
X503331Y173545D01*
X503050Y173704D01*
X502780Y173884D01*
X502705Y173899D01*
X502639Y173937D01*
X502318Y173976D01*
X502000Y174039D01*
D02*
G37*
G36*
X569850Y137808D02*
X567500Y137498D01*
X565311Y136592D01*
X563431Y135149D01*
X561988Y133269D01*
X561082Y131080D01*
X560772Y128730D01*
Y122730D01*
X561082Y120380D01*
X561988Y118191D01*
X563431Y116311D01*
X565311Y114868D01*
X567500Y113962D01*
X569850Y113652D01*
X572200Y113962D01*
X574389Y114868D01*
X576269Y116311D01*
X577711Y118191D01*
X578618Y120380D01*
X578928Y122730D01*
Y128730D01*
X578618Y131080D01*
X577711Y133269D01*
X576269Y135149D01*
X574389Y136592D01*
X572200Y137498D01*
X569850Y137808D01*
D02*
G37*
G36*
X544450D02*
X542100Y137498D01*
X539911Y136592D01*
X538031Y135149D01*
X536589Y133269D01*
X535682Y131080D01*
X535372Y128730D01*
Y122730D01*
X535682Y120380D01*
X536589Y118191D01*
X538031Y116311D01*
X539911Y114868D01*
X542100Y113962D01*
X544450Y113652D01*
X546800Y113962D01*
X548989Y114868D01*
X550869Y116311D01*
X552311Y118191D01*
X553218Y120380D01*
X553528Y122730D01*
Y128730D01*
X553218Y131080D01*
X552311Y133269D01*
X550869Y135149D01*
X548989Y136592D01*
X546800Y137498D01*
X544450Y137808D01*
D02*
G37*
G36*
X442850D02*
X440500Y137498D01*
X438311Y136592D01*
X436431Y135149D01*
X434989Y133269D01*
X434082Y131080D01*
X433772Y128730D01*
Y122730D01*
X434082Y120380D01*
X434989Y118191D01*
X436431Y116311D01*
X438311Y114868D01*
X440500Y113962D01*
X442850Y113652D01*
X445200Y113962D01*
X447389Y114868D01*
X449269Y116311D01*
X450711Y118191D01*
X451618Y120380D01*
X451928Y122730D01*
Y128730D01*
X451618Y131080D01*
X450711Y133269D01*
X449269Y135149D01*
X447389Y136592D01*
X445200Y137498D01*
X442850Y137808D01*
D02*
G37*
G36*
X417450D02*
X415101Y137498D01*
X412911Y136592D01*
X411031Y135149D01*
X409589Y133269D01*
X408682Y131080D01*
X408372Y128730D01*
Y122730D01*
X408682Y120380D01*
X409589Y118191D01*
X411031Y116311D01*
X412911Y114868D01*
X415101Y113962D01*
X417450Y113652D01*
X419799Y113962D01*
X421989Y114868D01*
X423869Y116311D01*
X425311Y118191D01*
X426218Y120380D01*
X426528Y122730D01*
Y128730D01*
X426218Y131080D01*
X425311Y133269D01*
X423869Y135149D01*
X421989Y136592D01*
X419799Y137498D01*
X417450Y137808D01*
D02*
G37*
G36*
X392050D02*
X389701Y137498D01*
X387511Y136592D01*
X385631Y135149D01*
X384188Y133269D01*
X383282Y131080D01*
X382972Y128730D01*
Y122730D01*
X383282Y120380D01*
X384188Y118191D01*
X385631Y116311D01*
X387511Y114868D01*
X389701Y113962D01*
X392050Y113652D01*
X394399Y113962D01*
X396589Y114868D01*
X398469Y116311D01*
X399911Y118191D01*
X400818Y120380D01*
X401128Y122730D01*
Y128730D01*
X400818Y131080D01*
X399911Y133269D01*
X398469Y135149D01*
X396589Y136592D01*
X394399Y137498D01*
X392050Y137808D01*
D02*
G37*
G36*
X366650D02*
X364300Y137498D01*
X362111Y136592D01*
X360231Y135149D01*
X358788Y133269D01*
X357882Y131080D01*
X357572Y128730D01*
Y122730D01*
X357882Y120380D01*
X358788Y118191D01*
X360231Y116311D01*
X362111Y114868D01*
X364300Y113962D01*
X366650Y113652D01*
X368999Y113962D01*
X371189Y114868D01*
X373069Y116311D01*
X374511Y118191D01*
X375418Y120380D01*
X375728Y122730D01*
Y128730D01*
X375418Y131080D01*
X374511Y133269D01*
X373069Y135149D01*
X371189Y136592D01*
X368999Y137498D01*
X366650Y137808D01*
D02*
G37*
G36*
X341250D02*
X338900Y137498D01*
X336711Y136592D01*
X334831Y135149D01*
X333388Y133269D01*
X332482Y131080D01*
X332172Y128730D01*
Y122730D01*
X332482Y120380D01*
X333388Y118191D01*
X334831Y116311D01*
X336711Y114868D01*
X338900Y113962D01*
X341250Y113652D01*
X343600Y113962D01*
X345789Y114868D01*
X347669Y116311D01*
X349111Y118191D01*
X350018Y120380D01*
X350328Y122730D01*
Y128730D01*
X350018Y131080D01*
X349111Y133269D01*
X347669Y135149D01*
X345789Y136592D01*
X343600Y137498D01*
X341250Y137808D01*
D02*
G37*
G36*
X315850D02*
X313500Y137498D01*
X311311Y136592D01*
X309431Y135149D01*
X307988Y133269D01*
X307082Y131080D01*
X306772Y128730D01*
Y122730D01*
X307082Y120380D01*
X307988Y118191D01*
X309431Y116311D01*
X311311Y114868D01*
X313500Y113962D01*
X315850Y113652D01*
X318200Y113962D01*
X320389Y114868D01*
X322269Y116311D01*
X323711Y118191D01*
X324618Y120380D01*
X324928Y122730D01*
Y128730D01*
X324618Y131080D01*
X323711Y133269D01*
X322269Y135149D01*
X320389Y136592D01*
X318200Y137498D01*
X315850Y137808D01*
D02*
G37*
G36*
X290450D02*
X288100Y137498D01*
X285911Y136592D01*
X284031Y135149D01*
X282589Y133269D01*
X281682Y131080D01*
X281372Y128730D01*
Y122730D01*
X281682Y120380D01*
X282589Y118191D01*
X284031Y116311D01*
X285911Y114868D01*
X288100Y113962D01*
X290450Y113652D01*
X292799Y113962D01*
X294989Y114868D01*
X296869Y116311D01*
X298311Y118191D01*
X299218Y120380D01*
X299528Y122730D01*
Y128730D01*
X299218Y131080D01*
X298311Y133269D01*
X296869Y135149D01*
X294989Y136592D01*
X292799Y137498D01*
X290450Y137808D01*
D02*
G37*
G36*
X635000Y37460D02*
X633173Y37220D01*
X631470Y36514D01*
X630008Y35392D01*
X628885Y33930D01*
X628180Y32227D01*
X627940Y30400D01*
Y20400D01*
X628180Y18573D01*
X628885Y16870D01*
X630008Y15408D01*
X631470Y14286D01*
X633173Y13580D01*
X635000Y13340D01*
X636827Y13580D01*
X638530Y14286D01*
X639992Y15408D01*
X641115Y16870D01*
X641820Y18573D01*
X642060Y20400D01*
Y30400D01*
X641820Y32227D01*
X641115Y33930D01*
X639992Y35392D01*
X638530Y36514D01*
X636827Y37220D01*
X635000Y37460D01*
D02*
G37*
%LPD*%
G36*
X508000Y166828D02*
Y99000D01*
X495835Y86835D01*
X479164D01*
Y87249D01*
X476680Y89733D01*
Y103189D01*
Y119563D01*
X477018Y120380D01*
X477328Y122730D01*
Y128730D01*
X477018Y131080D01*
X476680Y131897D01*
Y143039D01*
X465244Y157000D01*
X465434Y166828D01*
X472000Y172000D01*
X473662Y172000D01*
X502000Y172000D01*
X508000Y166828D01*
D02*
G37*
%LPC*%
G36*
X493650Y137808D02*
X491301Y137498D01*
X489111Y136592D01*
X487231Y135149D01*
X485788Y133269D01*
X484882Y131080D01*
X484572Y128730D01*
Y122730D01*
X484882Y120380D01*
X485788Y118191D01*
X487231Y116311D01*
X489111Y114868D01*
X491301Y113962D01*
X493650Y113652D01*
X495999Y113962D01*
X498189Y114868D01*
X500069Y116311D01*
X501511Y118191D01*
X502418Y120380D01*
X502728Y122730D01*
Y128730D01*
X502418Y131080D01*
X501511Y133269D01*
X500069Y135149D01*
X498189Y136592D01*
X495999Y137498D01*
X493650Y137808D01*
D02*
G37*
G36*
X35900Y482940D02*
X14900D01*
Y461940D01*
X35900D01*
Y482940D01*
D02*
G37*
G36*
X50800Y483031D02*
X48059Y482670D01*
X45505Y481612D01*
X43311Y479929D01*
X41628Y477735D01*
X40570Y475181D01*
X40209Y472440D01*
X40570Y469699D01*
X41628Y467145D01*
X43311Y464951D01*
X45505Y463268D01*
X48059Y462210D01*
X50800Y461849D01*
X53541Y462210D01*
X56095Y463268D01*
X58289Y464951D01*
X59972Y467145D01*
X61030Y469699D01*
X61391Y472440D01*
X61030Y475181D01*
X59972Y477735D01*
X58289Y479929D01*
X56095Y481612D01*
X53541Y482670D01*
X50800Y483031D01*
D02*
G37*
G36*
Y422071D02*
X48059Y421710D01*
X45505Y420652D01*
X43311Y418969D01*
X41628Y416775D01*
X40570Y414221D01*
X40209Y411480D01*
X40570Y408739D01*
X41628Y406185D01*
X43311Y403991D01*
X45505Y402308D01*
X48059Y401250D01*
X50800Y400889D01*
X53541Y401250D01*
X56095Y402308D01*
X58289Y403991D01*
X59972Y406185D01*
X61030Y408739D01*
X61391Y411480D01*
X61030Y414221D01*
X59972Y416775D01*
X58289Y418969D01*
X56095Y420652D01*
X53541Y421710D01*
X50800Y422071D01*
D02*
G37*
G36*
X35900Y396580D02*
X14900D01*
Y375580D01*
X35900D01*
Y396580D01*
D02*
G37*
G36*
X50800Y396671D02*
X48059Y396310D01*
X45505Y395252D01*
X43311Y393569D01*
X41628Y391375D01*
X40570Y388821D01*
X40209Y386080D01*
X40570Y383339D01*
X41628Y380785D01*
X43311Y378591D01*
X45505Y376908D01*
X48059Y375850D01*
X50800Y375489D01*
X53541Y375850D01*
X56095Y376908D01*
X58289Y378591D01*
X59972Y380785D01*
X61030Y383339D01*
X61391Y386080D01*
X61030Y388821D01*
X59972Y391375D01*
X58289Y393569D01*
X56095Y395252D01*
X53541Y396310D01*
X50800Y396671D01*
D02*
G37*
G36*
X61300Y352500D02*
X40300D01*
Y331500D01*
X61300D01*
Y352500D01*
D02*
G37*
G36*
X25400Y352591D02*
X22659Y352230D01*
X20105Y351172D01*
X17911Y349489D01*
X16228Y347295D01*
X15170Y344741D01*
X14809Y342000D01*
X15170Y339259D01*
X16228Y336705D01*
X17911Y334511D01*
X20105Y332828D01*
X22659Y331770D01*
X25400Y331409D01*
X28141Y331770D01*
X30695Y332828D01*
X32889Y334511D01*
X34572Y336705D01*
X35630Y339259D01*
X35991Y342000D01*
X35630Y344741D01*
X34572Y347295D01*
X32889Y349489D01*
X30695Y351172D01*
X28141Y352230D01*
X25400Y352591D01*
D02*
G37*
G36*
X50800Y327191D02*
X48059Y326830D01*
X45505Y325772D01*
X43311Y324089D01*
X41628Y321895D01*
X40570Y319341D01*
X40209Y316600D01*
X40570Y313859D01*
X41628Y311305D01*
X43311Y309111D01*
X45505Y307428D01*
X48059Y306370D01*
X50800Y306010D01*
X53541Y306370D01*
X56095Y307428D01*
X58289Y309111D01*
X59972Y311305D01*
X61030Y313859D01*
X61391Y316600D01*
X61030Y319341D01*
X59972Y321895D01*
X58289Y324089D01*
X56095Y325772D01*
X53541Y326830D01*
X50800Y327191D01*
D02*
G37*
G36*
X25400D02*
X22659Y326830D01*
X20105Y325772D01*
X17911Y324089D01*
X16228Y321895D01*
X15170Y319341D01*
X14809Y316600D01*
X15170Y313859D01*
X16228Y311305D01*
X17911Y309111D01*
X20105Y307428D01*
X22659Y306370D01*
X25400Y306010D01*
X28141Y306370D01*
X30695Y307428D01*
X32889Y309111D01*
X34572Y311305D01*
X35630Y313859D01*
X35991Y316600D01*
X35630Y319341D01*
X34572Y321895D01*
X32889Y324089D01*
X30695Y325772D01*
X28141Y326830D01*
X25400Y327191D01*
D02*
G37*
G36*
X28995Y242098D02*
X14995D01*
X13044Y241710D01*
X11390Y240605D01*
X10285Y238951D01*
X9897Y237000D01*
Y231000D01*
X10285Y229049D01*
X11390Y227395D01*
X13044Y226290D01*
X14995Y225902D01*
X28995D01*
X30946Y226290D01*
X32600Y227395D01*
X33705Y229049D01*
X34093Y231000D01*
Y237000D01*
X33705Y238951D01*
X32600Y240605D01*
X30946Y241710D01*
X28995Y242098D01*
D02*
G37*
G36*
Y176098D02*
X14995D01*
X13044Y175710D01*
X11390Y174605D01*
X10285Y172951D01*
X9897Y171000D01*
Y165000D01*
X10285Y163049D01*
X11390Y161395D01*
X13044Y160290D01*
X14995Y159902D01*
X28995D01*
X30946Y160290D01*
X32600Y161395D01*
X33705Y163049D01*
X34093Y165000D01*
Y171000D01*
X33705Y172951D01*
X32600Y174605D01*
X30946Y175710D01*
X28995Y176098D01*
D02*
G37*
G36*
X240500Y92099D02*
X237498Y91704D01*
X234700Y90545D01*
X232298Y88702D01*
X230455Y86300D01*
X229296Y83502D01*
X228901Y80500D01*
X229296Y77498D01*
X230455Y74700D01*
X232298Y72298D01*
X234700Y70455D01*
X237498Y69296D01*
X240500Y68901D01*
X243502Y69296D01*
X246300Y70455D01*
X248702Y72298D01*
X250545Y74700D01*
X251704Y77498D01*
X252099Y80500D01*
X251704Y83502D01*
X250545Y86300D01*
X248702Y88702D01*
X246300Y90545D01*
X243502Y91704D01*
X240500Y92099D01*
D02*
G37*
G36*
X195500D02*
X192498Y91704D01*
X189700Y90545D01*
X187298Y88702D01*
X185455Y86300D01*
X184296Y83502D01*
X183901Y80500D01*
X184296Y77498D01*
X185455Y74700D01*
X187298Y72298D01*
X189700Y70455D01*
X192498Y69296D01*
X195500Y68901D01*
X198502Y69296D01*
X201300Y70455D01*
X203702Y72298D01*
X205545Y74700D01*
X206704Y77498D01*
X207099Y80500D01*
X206704Y83502D01*
X205545Y86300D01*
X203702Y88702D01*
X201300Y90545D01*
X198502Y91704D01*
X195500Y92099D01*
D02*
G37*
%LPD*%
D26*
Y15500D02*
D03*
D63*
X596500Y307500D02*
D03*
D64*
X661500D02*
D03*
Y262500D02*
D03*
X596500D02*
D03*
X195500Y80500D02*
D03*
X240500D02*
D03*
Y15500D02*
D03*
D71*
X532000Y458000D02*
X571000Y419000D01*
X573000D01*
X163000Y458000D02*
X532000D01*
X642000Y174000D02*
X659000Y157000D01*
X620650Y128730D02*
X637000Y145080D01*
X595250Y128730D02*
X632000Y165480D01*
X637000Y145080D02*
Y313071D01*
X642000Y174000D02*
Y315142D01*
X632000Y165480D02*
Y309950D01*
X612000Y338071D02*
X637000Y313071D01*
X606000Y335950D02*
X632000Y309950D01*
X618000Y339142D02*
X642000Y315142D01*
X570250Y402500D02*
X588000Y420250D01*
X294312Y402500D02*
X570250D01*
X312000Y419000D02*
X548000D01*
X302000Y163438D02*
Y227000D01*
X326000Y270000D02*
X330000Y266000D01*
Y166000D02*
Y266000D01*
X302000Y227000D02*
X303000Y228000D01*
X595250Y125730D02*
Y128730D01*
X612000Y338071D02*
Y383000D01*
X606000Y335950D02*
Y388920D01*
X186000Y394000D02*
X581000D01*
X588000Y401000D01*
X292000D02*
X292812D01*
X294312Y402500D01*
X151000Y446000D02*
X163000Y458000D01*
X146000Y446000D02*
X151000D01*
X102640D02*
X146000D01*
X618000Y374000D02*
X633000Y389000D01*
X618000Y339142D02*
Y374000D01*
X612000Y383000D02*
X625500Y396500D01*
X633000Y389000D02*
Y452160D01*
X606000Y388920D02*
X617000Y399920D01*
X577000Y480000D02*
X617000Y440000D01*
Y399920D02*
Y440000D01*
X625500Y396500D02*
Y447571D01*
X623000Y462160D02*
X633000Y452160D01*
X623000Y462160D02*
Y464000D01*
X226000Y496000D02*
X236000Y486000D01*
X587071D02*
X625500Y447571D01*
X236000Y486000D02*
X587071D01*
X227000Y480000D02*
X577000D01*
X213360Y493640D02*
X227000Y480000D01*
X213360Y493640D02*
Y508000D01*
X121257Y204000D02*
X159000D01*
X120000Y197000D02*
X153000D01*
X113000Y212000D02*
X113257D01*
X121257Y204000D01*
X159000D02*
X160000Y203000D01*
X114000Y191000D02*
X120000Y197000D01*
X220000Y519000D02*
X226000Y513000D01*
X219381Y519000D02*
X220000D01*
X196500Y521500D02*
X216881D01*
X187960Y512960D02*
X196500Y521500D01*
X216881D02*
X219381Y519000D01*
X226000Y496000D02*
Y513000D01*
X187960Y508000D02*
Y512960D01*
X111500Y261500D02*
Y369500D01*
X112000Y370000D01*
X111000Y261000D02*
X111500Y261500D01*
X99000Y324812D02*
Y410000D01*
X96000Y321812D02*
X99000Y324812D01*
X96000Y321000D02*
Y321812D01*
X260930Y201930D02*
X290450D01*
X246000Y187000D02*
X260930Y201930D01*
X76200Y472440D02*
X102640Y446000D01*
X620650Y125730D02*
Y128730D01*
D73*
X128000Y190000D02*
X129000Y189000D01*
X204250Y207500D02*
Y209750D01*
X185750Y189000D02*
X204250Y207500D01*
X129000Y189000D02*
X185750D01*
X581000Y230929D02*
X581850Y230079D01*
Y193960D02*
Y230079D01*
X556000Y182000D02*
X560930Y186930D01*
X574821D01*
X581850Y193960D01*
D74*
X431000Y503000D02*
Y504000D01*
X418000Y20000D02*
X419000D01*
X76200Y497840D02*
X95840D01*
X126000Y528000D01*
X249160D01*
X264160Y513000D01*
Y508000D02*
Y513000D01*
X660400Y76200D02*
X664000Y72600D01*
Y9000D02*
Y72600D01*
X661000Y6000D02*
X664000Y9000D01*
X431800Y20400D02*
Y25400D01*
Y20400D02*
X446200Y6000D01*
X661000D01*
X406400Y25400D02*
X431800D01*
X660400Y76200D02*
Y94588D01*
X680000Y114188D01*
Y115000D01*
X672439Y310562D02*
X675500Y307500D01*
X672439Y310562D02*
Y343562D01*
X660400Y355600D02*
X672439Y343562D01*
X139700Y25400D02*
X141600Y23500D01*
X187500D01*
X195500Y15500D01*
D75*
X604000Y399000D02*
Y429000D01*
X579000Y374000D02*
X604000Y399000D01*
X579000Y232929D02*
Y374000D01*
Y232929D02*
X581000Y230929D01*
X213000Y469000D02*
X564000D01*
X203000Y479000D02*
X213000Y469000D01*
X564000D02*
X604000Y429000D01*
D78*
X152400Y508000D02*
D03*
D79*
X21000Y31000D02*
D03*
Y136000D02*
D03*
D80*
X416560Y508000D02*
D03*
X279400Y25400D02*
D03*
X635000Y508000D02*
D03*
X508000Y25400D02*
D03*
X116200Y88000D02*
D03*
D81*
X391160Y508000D02*
D03*
X365760D02*
D03*
X340360D02*
D03*
X314960D02*
D03*
X289560D02*
D03*
X264160D02*
D03*
X238760D02*
D03*
X213360D02*
D03*
X187960D02*
D03*
X304800Y25400D02*
D03*
X330200D02*
D03*
X355600D02*
D03*
X381000D02*
D03*
X406400D02*
D03*
X431800D02*
D03*
X457200D02*
D03*
X609600Y508000D02*
D03*
X584200D02*
D03*
X558800D02*
D03*
X533400D02*
D03*
X508000D02*
D03*
X482600D02*
D03*
X457200D02*
D03*
X635000Y25400D02*
D03*
X609600D02*
D03*
X584200D02*
D03*
X558800D02*
D03*
X533400D02*
D03*
X141600Y88000D02*
D03*
X167000D02*
D03*
D82*
X146000Y369800D02*
D03*
Y420600D02*
D03*
Y395200D02*
D03*
X662000Y443600D02*
D03*
Y418200D02*
D03*
D83*
X146000Y446000D02*
D03*
X662000Y469000D02*
D03*
D84*
X139700Y25400D02*
D03*
X660400Y76200D02*
D03*
Y355600D02*
D03*
D85*
X25400Y472440D02*
D03*
Y386080D02*
D03*
X50800Y342000D02*
D03*
D86*
Y472440D02*
D03*
X76200D02*
D03*
X25400Y497840D02*
D03*
X50800D02*
D03*
X76200D02*
D03*
X50800Y386080D02*
D03*
X76200D02*
D03*
X25400Y411480D02*
D03*
X50800D02*
D03*
X76200D02*
D03*
X25400Y316600D02*
D03*
X50800D02*
D03*
X25400Y342000D02*
D03*
D87*
X620650Y201930D02*
D03*
D88*
X595250D02*
D03*
X569850D02*
D03*
X544450D02*
D03*
X519050D02*
D03*
X493650D02*
D03*
X468250D02*
D03*
X442850D02*
D03*
X417450D02*
D03*
X392050D02*
D03*
X366650D02*
D03*
X341250D02*
D03*
X315850D02*
D03*
X290450D02*
D03*
X620650Y125730D02*
D03*
X595250D02*
D03*
X569850D02*
D03*
X544450D02*
D03*
X519050D02*
D03*
X493650D02*
D03*
X468250D02*
D03*
X442850D02*
D03*
X417450D02*
D03*
X392050D02*
D03*
X366650D02*
D03*
X341250D02*
D03*
X315850D02*
D03*
X290450D02*
D03*
D89*
X21995Y168000D02*
D03*
Y234000D02*
D03*
D90*
X573000Y419000D02*
D03*
X9000Y296515D02*
D03*
Y432000D02*
D03*
Y497000D02*
D03*
X272945Y344055D02*
D03*
X219000Y346000D02*
D03*
X134000Y154000D02*
D03*
Y163000D02*
D03*
X123000Y154000D02*
D03*
Y163000D02*
D03*
X134000Y172000D02*
D03*
X650000Y195000D02*
D03*
X613000Y77000D02*
D03*
Y69000D02*
D03*
X432000Y383000D02*
D03*
Y375000D02*
D03*
X441000D02*
D03*
Y383000D02*
D03*
X431000Y503000D02*
D03*
X440000D02*
D03*
Y495000D02*
D03*
X431000D02*
D03*
X588000Y420250D02*
D03*
X312000Y419000D02*
D03*
X248000Y223500D02*
D03*
X302000Y163438D02*
D03*
X330000Y166000D02*
D03*
X326000Y270000D02*
D03*
X303000Y228000D02*
D03*
X574000Y386000D02*
D03*
X567000Y373000D02*
D03*
Y384000D02*
D03*
X428000Y62393D02*
D03*
X452000Y66000D02*
D03*
X462500Y86500D02*
D03*
X419000Y20000D02*
D03*
Y32000D02*
D03*
X375000Y80500D02*
D03*
X402000Y65000D02*
D03*
X305000Y84000D02*
D03*
X453000Y46000D02*
D03*
X401000Y110000D02*
D03*
X470000Y163000D02*
D03*
X481000Y250000D02*
D03*
X395000D02*
D03*
X186000Y394000D02*
D03*
X299000Y431000D02*
D03*
X287000Y434000D02*
D03*
X81000Y294000D02*
D03*
X659000Y157000D02*
D03*
X623000Y464000D02*
D03*
X203000Y479000D02*
D03*
X185000Y440653D02*
D03*
X224000Y442000D02*
D03*
X548000Y419000D02*
D03*
X588000Y401000D02*
D03*
X644000Y443000D02*
D03*
X556000Y182000D02*
D03*
X113000Y150000D02*
D03*
X224000Y433000D02*
D03*
X96000Y247000D02*
D03*
X325000Y68000D02*
D03*
X292000Y62000D02*
D03*
X280000D02*
D03*
X247000Y124000D02*
D03*
X190000Y146000D02*
D03*
X182000Y288000D02*
D03*
X232000Y200000D02*
D03*
X215000Y252000D02*
D03*
X191000Y227000D02*
D03*
X170000D02*
D03*
X151000Y276000D02*
D03*
X123000Y172000D02*
D03*
X145000Y150000D02*
D03*
X157000Y408000D02*
D03*
X55000Y521000D02*
D03*
X190000Y407000D02*
D03*
X181000Y135000D02*
D03*
X89500Y106000D02*
D03*
X89750Y97000D02*
D03*
X59500Y230500D02*
D03*
Y223000D02*
D03*
X680000Y115000D02*
D03*
X111000Y261000D02*
D03*
X112000Y370000D02*
D03*
X96000Y321000D02*
D03*
X99000Y410000D02*
D03*
X246000Y187000D02*
D03*
X483000Y93000D02*
D03*
X160000Y203000D02*
D03*
X128000Y190000D02*
D03*
X204250Y209750D02*
D03*
X153000Y197000D02*
D03*
X114500Y212000D02*
D03*
X115500Y192000D02*
D03*
X292000Y401000D02*
D03*
M02*
