G04*
G04 #@! TF.GenerationSoftware,Altium Limited,Altium Designer,20.2.5 (213)*
G04*
G04 Layer_Color=8388736*
%FSLAX44Y44*%
%MOMM*%
G71*
G04*
G04 #@! TF.SameCoordinates,D028A582-A43C-45AF-95F9-5D6BD50934B0*
G04*
G04*
G04 #@! TF.FilePolarity,Negative*
G04*
G01*
G75*
%ADD33R,1.0000X1.0000*%
%ADD34R,0.8000X2.4000*%
%ADD35R,3.7000X2.4000*%
%ADD36R,1.5000X1.1000*%
%ADD37R,1.1000X1.5000*%
%ADD38R,2.7000X2.8000*%
%ADD39R,2.8000X2.7000*%
%ADD40R,1.2000X0.7500*%
%ADD41R,0.7500X1.2000*%
%ADD42R,1.8000X3.2000*%
%ADD43C,3.0480*%
%ADD44R,1.6200X0.6700*%
%ADD45R,0.6700X1.6200*%
%ADD46R,2.9000X2.2000*%
%ADD47R,1.4500X0.5000*%
%ADD48R,2.1000X2.1000*%
%ADD49R,1.5000X1.7000*%
%ADD50R,1.6000X1.8000*%
%ADD51R,0.8858X0.7588*%
%ADD52R,0.7588X0.8858*%
%ADD53R,1.5000X0.9000*%
%ADD54R,0.9000X1.5000*%
%ADD55R,1.1000X0.8000*%
%ADD56C,3.4000*%
%ADD57C,4.2000*%
%ADD58R,1.2000X2.2000*%
%ADD59O,1.2000X2.2000*%
%ADD60O,2.2000X1.2000*%
%ADD61R,2.2000X1.2000*%
%ADD62C,7.6000*%
%ADD63R,1.9000X1.9000*%
%ADD64C,1.9000*%
%ADD65C,2.1000*%
%ADD66R,2.1000X2.1000*%
%ADD67R,1.6000X2.2000*%
%ADD68O,1.6000X2.2000*%
G04:AMPARAMS|DCode=69|XSize=2.2mm|YSize=1.4mm|CornerRadius=0.4mm|HoleSize=0mm|Usage=FLASHONLY|Rotation=0.000|XOffset=0mm|YOffset=0mm|HoleType=Round|Shape=RoundedRectangle|*
%AMROUNDEDRECTD69*
21,1,2.2000,0.6000,0,0,0.0*
21,1,1.4000,1.4000,0,0,0.0*
1,1,0.8000,0.7000,-0.3000*
1,1,0.8000,-0.7000,-0.3000*
1,1,0.8000,-0.7000,0.3000*
1,1,0.8000,0.7000,0.3000*
%
%ADD69ROUNDEDRECTD69*%
%ADD70C,0.8000*%
D33*
X583000Y378000D02*
D03*
X599000D02*
D03*
X253000Y421000D02*
D03*
X237000D02*
D03*
X238000Y402000D02*
D03*
X254000D02*
D03*
Y384000D02*
D03*
X238000D02*
D03*
D34*
X133600Y115000D02*
D03*
X146300D02*
D03*
X159000D02*
D03*
X171700D02*
D03*
X184400D02*
D03*
D35*
X159000Y177000D02*
D03*
D36*
X216000Y238500D02*
D03*
Y219500D02*
D03*
X113000Y133500D02*
D03*
Y114500D02*
D03*
X205000Y123500D02*
D03*
Y104500D02*
D03*
X442000Y59000D02*
D03*
Y78000D02*
D03*
X193000Y238500D02*
D03*
Y219500D02*
D03*
X219000Y311500D02*
D03*
Y330500D02*
D03*
X170000Y219500D02*
D03*
Y238500D02*
D03*
X25000Y432500D02*
D03*
Y451500D02*
D03*
X635000Y473500D02*
D03*
Y454500D02*
D03*
X305000Y49500D02*
D03*
Y68500D02*
D03*
X361000Y49500D02*
D03*
Y68500D02*
D03*
X213000Y442500D02*
D03*
Y423500D02*
D03*
X216000Y180500D02*
D03*
Y199500D02*
D03*
X646000Y204500D02*
D03*
Y185500D02*
D03*
X228000Y104500D02*
D03*
Y123500D02*
D03*
X194000Y199500D02*
D03*
Y180500D02*
D03*
D37*
X143500Y234000D02*
D03*
X124500D02*
D03*
X462500Y76000D02*
D03*
X481500D02*
D03*
X259500Y483000D02*
D03*
X240500D02*
D03*
X600000Y333000D02*
D03*
X581000D02*
D03*
X240500Y344000D02*
D03*
X259500D02*
D03*
X238500Y238000D02*
D03*
X257500D02*
D03*
X385500Y51000D02*
D03*
X404500D02*
D03*
X22500Y521000D02*
D03*
X41500D02*
D03*
X468000Y227000D02*
D03*
X449000D02*
D03*
X420500Y99000D02*
D03*
X401500D02*
D03*
X441500D02*
D03*
X460500D02*
D03*
X430000Y251000D02*
D03*
X411000D02*
D03*
X448000D02*
D03*
X467000D02*
D03*
X651500Y126000D02*
D03*
X670500D02*
D03*
X50500Y294000D02*
D03*
X69500D02*
D03*
X86500Y236000D02*
D03*
X105500D02*
D03*
X481500Y53000D02*
D03*
X462500D02*
D03*
X421000Y76000D02*
D03*
X402000D02*
D03*
D38*
X465000Y283000D02*
D03*
X416000D02*
D03*
D39*
X251000Y315500D02*
D03*
Y266500D02*
D03*
D40*
X169500Y441500D02*
D03*
Y432000D02*
D03*
Y422500D02*
D03*
X194500Y441500D02*
D03*
Y422500D02*
D03*
X201500Y159500D02*
D03*
Y150000D02*
D03*
Y140500D02*
D03*
X226500Y159500D02*
D03*
Y140500D02*
D03*
D41*
X50500Y249500D02*
D03*
X60000D02*
D03*
X69500D02*
D03*
X50500Y274500D02*
D03*
X69500D02*
D03*
X670500Y169500D02*
D03*
X661000D02*
D03*
X651500D02*
D03*
X670500Y144500D02*
D03*
X651500D02*
D03*
D42*
X72000Y96000D02*
D03*
Y137000D02*
D03*
Y21500D02*
D03*
Y62500D02*
D03*
D43*
X669000Y19000D02*
D03*
X219000Y46000D02*
D03*
X670000Y516000D02*
D03*
X105000Y517000D02*
D03*
D44*
X196000Y272000D02*
D03*
Y280000D02*
D03*
Y288000D02*
D03*
Y296000D02*
D03*
Y304000D02*
D03*
Y312000D02*
D03*
Y320000D02*
D03*
Y328000D02*
D03*
X112000D02*
D03*
Y320000D02*
D03*
Y312000D02*
D03*
Y304000D02*
D03*
Y296000D02*
D03*
Y288000D02*
D03*
Y280000D02*
D03*
Y272000D02*
D03*
D45*
X182000Y342000D02*
D03*
X174000D02*
D03*
X166000D02*
D03*
X158000D02*
D03*
X150000D02*
D03*
X142000D02*
D03*
X134000D02*
D03*
X126000D02*
D03*
Y258000D02*
D03*
X134000D02*
D03*
X142000D02*
D03*
X150000D02*
D03*
X158000D02*
D03*
X166000D02*
D03*
X174000D02*
D03*
X182000D02*
D03*
D46*
X21000Y68000D02*
D03*
Y100000D02*
D03*
D47*
X48745Y188000D02*
D03*
Y194500D02*
D03*
Y201000D02*
D03*
Y207500D02*
D03*
Y214000D02*
D03*
D48*
X21995Y189000D02*
D03*
Y213000D02*
D03*
X195500Y15500D02*
D03*
D49*
X46495Y169000D02*
D03*
D50*
Y233000D02*
D03*
D51*
X9000Y297192D02*
D03*
Y272808D02*
D03*
D52*
X597808Y243000D02*
D03*
X622192D02*
D03*
D53*
X172000Y404500D02*
D03*
Y385500D02*
D03*
X91000Y264500D02*
D03*
Y283500D02*
D03*
X219000Y292500D02*
D03*
Y273500D02*
D03*
X611000Y473500D02*
D03*
Y454500D02*
D03*
X578129Y475879D02*
D03*
Y456879D02*
D03*
X635000Y414500D02*
D03*
Y433500D02*
D03*
X668000Y204500D02*
D03*
Y185500D02*
D03*
X29000Y293500D02*
D03*
Y274500D02*
D03*
X667000Y223500D02*
D03*
Y242500D02*
D03*
X265000Y48500D02*
D03*
Y67500D02*
D03*
X246000Y162500D02*
D03*
Y143500D02*
D03*
X647000Y223500D02*
D03*
Y242500D02*
D03*
X338000Y67500D02*
D03*
Y86500D02*
D03*
Y48500D02*
D03*
Y67500D02*
D03*
D54*
X296500Y444000D02*
D03*
X277500D02*
D03*
X296500Y421000D02*
D03*
X277500D02*
D03*
X77500Y349000D02*
D03*
X96500D02*
D03*
X106000Y213000D02*
D03*
X87000D02*
D03*
X106000Y191000D02*
D03*
X87000D02*
D03*
X104500Y167000D02*
D03*
X85500D02*
D03*
X361500Y99000D02*
D03*
X380500D02*
D03*
X622500Y226000D02*
D03*
X603500D02*
D03*
X234500Y442000D02*
D03*
X253500D02*
D03*
X410500Y228000D02*
D03*
X429500D02*
D03*
X580500Y357000D02*
D03*
X599500D02*
D03*
X32000Y254000D02*
D03*
X13000D02*
D03*
X281500Y88000D02*
D03*
X262500D02*
D03*
X143500Y213000D02*
D03*
X124500D02*
D03*
D55*
X70000Y223000D02*
D03*
Y208000D02*
D03*
X69000Y178000D02*
D03*
Y193000D02*
D03*
D56*
X152400Y508000D02*
D03*
D57*
X21000Y31000D02*
D03*
Y136000D02*
D03*
D58*
X416560Y508000D02*
D03*
X279400Y25400D02*
D03*
X635000Y508000D02*
D03*
X508000Y25400D02*
D03*
X116200Y88000D02*
D03*
D59*
X391160Y508000D02*
D03*
X365760D02*
D03*
X340360D02*
D03*
X314960D02*
D03*
X289560D02*
D03*
X264160D02*
D03*
X238760D02*
D03*
X213360D02*
D03*
X187960D02*
D03*
X304800Y25400D02*
D03*
X330200D02*
D03*
X355600D02*
D03*
X381000D02*
D03*
X406400D02*
D03*
X431800D02*
D03*
X457200D02*
D03*
X609600Y508000D02*
D03*
X584200D02*
D03*
X558800D02*
D03*
X533400D02*
D03*
X508000D02*
D03*
X482600D02*
D03*
X457200D02*
D03*
X635000Y25400D02*
D03*
X609600D02*
D03*
X584200D02*
D03*
X558800D02*
D03*
X533400D02*
D03*
X141600Y88000D02*
D03*
X167000D02*
D03*
D60*
X146000Y369800D02*
D03*
Y420600D02*
D03*
Y395200D02*
D03*
X662000Y443600D02*
D03*
Y418200D02*
D03*
D61*
X146000Y446000D02*
D03*
X662000Y469000D02*
D03*
D62*
X139700Y25400D02*
D03*
X660400Y76200D02*
D03*
Y355600D02*
D03*
D63*
X25400Y472440D02*
D03*
Y386080D02*
D03*
X50800Y342000D02*
D03*
D64*
Y472440D02*
D03*
X76200D02*
D03*
X25400Y497840D02*
D03*
X50800D02*
D03*
X76200D02*
D03*
X50800Y386080D02*
D03*
X76200D02*
D03*
X25400Y411480D02*
D03*
X50800D02*
D03*
X76200D02*
D03*
X25400Y316600D02*
D03*
X50800D02*
D03*
X25400Y342000D02*
D03*
D65*
X661500Y307500D02*
D03*
Y262500D02*
D03*
X596500D02*
D03*
X195500Y80500D02*
D03*
X240500D02*
D03*
Y15500D02*
D03*
D66*
X596500Y307500D02*
D03*
D67*
X620650Y201930D02*
D03*
D68*
X595250D02*
D03*
X569850D02*
D03*
X544450D02*
D03*
X519050D02*
D03*
X493650D02*
D03*
X468250D02*
D03*
X442850D02*
D03*
X417450D02*
D03*
X392050D02*
D03*
X366650D02*
D03*
X341250D02*
D03*
X315850D02*
D03*
X290450D02*
D03*
X620650Y125730D02*
D03*
X595250D02*
D03*
X569850D02*
D03*
X544450D02*
D03*
X519050D02*
D03*
X493650D02*
D03*
X468250D02*
D03*
X442850D02*
D03*
X417450D02*
D03*
X392050D02*
D03*
X366650D02*
D03*
X341250D02*
D03*
X315850D02*
D03*
X290450D02*
D03*
D69*
X21995Y168000D02*
D03*
Y234000D02*
D03*
D70*
X573000Y419000D02*
D03*
X9000Y296515D02*
D03*
Y432000D02*
D03*
Y497000D02*
D03*
X272945Y344055D02*
D03*
X219000Y346000D02*
D03*
X134000Y154000D02*
D03*
Y163000D02*
D03*
X123000Y154000D02*
D03*
Y163000D02*
D03*
X134000Y172000D02*
D03*
X650000Y195000D02*
D03*
X613000Y77000D02*
D03*
Y69000D02*
D03*
X432000Y383000D02*
D03*
Y375000D02*
D03*
X441000D02*
D03*
Y383000D02*
D03*
X431000Y503000D02*
D03*
X440000D02*
D03*
Y495000D02*
D03*
X431000D02*
D03*
X588000Y420250D02*
D03*
X312000Y419000D02*
D03*
X248000Y223500D02*
D03*
X302000Y163438D02*
D03*
X330000Y166000D02*
D03*
X326000Y270000D02*
D03*
X303000Y228000D02*
D03*
X574000Y386000D02*
D03*
X567000Y373000D02*
D03*
Y384000D02*
D03*
X428000Y62393D02*
D03*
X452000Y66000D02*
D03*
X462500Y86500D02*
D03*
X419000Y20000D02*
D03*
Y32000D02*
D03*
X375000Y80500D02*
D03*
X402000Y65000D02*
D03*
X305000Y84000D02*
D03*
X453000Y46000D02*
D03*
X401000Y110000D02*
D03*
X470000Y163000D02*
D03*
X481000Y250000D02*
D03*
X395000D02*
D03*
X186000Y394000D02*
D03*
X299000Y431000D02*
D03*
X287000Y434000D02*
D03*
X81000Y294000D02*
D03*
X659000Y157000D02*
D03*
X623000Y464000D02*
D03*
X203000Y479000D02*
D03*
X185000Y440653D02*
D03*
X224000Y442000D02*
D03*
X548000Y419000D02*
D03*
X588000Y401000D02*
D03*
X644000Y443000D02*
D03*
X556000Y182000D02*
D03*
X113000Y150000D02*
D03*
X224000Y433000D02*
D03*
X96000Y247000D02*
D03*
X325000Y68000D02*
D03*
X292000Y62000D02*
D03*
X280000D02*
D03*
X247000Y124000D02*
D03*
X190000Y146000D02*
D03*
X182000Y288000D02*
D03*
X232000Y200000D02*
D03*
X215000Y252000D02*
D03*
X191000Y227000D02*
D03*
X170000D02*
D03*
X151000Y276000D02*
D03*
X123000Y172000D02*
D03*
X145000Y150000D02*
D03*
X157000Y408000D02*
D03*
X55000Y521000D02*
D03*
X190000Y407000D02*
D03*
X181000Y135000D02*
D03*
X89500Y106000D02*
D03*
X89750Y97000D02*
D03*
X59500Y230500D02*
D03*
Y223000D02*
D03*
X680000Y115000D02*
D03*
X111000Y261000D02*
D03*
X112000Y370000D02*
D03*
X96000Y321000D02*
D03*
X99000Y410000D02*
D03*
X246000Y187000D02*
D03*
X483000Y93000D02*
D03*
X160000Y203000D02*
D03*
X128000Y190000D02*
D03*
X204250Y209750D02*
D03*
X153000Y197000D02*
D03*
X114500Y212000D02*
D03*
X115500Y192000D02*
D03*
X292000Y401000D02*
D03*
M02*
