M48
;Layer_Color=9474304
;FILE_FORMAT=4:4
METRIC,LZ
;TYPE=PLATED
T1F00S00C0.3000
T3F00S00C1.0000
T4F00S00C1.1000
T5F00S00C1.5000
T6F00S00C3.2000
;TYPE=NON_PLATED
T7F00S00C3.2000
%
T01
X0008975Y00097
X000895Y00106
X00113Y0015
X00123Y00154
Y00163
Y00172
X00134
Y00163
Y00154
X00145Y0015
X0019Y00146
X00181Y00135
X00247Y00124
X00246Y00187
X00232Y002
X0020425Y0020975
X00191Y00227
X0017
X0016Y00203
X00153Y00197
X00128Y0019
X001155Y00192
X001145Y00212
X00111Y00261
X00096Y00247
X000595Y002305
Y00223
X00081Y00294
X00009Y00296515
X00151Y00276
X00182Y00288
X00215Y00252
X00248Y002235
X00303Y00228
X00326Y0027
X0033Y00166
X00302Y00163438
X00305Y00084
X00292Y00062
X0028
X00325Y00068
X00375Y000805
X00402Y00065
X00428Y00062393
X00452Y00066
X00453Y00046
X00419Y00032
Y0002
X00401Y0011
X004625Y000865
X00483Y00093
X0047Y00163
X00481Y0025
X00395
X00556Y00182
X0065Y00195
X00659Y00157
X0068Y00115
X00613Y00077
Y00069
X00567Y00373
Y00384
X00574Y00386
X00588Y00401
Y0042025
X00573Y00419
X00548
X00623Y00464
X00644Y00443
X0044Y00495
Y00503
X00431
Y00495
X00432Y00383
Y00375
X00441
Y00383
X00312Y00419
X00299Y00431
X00287Y00434
X00292Y00401
X00272945Y00344055
X00219Y00346
X00186Y00394
X0019Y00407
X00157Y00408
X00099Y0041
X00112Y0037
X00096Y00321
X00009Y00432
Y00497
X00055Y00521
X00203Y00479
X00185Y00440653
X00224Y00442
Y00433
T03
X001162Y00088
X001416
X00167
X001955Y000805
X002405
Y000155
X001955
X002794Y000254
X003048
X003302
X003556
X00381
X004064
X004318
X004572
X00508
X005334
X005588
X005842
X006096
X00635
X006615Y002625
X005965
Y003075
X006615
X00662Y004182
Y004436
Y00469
X00635Y00508
X006096
X005842
X005588
X005334
X00508
X004826
X004572
X0041656
X0039116
X0036576
X0034036
X0031496
X0028956
X0026416
X0023876
X0021336
X0018796
X00146Y00446
Y004206
Y003952
Y003698
T04
X0029045Y0012573
X0031585
X0034125
Y0020193
X0031585
X0029045
X0036665
X0039205
X0041745
X0044285
X0046825
X0049365
X0051905
X0054445
X0056985
X0059525
X0062065
Y0012573
X0059525
X0056985
X0054445
X0051905
X0049365
X0046825
X0044285
X0041745
X0039205
X0036665
X000508Y003166
X000254
Y00342
X000508
Y0038608
X000254
Y0041148
X000508
X000762
Y0038608
Y0047244
X000508
X000254
Y0049784
X000508
X000762
T05
X00021Y00031
Y00136
T06
X001397Y000254
X006604Y000762
Y003556
T07
X001524Y00508
M30
